<?xml version="1.0" encoding="utf-8"?>
<!-- Generator: Adobe Illustrator 21.0.2, SVG Export Plug-In . SVG Version: 6.00 Build 0)  -->
<svg version="1.1" id="Layer_1" xmlns="http://www.w3.org/2000/svg" xmlns:xlink="http://www.w3.org/1999/xlink" x="0px" y="0px"
	 viewBox="0 0 512 512" style="enable-background:new 0 0 512 512;" xml:space="preserve">
<style type="text/css">
	.st0{fill:#4338CA;}
	.st1{fill:url(#SVGID_1_);}
	.st2{fill:#7C533E;}
	.st3{fill:#8899A6;}
	.st4{fill:#BE1931;}
	.st5{fill:#DD2E44;}
	.st6{fill:#CCD6DD;}
	.st7{fill:#A0041E;}
	.st8{fill:#0B0200;}
	.st9{fill:#312E81;}
</style>
<circle class="st0" cx="256" cy="256" r="256"/>
<radialGradient id="SVGID_1_" cx="266.9042" cy="594.9769" r="35.1105" gradientTransform="matrix(0.5055 -0.8628 -1.112 -0.6516 794.534 766.7002)" gradientUnits="userSpaceOnUse">
	<stop  offset="0.58" style="stop-color:#444140;stop-opacity:0"/>
	<stop  offset="1" style="stop-color:#444140"/>
</radialGradient>
<path class="st1" d="M289,140.8c-10.4-10.4-15.6-20.9-31.9-19.4c-12.9,1.2-18.6,16.8-17.1,21.4c0,0,4.1-10.2,20.1-10.9
	C276.1,131.2,289,140.8,289,140.8z"/>
<path class="st2" d="M208.6,281c-4.5,2.5-17.6,10-25.6,17.2c-4.6,4.2-4,7.2-2.6,14.6l0.1,0.7c1.4,7.3,16.4,54.8,19.3,64.1l9.1-2.3
	c0.1-4.8,0.3-21.8-1.4-32.8c-0.6-3.7-1.2-8.1-1.7-12.1c-0.4-3.3-0.9-6.6-1.4-9.9c-0.6-3.1,0.4-5.1,3.2-6.4c4.5-2.2,9.1-4.3,13.7-6.3
	L208.6,281z M291.7,323.1c-4.2-0.5-8.1-1-10-1.1c-3.1-0.2-4.8-1.7-5.4-4.7c-1-4.9-1.9-9.9-2.7-14.9l-29.1,5.7
	c1.3,5,5.2,19.5,10.2,29.1c2.9,5.5,6,5.7,13.4,6.1l0.7,0c7.4,0.4,57.2-2.1,66.9-2.6l0.1-9.4c-4.7-1.3-21-5.8-32-6.9
	C299.8,324.1,295.8,323.6,291.7,323.1z"/>
<path class="st3" d="M322.5,344.8l-1.3-2.4c-0.2-0.4,0-0.8,0.4-0.9c0,0,0,0,0.1,0c1.2-0.4,3.8-1.6,4.6-2c-0.8,1.7-1.6,4.5-2.6,5.4
	C323.3,345.1,322.7,345.2,322.5,344.8z"/>
<path class="st4" d="M341.4,326.3c-1-0.8-3.3-1.2-4.8-1.3c-1.9-0.1-3.9-0.2-5.8-0.1c-0.9,0-1.7,0.1-2.6,0.3c-1.4,0.4-2.1,1-2.4,1.4
	c-0.4,0.5-0.5,1-0.4,1.3c0.4,1.1,2.2,3,3,4.9c0.3,0.5,0.4,1.2,0.4,1.8c-0.2,2-2.8,4.9-4.7,7.1c-1.2,1.3-2.1,2.3-2.1,2.7
	c0,0.4,0.1,0.8,0.3,1.2v0c0.5,1,1.7,2,2.4,4.6c0.5,1.7,2.9,9.4,2.9,9.4c0.6,2,1.3,2.4,1.6,3.5c0.7,2.2,1.8,8,2.4,9.8
	c0.4,1.4,1.6,2.5,3,2.8c1.1,0.1,1.7-0.1,1.7-0.1s2.5-1.1,4.2-10.5c1.2-6.8,0.1-7.8-0.8-18.1C338.9,336.7,341.4,326.3,341.4,326.3z"
	/>
<path class="st5" d="M339.3,341.5c-1.7-0.7-5.6-3.3-6.7-6c-1-2.5-1.7-9.3-1.8-10.5c2.1-0.2,5.3,0,6.3,0c1.4,0.1,2.9,0.2,3.9,1
	l0.4,0.3C340.6,331.3,339.9,336.4,339.3,341.5z"/>
<path class="st6" d="M324.3,349.2c-0.9,0-1.6-0.7-1.6-1.6c0-0.6,0.3-1.2,0.9-1.4l2.5-1.2c0.8-0.4,1.7-0.1,2.1,0.7
	c0.4,0.8,0.1,1.7-0.7,2.1c0,0,0,0-0.1,0L325,349C324.8,349.1,324.5,349.2,324.3,349.2z M325.9,353.7c-0.7,0-1.3-0.4-1.5-1.1
	c-0.3-0.8,0.2-1.7,1-2c0,0,0,0,0,0l2.8-0.9c0.8-0.2,1.7,0.3,1.9,1.1c0.2,0.8-0.2,1.6-1,1.9l-2.8,0.9
	C326.2,353.7,326,353.7,325.9,353.7z M327.2,358.4c-0.7,0-1.4-0.5-1.5-1.2c-0.2-0.8,0.4-1.7,1.2-1.8l2.6-0.5
	c0.8-0.2,1.6,0.3,1.8,1.2c0,0,0,0,0,0c0.2,0.8-0.4,1.7-1.2,1.8l-2.6,0.5C327.4,358.4,327.3,358.4,327.2,358.4z M347.4,328.2
	c0-0.2-0.2-1-0.7-2c-0.2-0.3-0.6-0.4-1-0.5c-0.5-0.1-4.4-0.6-4.4,0.2c0,0,0,1.2-0.6,1.9c-0.5,0.8-0.9,2.7-1.1,4.2
	c-0.1,1.4-0.8,6.9-0.6,10.7c0.1,3.8,1.3,10.8,1.4,13.1c0.1,2.3,0,5.9-0.5,8.6c-0.5,2.7-1,5-1.4,6.5c-0.4,1.6-1.1,3.1-2,4.5
	c0,0,3-0.2,5.4-4.7c1.8-3.5,2.9-6.9,3.2-10.3c0-0.2,0.8-9.1,1.2-13.5c0.3-3.2,0.7-8.4,0.7-8.4C347.5,332.5,347.7,329.4,347.4,328.2z
	"/>
<path class="st3" d="M192.6,366.2l1.9-1.9c0.3-0.3,0.8-0.2,1,0.1c0,0,0,0,0,0c0.8,1.1,2.6,3.2,3.3,3.9c-1.9-0.2-4.8-0.3-5.9-1
	C192.6,367,192.3,366.5,192.6,366.2z"/>
<path class="st4" d="M215.7,379c0.5-1.2,0.2-3.5-0.1-5c-0.4-1.9-1-3.8-1.6-5.6c-0.3-0.8-0.6-1.6-1-2.4c-0.5-0.8-1.2-1.5-2.1-1.9
	c-0.6-0.3-1.1-0.1-1.4,0c-1,0.7-2.3,3-3.8,4.3c-0.4,0.4-1,0.7-1.6,0.8c-2,0.4-5.5-1.2-8.1-2.5c-1.6-0.7-2.8-1.3-3.2-1.2
	c-0.4,0.1-0.8,0.3-1,0.6l0,0h0c-0.8,0.8-1.4,2.2-3.7,3.6c-1.5,1-8.2,5.4-8.2,5.4c-1.7,1.1-2,2-2.9,2.6c-1.9,1.2-7.1,4-8.7,5.1
	c-1.8,1.1-2.3,3.5-1.2,5.3c0,0,0,0,0,0c0,0,1.8,2.1,11.3,1c6.9-0.8,7.6-2.1,17.1-5.9C205.1,379.6,215.7,379,215.7,379z"/>
<path class="st5" d="M200.6,381.3c0.2-1.8,1.5-6.3,3.9-8.1c2.1-1.7,8.4-4.2,9.6-4.7c0.8,2,1.6,5.1,1.8,6.1c0.3,1.3,0.6,2.9,0.1,4
	l-0.2,0.4C215.7,379,205,380.4,200.6,381.3z"/>
<path class="st6" d="M192.2,372.3c-0.4,0-0.9-0.2-1.2-0.5l-1.8-2c-0.6-0.6-0.5-1.6,0.1-2.2c0.6-0.6,1.6-0.5,2.2,0.1l1.8,2
	c0.6,0.6,0.5,1.6-0.1,2.2C193,372.1,192.6,372.3,192.2,372.3z M188.1,375.4c-0.5,0-1-0.3-1.3-0.7l-1.6-2.4c-0.5-0.7-0.4-1.7,0.3-2.2
	c0.7-0.5,1.7-0.4,2.2,0.3c0,0,0.1,0.1,0.1,0.1l1.6,2.4c0.5,0.7,0.3,1.7-0.4,2.2C188.7,375.4,188.4,375.4,188.1,375.4z M183.7,378
	c-0.6,0-1.1-0.3-1.4-0.8l-1.2-2.3c-0.4-0.8-0.1-1.7,0.6-2.1s1.7-0.1,2.1,0.6l0,0l1.2,2.3c0.4,0.8,0.1,1.7-0.6,2.1
	C184.2,377.9,183.9,378,183.7,378z M215.6,385.3c0.2-0.1,0.9-0.5,1.7-1.3c0.3-0.3,0.2-0.7,0.2-1.1c-0.1-0.5-0.6-4.4-1.4-4.2
	c0,0-1.1,0.3-2,0c-0.9-0.3-2.9-0.1-4.3,0.2c-1.4,0.3-6.8,1.2-10.5,2.5c-3.6,1.2-9.9,4.3-12.2,5c-2.2,0.7-5.7,1.7-8.4,2
	c-2.7,0.3-5.1,0.5-6.6,0.5c-1.7,0.1-3.3-0.1-4.9-0.7c0,0,1.1,2.9,6,3.8c3.9,0.8,7.5,0.8,10.8,0.2c0.2,0,9-1.8,13.3-2.7
	c3.2-0.7,8.3-1.7,8.3-1.7C211.5,386.6,214.6,385.9,215.6,385.3z"/>
<path class="st7" d="M205.5,280.1c5.7-3,24.7-12.4,37.7-13.7c1.2-0.1,11.9,30.4,10.4,30.9c-5.9,1.9-20.9,7-32.2,13
	c-1.1,0.7-2.6,0.4-3.4-0.7c-3.4-4.7-12.1-17.6-14-26.8C203.8,281.7,204.4,280.6,205.5,280.1z"/>
<path class="st4" d="M242.8,310.5c-1.5-6.2-6.2-26.6-4.6-39.3c0.1-1.2,28.7-5.3,28.7-5.3c1.4-0.2,4.7,24,7.8,36.3
	c0.3,1.3-0.3,2.6-1.4,3.1c-5.2,2.1-19.3,7.5-28.4,7.3C244,312.4,243.1,311.6,242.8,310.5z"/>
<path class="st2" d="M218.8,200.5c-0.9,5,2,11.1,13.5,13.6c11.5,2.4,19.9,2.1,25.9,1.7c5.1-0.4,4.4,7.4,5.5,15.6
	c1.2,8.2,1.9,18.8,1.4,20.5c-0.8,2.8-5.6,3.7-3.4,8.7c2.2,5,2.6,7.8,7.3,6.2c4.8-1.6,9.5-3.3,10.9-5.9c1.4-2.6-3.3-8.3-3.4-11.4
	c-0.1-2.3,2.3-30.9,2.1-34.3c-0.2-4.1-0.3-9.7-6.9-12.3c-6.6-2.6-32-9.1-38.7-10.5C226,190.9,220,193.8,218.8,200.5z"/>
<path class="st2" d="M232,164.4c2.6-3.3,4.4-7.2,5.1-11.3c3.2-16.2-6.2-31.7-20.9-34.6c-14.7-2.9-34.9,8-34.5,24.5
	c0.4,16.4,9.6,40.6,23.3,36.5c3.6-1.1,7.3-2.3,10.7-3.7c1.5,1.7,2.5,8.4,1.9,14.1c-1.6,14.6,18.5,16.1,20.1,1.5
	C239,179.9,231.8,172.6,232,164.4z"/>
<path class="st8" d="M274.2,134.2c-10.2-0.1-19.4-10.6-30-3.9c-1.7,1.1-3.3,2.4-4.7,3.9c-1.8-5.5-5-10.6-10.1-14
	c-5-3.3-11.2-5.7-17.1-5.1c-35.7,4-33.7,29.8-31,32.2s10.1-4.5,15.6-5.2c2.6-0.4,8.1-0.4,11.1,3.8c2.4,3.4,3.2,10.4,3.2,10.4
	s0.1-7.9,0.3-10.7c0.2-2.6,2.8-5.6,6.2-1.7c3,3.3,1.5,9.9-0.6,10.6c-1.6,0.5,1,4.5,5,7.5c7.4,5.5,13.1,3.3,13.9,3
	c0.8-0.3,3.6-0.9,5-10.4c0.2-1.3,0.3-2.7,0.4-4.2c2.9,2.5,7.7,5.5,14.2,5.6c7.2,0.1,20.4-3.6,27.9-12.6c5.8-6.9,8.2-18.3,8.2-18.3
	C288.8,130.7,281.9,134.2,274.2,134.2z"/>
<path class="st5" d="M256.4,198.1c-5.7-13.3-13.9-20.2-25.2-16.5c-10,3.3-15,9-17.9,15.3c-1.4,3.1-7,15.1-3.6,22.8
	c6.6,15.2,17.5,45.7,19.4,55c0,0,2.5,2.5,18.7,0.5c14.2-1.8,21.3-3.1,21.3-3.1C266.9,251.9,265.6,219.5,256.4,198.1z"/>
<path class="st2" d="M237.5,199.1c-4.5-2.9-11.7-2.6-18.7,7.7c-5.3,7.5-9.4,15.8-12.2,24.5c-1.7,5.1-9,1.2-17.4-1
	c-8.4-2.2-19.1-5.9-20.6-7c-2.4-1.9-1.3-7-7.1-6.9c-5.8,0.1-8.6-0.7-9,4.6c-0.4,5.3-0.6,10.6,1.3,13c2,2.4,9.4,0.1,12.5,1.3
	c2.3,0.9,29.2,14.8,32.5,16.1c4.1,1.5,9.6,3.7,14.8-1.7c5.2-5.4,22-27.4,26-33.5C243.9,210,243.5,202.9,237.5,199.1z"/>
<path class="st9" d="M167.2,388.2c0,0,3.1,6.6,15.1,4.3s33.3-7.2,33.3-7.2s3-1.7,1.6-4l-1.1-2.6c0,0,0.2-8.4-5.1-14.6l-1.4,0
	c0,0-3.1-33.9-5.3-45.5c0,0-0.1-3,3.4-4.6s10.4-4.5,10.4-4.5s1.6,1.6,3.4,0.7c1.8-0.9,19.5-8.5,19.5-8.5l2,8.8c0,0,0.9,2,2.2,2
	c0,0,9.6,25.6,10.9,26.8c1.3,1.3,1.7,3.1,6.3,3.4c4.7,0.3,5,1.4,59.3-1.2c0,0-0.7,0.2-0.2,1.3c0.6,1.1,0.7,1.3,0.7,1.3
	s-0.4,1.5,0.9,2.5c0,0-0.6,1.3,0,2s0.5,0.5,1.2,0.6l0.6,1.6c0,0-0.9,0.9-0.5,1.8c0,0,0.5,1.1,1.5,1.1l0.5,1.6c0,0-1,1.2-0.7,1.8
	c0,0,0.4,1.3,1.5,1.2c0,0,1,3.3,2,4.5c0,0,2.4,10.2,2.7,10.7c0.3,0.5,1.9,2.7,4.5,2c0,0,7.2-0.6,8.8-18.7s2.4-24.3,2.3-27.9
	c0,0-0.5-2.8-1.4-3s-4.9-0.8-4.9,0c0,0-2.4-1.3-6.4-1.1c-4,0.2-9.1-0.4-9.4,2.5c-0.3,3,0.7,1.9,0.7,1.9s-25.1-7.7-45.9-7.5
	c0,0-3.2-0.5-3.9-4.5s-2.3-12.5-2.3-12.5s1.2-1.1,0.8-2.7l-6-29.9l0.2,0l-0.5-5.2c0,0,9.3-2.4,11.7-7.5c0,0-0.9-2.9-1.9-5
	c-1-2.1-2.3-4.4-1.6-9.3l1.9-30c0,0,1.2-10.1-9.2-13.1s-13.1-3.9-13.1-3.9s-7-18.1-19.7-17.5c0,0-4.3-10.6-4.6-15c0,0,6,0,7.3-4.2
	c1.3-4.3,1.8-6.1,2.2-11c0,0,34.5,20.3,50.3-25.4c15.9-45.7,0-1.2,0-1.2l218,165.5c0,0-4.4,30.1-15,59c-8.7,23.7-23.3,46.3-29,54.4
	c-6.2,8.7-26.7,36.2-57.6,59.1c-32.6,24.3-76.4,43.9-116.4,47.7L167.2,388.2z"/>
</svg>
