<?xml version="1.0" encoding="utf-8"?>
<!-- Generator: Adobe Illustrator 21.0.2, SVG Export Plug-In . SVG Version: 6.00 Build 0)  -->
<svg version="1.1" id="Layer_1" xmlns="http://www.w3.org/2000/svg" xmlns:xlink="http://www.w3.org/1999/xlink" x="0px" y="0px"
	 viewBox="0 0 512 512" style="enable-background:new 0 0 512 512;" xml:space="preserve">
<style type="text/css">
	.st0{fill:#5E6664;}
	.st1{fill:#2F423F;}
	.st2{fill:#EAE9DA;}
	.st3{fill:#CE3838;}
	.st4{fill:#A31A1A;}
	.st5{fill:#CCCAB6;}
	.st6{fill:#B5B29C;}
</style>
<circle class="st0" cx="257" cy="255.2" r="256"/>
<path class="st1" d="M438.1,74.1c99.6,100.4,99.6,261.8,0,362.2s-261.8,99.6-362.2,0"/>
<path class="st2" d="M150.7,358.4c0,0,0,2.6,0,4.3c0,66.6,47.8,119.6,105.9,119.6s105.9-53,105.9-119.6c0-1.7,0-4.3,0-4.3H150.7z"/>
<rect x="145.6" y="307.1" class="st3" width="222.1" height="34.2"/>
<polyline class="st4" points="145.6,307.1 367.7,307.1 367.7,341.3 "/>
<path class="st5" d="M362.5,358.4H256.6v123c59.8,0,105.9-53,105.9-118.7C362.5,360.9,362.5,358.4,362.5,358.4z"/>
<g>
	<rect x="133.5" y="279.9" class="st6" width="246.9" height="8.2"/>
	<rect x="150" y="321" class="st6" width="214" height="8.2"/>
	<polygon class="st6" points="396.9,230.5 117.1,230.5 117.1,222.3 405.2,222.3 	"/>
	<rect x="92.4" y="164.6" class="st6" width="329.3" height="8.2"/>
</g>
<rect x="252.9" y="57.6" class="st5" width="8.2" height="271.6"/>
<g>
	<polygon class="st2" points="210.1,1.7 184.6,25.5 154.1,9.1 164,79 193.6,94.7 193.6,94.7 194.4,94.7 194.4,94.7 194.4,94.7 
		219.1,71.6 	"/>
	<polygon class="st2" points="139.3,14 116.2,40.3 84.1,28 101.4,95.5 133.5,107.8 133.5,108.7 133.5,108.7 133.5,108.7 
		133.5,107.8 155.8,82.3 	"/>
	<polygon class="st2" points="71,32.1 51.2,60.9 18.3,51.9 43,117.7 75.9,126.8 75.9,126.8 75.9,126.8 76.7,126.8 76.7,125.9 
		95.7,98 	"/>
</g>
<g>
	<polygon class="st5" points="231.5,329.3 195.3,58.4 184.6,59.3 220,329.3 	"/>
	<polygon class="st5" points="196.1,329.3 130.2,72.4 120.4,74.1 184.6,329.3 	"/>
	<polygon class="st5" points="159.9,329.3 69.3,90.6 59.4,93.8 148.3,329.3 	"/>
</g>
<g>
	<polygon class="st2" points="303.9,1.7 329.4,25.5 359.9,9.1 350,79 320.4,94.7 320.4,94.7 319.6,94.7 319.6,94.7 319.6,94.7 
		294.9,71.6 	"/>
	<polygon class="st2" points="374.7,14 397.8,40.3 429.9,28 412.6,95.5 380.5,107.8 380.5,108.7 380.5,108.7 380.5,108.7 
		380.5,107.8 358.2,82.3 	"/>
	<polygon class="st2" points="443,32.1 462.8,60.9 495.7,51.9 471,117.7 438.1,126.8 438.1,126.8 438.1,126.8 437.3,126.8 
		437.3,125.9 418.3,98 	"/>
</g>
<polygon class="st2" points="279.6,-3.3 254.7,16.6 229.8,-3.3 229.8,67.3 254.7,87.2 254.7,87.2 254.7,87.2 254.7,87.2 254.7,87.2 
	279.6,67.3 "/>
<g>
	<polyline class="st5" points="257,82.3 257,86.4 257,86.4 257,86.4 257,86.4 281.7,66.7 281.7,-3.3 255.4,14.8 	"/>
	<polyline class="st5" points="193.6,94.7 193.6,94.7 194.4,94.7 194.4,94.7 194.4,94.7 219.1,71.6 210.1,1.7 184.6,25.5 	"/>
	<polyline class="st5" points="133.5,107.8 133.5,108.7 133.5,108.7 133.5,108.7 133.5,107.8 155.8,82.3 139.3,14 116.2,40.3 	"/>
	<polyline class="st5" points="75.9,126.8 75.9,126.8 75.9,126.8 76.7,126.8 76.7,125.9 95.7,98 71,32.1 51.2,60.9 	"/>
	<polyline class="st5" points="329.4,25.5 359.9,9.1 350,79 320.4,94.7 320.4,94.7 319.6,94.7 319.6,94.7 319.6,94.7 	"/>
	<polyline class="st5" points="397.8,40.3 429.9,28 412.6,95.5 380.5,107.8 380.5,108.7 380.5,108.7 380.5,108.7 380.5,107.8 	"/>
	<polyline class="st5" points="462.8,60.9 495.7,51.9 471,117.7 438.1,126.8 438.1,126.8 438.1,126.8 437.3,126.8 437.3,125.9 	"/>
	<polygon class="st5" points="282.5,329.3 318.7,58.4 329.4,59.3 294,329.3 	"/>
	<polygon class="st5" points="317.9,329.3 383.8,72.4 393.6,74.1 329.4,329.3 	"/>
	<polygon class="st5" points="354.1,329.3 444.7,90.6 454.6,93.8 365.7,329.3 	"/>
</g>
</svg>
