<?xml version="1.0" encoding="utf-8"?>
<!-- Generator: Adobe Illustrator 21.0.2, SVG Export Plug-In . SVG Version: 6.00 Build 0)  -->
<svg version="1.1" id="Layer_1" xmlns="http://www.w3.org/2000/svg" xmlns:xlink="http://www.w3.org/1999/xlink" x="0px" y="0px"
	 viewBox="0 0 512 512" style="enable-background:new 0 0 512 512;" xml:space="preserve">
<style type="text/css">
	.st0{fill:#FF7F4F;}
	.st1{fill:#262625;}
	.st2{fill:#E03A00;}
</style>
<g>
	<circle class="st0" cx="256" cy="256" r="256"/>
	<circle class="st0" cx="256" cy="256" r="256"/>
</g>
<g id="_x36_0">
</g>
<g id="_x35_9">
</g>
<g id="_x35_8">
</g>
<g id="_x35_7">
</g>
<g id="_x35_6">
</g>
<g id="_x35_5">
</g>
<g id="_x35_4">
</g>
<g id="_x35_3">
</g>
<g id="_x35_2">
</g>
<g id="_x35_1">
</g>
<g id="_x35_0">
</g>
<g id="_x34_9">
</g>
<g id="_x34_8">
</g>
<g id="_x34_7">
</g>
<g id="_x34_6">
</g>
<g id="_x34_5">
</g>
<g id="_x34_4">
</g>
<g id="_x34_3">
</g>
<g id="_x34_2">
</g>
<g id="_x34_1">
</g>
<g id="_x34_0">
</g>
<g id="_x33_9">
</g>
<g id="_x33_8">
</g>
<g id="_x33_7">
</g>
<g id="_x33_6">
</g>
<g id="_x33_5">
</g>
<g id="_x33_4">
</g>
<g id="_x33_3">
</g>
<g id="_x33_2">
</g>
<g id="_x33_1">
</g>
<g id="_x33_0">
</g>
<g id="_x32_9">
</g>
<g id="_x32_8">
</g>
<g id="_x32_7">
</g>
<g id="_x32_6">
</g>
<g id="_x32_5">
</g>
<g id="_x32_4_1_">
</g>
<g id="_x32_3">
</g>
<g id="_x32_2">
</g>
<g id="_x32_1">
</g>
<g id="_x32_0">
</g>
<g id="_x31_9">
</g>
<g id="_x31_8">
</g>
<g id="_x31_7">
</g>
<g id="_x31_6">
</g>
<g id="_x31_5">
</g>
<g id="_x31_4">
</g>
<g id="_x31_3">
</g>
<g id="_x31_2">
</g>
<g id="_x31_1">
</g>
<g id="_x31_0">
	<path class="st1" d="M318.9,170.4c-5.7,0-11.1,1.6-15.7,4.3c-5.7-9-15.7-15-27.1-15c-5.7,0-11.1,1.6-15.7,4.3
		c-5.7-9-15.7-15-27.1-15s-21.4,6-27.1,15c-4.7-2.7-10-4.3-15.7-4.3c-17.7,0-32.1,14.4-32.1,32.1v21.4c0,0.1,0,0.2,0,0.2
		c-12.9,9.8-21.4,25.1-21.4,42.6v21.4c0,25.8,18.4,47.5,42.8,52.4v22.5c0,5.9,4.8,10.7,10.7,10.7h64.2c5.9,0,10.7-4.8,10.7-10.7
		c0-5.9-4.8-10.7-10.7-10.7h-53.5v-21.4c0-5.9-4.8-10.7-10.7-10.7c-17.7,0-32.1-14.4-32.1-32.1V256c0-17.7,14.4-32.1,32.1-32.1h42.8
		v10.7c0,5.9-4.8,10.7-10.7,10.7h-32.1c-5.9,0-10.7,4.8-10.7,10.7s4.8,10.7,10.7,10.7c17.7,0,32.1,14.4,32.1,32.1
		c0,5.9,4.8,10.7,10.7,10.7s10.7-4.8,10.7-10.7c0-12.8-4.7-24.4-12.2-33.6c12.5-3.8,21.8-14.9,22.7-28.4c5.7,5.2,13.3,8.5,21.6,8.5
		c8.3,0,15.7-3.2,21.4-8.3c5.7,5.1,13.1,8.3,21.4,8.3c3.8,0,7.3-0.8,10.7-2v34.1c0,17.7-14.4,32.1-32.1,32.1
		c-5.9,0-10.7,4.8-10.7,10.7v32.1c0,5.9,4.8,10.7,10.7,10.7s10.7-4.8,10.7-10.7v-22.5c24.4-5,42.8-26.6,42.8-52.4v-64.2v-10.7
		C351,184.8,336.6,170.4,318.9,170.4z M179.8,203.6v-11.8c0-5.9,4.8-10.7,10.7-10.7s10.7,4.8,10.7,10.7v10.7h-10.7
		C186.8,202.5,183.3,202.9,179.8,203.6z M222.6,202.5v-21.4c0-5.9,4.8-10.7,10.7-10.7s10.7,4.8,10.7,10.7v21.4H222.6z M276.1,223.9
		c-5.9,0-10.7-4.8-10.7-10.7v-21.4c0-5.9,4.8-10.7,10.7-10.7s10.7,4.8,10.7,10.7v21.4C286.8,219.1,282,223.9,276.1,223.9z
		 M318.9,223.9c-5.9,0-10.7-4.8-10.7-10.7v-10.7c0-5.9,4.8-10.7,10.7-10.7s10.7,4.8,10.7,10.7v10.7
		C329.6,219.1,324.8,223.9,318.9,223.9z"/>
</g>
<g id="_x39_">
</g>
<g id="_x38_">
</g>
<g id="_x37_">
</g>
<g id="_x36_">
</g>
<g id="_x35_">
</g>
<g id="_x34_">
</g>
<g id="_x33_">
</g>
<g id="_x32_">
</g>
<g id="_x31_">
</g>
<g id="topic">
</g>
<g id="Guides">
</g>
<path class="st2" d="M182.6,363h114.9c0,0,10.9-1.4,10.7-10.7c-0.2-9.3,0-22.5,0-22.5s42.5-12.5,42.5-49.2s0-82.8,0-82.8
	l140.4,159.6c0,0-48.8,118.5-165.9,145.1"/>
</svg>
