<?xml version="1.0" encoding="utf-8"?>
<!-- Generator: Adobe Illustrator 21.0.2, SVG Export Plug-In . SVG Version: 6.00 Build 0)  -->
<svg version="1.1" id="Layer_1" xmlns="http://www.w3.org/2000/svg" xmlns:xlink="http://www.w3.org/1999/xlink" x="0px" y="0px"
	 viewBox="0 0 512 512" style="enable-background:new 0 0 512 512;" xml:space="preserve">
<style type="text/css">
	.st0{fill:#FF7F4F;}
	.st1{fill:url(#SVGID_1_);}
	.st2{fill:#E0E0E0;}
	.st3{fill:#4568AD;}
	.st4{fill:#616161;}
	.st5{fill:url(#SVGID_2_);}
	.st6{fill:#294B7C;}
	.st7{fill:#7C7C7C;}
	.st8{opacity:0.2;enable-background:new    ;}
	.st9{fill:url(#SVGID_3_);}
	.st10{fill:#4A2F27;}
	.st11{fill:url(#SVGID_4_);}
	.st12{fill:#3615AF;}
	.st13{fill:#70534A;}
	.st14{fill:#1A1717;}
	.st15{fill:#232020;}
	.st16{fill:url(#SVGID_5_);}
	.st17{fill:url(#SVGID_6_);}
	.st18{fill:url(#SVGID_7_);}
	.st19{fill:url(#SVGID_8_);}
	.st20{fill:url(#SVGID_9_);}
	.st21{fill:url(#SVGID_10_);}
	.st22{fill:url(#SVGID_11_);}
	.st23{fill:url(#SVGID_12_);}
	.st24{fill:#FF5419;}
</style>
<circle class="st0" cx="256" cy="256" r="256"/>
<linearGradient id="SVGID_1_" gradientUnits="userSpaceOnUse" x1="321.385" y1="837.933" x2="266.115" y2="792.9021" gradientTransform="matrix(0.9962 8.759041e-02 -8.759041e-02 0.9962 56.093 -489.7554)">
	<stop  offset="0.598" style="stop-color:#70534A"/>
	<stop  offset="1" style="stop-color:#5C4037"/>
</linearGradient>
<path class="st1" d="M271.4,336.2l-10.1-38.7L230,310.2c0,0,7.1,20.7,9.9,30.2c2.3,7.8,6.2,15.8,18.9,22.1l55.8,23.2l1.5-19.3
	L271.4,336.2L271.4,336.2z"/>
<path class="st2" d="M301.1,356.2c-7.9,10.8-5.9,21.4-5.9,21.4l21.4,9.5l2.7-20.7C319.2,366.5,301.1,356.2,301.1,356.2z"/>
<path class="st3" d="M330.2,359.4c-0.6-1.6-3.3-3.1-6.6-2.4l-5.6,1.6c-3.8,2-4.7,4.4-4.7,4.4c-1.1,12.9,1.4,22.6,1.4,22.6l11.5,13.3
	c2.8,3.3,7.4,4.6,11.6,3.2l3.2-1.1c1.4-0.5,2.9-3,2.2-5.7C343.1,395.4,330.2,359.4,330.2,359.4z"/>
<path class="st4" d="M227.4,304.4c-0.6,4.1,10.6,29.7,10.6,29.7c18-1.4,36.9-18.4,36.9-18.4s-9.8-11.1-8.9-31.6
	C265.9,284.1,227.4,304.4,227.4,304.4z"/>
<linearGradient id="SVGID_2_" gradientUnits="userSpaceOnUse" x1="175.5672" y1="839.7617" x2="215.7107" y2="798.0501" gradientTransform="matrix(1 0 0 1 0 -490)">
	<stop  offset="0.598" style="stop-color:#70534A"/>
	<stop  offset="1" style="stop-color:#5C4037"/>
</linearGradient>
<path class="st5" d="M185.6,367.9l21.4-0.2c0,0-7.1-39-9-46.1l49.7-16.4l-10.9-33.9L179.6,297c-7.2,3.3-14.5,12.2-10.5,27.2
	C171.5,332.9,185.6,367.9,185.6,367.9z"/>
<path class="st2" d="M204,350.4c-14-1.2-22.8,6.5-22.8,6.5l7.5,22.6l19.4-7.1L204,350.4z"/>
<path class="st3" d="M210.2,384.9c1.6-0.5,3.2-3.3,2.4-6.6l-1.6-5.6c-1.3-4.1-5.4-7.8-5.4-7.8c-13-1.3-21.6,7.4-21.6,7.4l-13.3,8
	c-3.4,2.8-4.7,7.4-3.4,11.6l1.1,3.2c0.5,1.4,2.9,2.9,5.7,2.3C174.1,397.3,210.2,384.9,210.2,384.9z"/>
<path class="st6" d="M193.2,384.2c-11,4.3-18.7,7.6-21.9,10.1c-3.3,2.3-0.4,3.9,2.8,3l30.9-9.3c5.8-2,8-4.5,7.7-7.3
	C212.5,377.8,203.6,380.1,193.2,384.2z"/>
<path class="st7" d="M191.7,291.6c13.2,2.6,29.2,29.2,29.2,29.2s25.6-11.6,34.8-17c16.9-10,12.2-29.6,6.8-39.2l-6.8-15l-48.6,12.4
	l-0.7,10.5l2,10.5L191.7,291.6z"/>
<path class="st8" d="M208.4,282.9c25.2-17.7,56.6-12.7,56.6-12.7c-3.9-10.5-11.2-24.1-11.2-24.1s-47.2,12.5-48.1,18.9
	C204.8,271.5,208.4,282.9,208.4,282.9z"/>
<linearGradient id="SVGID_3_" gradientUnits="userSpaceOnUse" x1="156.1736" y1="745.2236" x2="201.9623" y2="733.0953" gradientTransform="matrix(1 0 0 1 0 -490)">
	<stop  offset="0.598" style="stop-color:#70534A"/>
	<stop  offset="1" style="stop-color:#5C4037"/>
</linearGradient>
<path class="st9" d="M221.6,232.9l-12-17.9L158,269.9c0,0,0,3.9,4.5,6.5c4.5,2.6,8.9,0.7,8.9,0.7S221.6,232.9,221.6,232.9z"/>
<path class="st10" d="M157.8,276c0,0-3.9,6.3-5.2,14.4c-0.5,3.3,0.6,6.3,1.1,6.9c1.4,1.8,3.8,2.2,4.6,0.7c0.7-1.3-1-3.4-1-4.7
	c0-1.5,0.9-2.7,0.9-2.7c0.5,1.6,4.1,4.8,5.3,4.5c3.3-1-1.8-5.1-1.6-7.9c0.6-7.2,3.3-11.9,3.3-11.9S157.8,276,157.8,276z"/>
<linearGradient id="SVGID_4_" gradientUnits="userSpaceOnUse" x1="152.6858" y1="770.8681" x2="164.8016" y2="783.3051" gradientTransform="matrix(1 0 0 1 0 -490)">
	<stop  offset="0.598" style="stop-color:#70534A"/>
	<stop  offset="1" style="stop-color:#5C4037"/>
</linearGradient>
<path class="st11" d="M173.7,272.2c0.5,4.5-0.4,4.1-1.3,9.9c-0.6,3.5,1.2,4.9,1.1,7.4c-0.1,1.5-1.8,3.2-3.5,2.2
	c-3.8-2.2-2.1-11.3-9.3-9.2c-5.3,1.5-7.7,13.1-12.1,16.9c-4.3,3.6-8,0.7-6.8-0.7c0,0,2.4-4.3,5.1-8.9c3.3-5.5,4.5-15.8,14.1-22.2
	L173.7,272.2z"/>
<path class="st12" d="M227.7,195.9c-19.3,16-31.9,32-31.9,32c10.7,0.7,20.3,16.3,20.3,16.3S242.2,183.8,227.7,195.9z"/>
<path class="st13" d="M248.9,135.2c-5.5-11.8-23.7-17.9-36.4-14.9c-14.1,3.4-21.1,14.3-22.1,27.5c-0.4,4.8,0.1,9.5,1.2,12.8
	c0.1,0.4,1.1,3.3,1.3,4.2c0.8,3.5-5.8,7.5-6.3,11.5c-0.4,3,5.9,4.4,6.4,4.9c2.6,2.4-0.3,14.8,16.6,15.2c5.9,0.2,7-0.6,7-0.6
	l1.2,19.1l28.1-20.7c0,0-5.2-8.2-1.1-16.5C250,167,255.9,150.2,248.9,135.2z"/>
<path class="st14" d="M195.2,188c2.3-0.1,4.6-0.8,6.4-2.4c2-1.8,0.4-3.4-2-2.2c-1.4,0.8-3.5,1.2-5.4,1
	C194.2,184.5,195.2,188,195.2,188z"/>
<ellipse transform="matrix(0.9943 -0.1063 0.1063 0.9943 -16.493 22.5582)" class="st14" cx="203.4" cy="166" rx="3.1" ry="4.7"/>
<path class="st14" d="M200.4,159.4c-2.8,1.4-3.8-0.4-3.1-2.2c0.5-1.3,2.2-2.6,5.7-2.5c3.4,0.1,5,1.7,6.1,2.7c1.1,1,1.2,2.1,0.5,2.4
	C208.6,160.2,203.9,157.7,200.4,159.4z"/>
<path class="st15" d="M295.8,147.3c-15.8-11.6-19.2-27.6-38.8-25.8c-12.9,1.2-18.7,17.2-17.1,21.8c3,8.8,11.1,6,15.4,6.2
	c0,0,8,15.2,29.9,18.4c34.3,5,43.1-13.2,43.1-13.2S311.1,158.4,295.8,147.3z"/>
<radialGradient id="SVGID_5_" cx="353.6878" cy="756.1925" r="66.6482" gradientTransform="matrix(0.9975 7.120000e-02 -4.100000e-02 0.574 -17.4625 -321.4954)" gradientUnits="userSpaceOnUse">
	<stop  offset="0.562" style="stop-color:#444140;stop-opacity:0"/>
	<stop  offset="1" style="stop-color:#444140"/>
</radialGradient>
<path class="st16" d="M295.8,147.3c-15.8-11.6-18.7-27.6-38.8-25.8c-12.7,1.1-18.7,17.2-17.1,21.8c3,8.8,11.1,6,15.4,6.2
	c0,0,8,15.2,29.9,18.4c34.3,5,43.1-13.2,43.1-13.2S311.1,158.4,295.8,147.3z"/>
<radialGradient id="SVGID_6_" cx="338.8372" cy="-84.2454" r="35.1105" gradientTransform="matrix(0.5055 -0.8628 1.112 0.6516 190.2385 495.9714)" gradientUnits="userSpaceOnUse">
	<stop  offset="0.58" style="stop-color:#444140;stop-opacity:0"/>
	<stop  offset="1" style="stop-color:#444140"/>
</radialGradient>
<path class="st17" d="M289,140.8c-10.4-10.4-15.6-20.9-31.9-19.4c-12.9,1.2-18.6,16.8-17.1,21.4c0,0,4.1-10.2,20.1-10.9
	C276.1,131.2,289,140.8,289,140.8z"/>
<radialGradient id="SVGID_7_" cx="439.5227" cy="-514.2228" r="33.6703" gradientTransform="matrix(-0.3826 0.9239 -1.4154 -0.5861 -250.112 -564.4496)" gradientUnits="userSpaceOnUse">
	<stop  offset="0" style="stop-color:#444140"/>
	<stop  offset="0.526" style="stop-color:#444140;stop-opacity:0"/>
</radialGradient>
<path class="st18" d="M295.8,147.3c-3.9-2.9-7.4-6.3-10.7-10c-2.9-3.2-5.3-6.1-10-6c-7.5,0.1-14.5,11.8-10.6,19.9
	c2.4,5,12.2,13.5,33.5,15.5c23.1,2.2,30.1-12.1,30.1-12.1S311.1,158.4,295.8,147.3z"/>
<g>
	
		<radialGradient id="SVGID_8_" cx="315.9377" cy="572.8895" r="29.3047" gradientTransform="matrix(0.9869 0.1611 -0.1611 0.9869 83.3592 -494.2817)" gradientUnits="userSpaceOnUse">
		<stop  offset="0" style="stop-color:#CED7DB"/>
		<stop  offset="0.303" style="stop-color:#BFCBD0"/>
		<stop  offset="0.88" style="stop-color:#99ABB4"/>
		<stop  offset="1" style="stop-color:#90A4AE"/>
	</radialGradient>
	<circle class="st19" cx="309.6" cy="133.3" r="29.3"/>
</g>
<linearGradient id="SVGID_9_" gradientUnits="userSpaceOnUse" x1="347.3038" y1="602.6106" x2="282.4219" y2="661.6591" gradientTransform="matrix(0.9858 0.1678 -0.1678 0.9858 93.6482 -494.6508)">
	<stop  offset="0.598" style="stop-color:#70534A"/>
	<stop  offset="1" style="stop-color:#5C4037"/>
</linearGradient>
<path class="st20" d="M246.7,192.9c-14,6.6-1.6,23-1.6,23s27-4.5,37.9-7.1c15.6-3.6,17.9-9,21.7-13.7c3-3.8,18.1-26.1,18.1-26.1
	l-0.9-7.9l-13.8,3L285,185.5C285,185.5,258.9,187.1,246.7,192.9z"/>
<linearGradient id="SVGID_10_" gradientUnits="userSpaceOnUse" x1="334.333" y1="648.6563" x2="269.4487" y2="707.7048" gradientTransform="matrix(0.9964 -8.430394e-02 8.430394e-02 0.9964 -51.2655 -482.9698)">
	<stop  offset="0.598" style="stop-color:#70534A"/>
	<stop  offset="1" style="stop-color:#5C4037"/>
</linearGradient>
<path class="st21" d="M308.7,165.3c-0.4-7.1,8.7-10.7,8.7-10.7s-3-7.6-4.2-9.9c-1.2-2.4-0.4-4,0.1-4.3c1.5-0.8,2.9,0,3.4,0.5
	c1.9,2.3,4.8,6.4,4.8,6.4c1.3-0.5-0.7-7-1.7-11.4c-0.6-2.6,2.5-5.4,4.7-0.8c1.8,3.8,4.2,10.9,4.2,10.9c0.4-2.9-0.1-7.5-0.7-13.2
	c-0.3-2.7,0.8-3.9,2.6-4c1.3-0.1,2.4,0.2,3.3,5.6c0.3,1.6,0.7,10.7,0.7,10.7c2.5-1.3,3.2-8.3,3.4-12.8c0.1-3.2,4.3-4,4.9,0.8
	c1.1,9.7-3.9,18-6.2,21.9c-1.2,2-14.5,14.6-14.5,14.6L308.7,165.3z"/>
<g>
	
		<radialGradient id="SVGID_11_" cx="235.1953" cy="635.3148" r="48.7291" gradientTransform="matrix(0.9427 0.3337 -0.3337 0.9427 213.7818 -462.4302)" gradientUnits="userSpaceOnUse">
		<stop  offset="0" style="stop-color:#651FFF"/>
		<stop  offset="1" style="stop-color:#530EEB"/>
	</radialGradient>
	<path class="st22" d="M273.1,260.1c-22-20.8-11.6-38.7-11.6-38.7s0.2-3.1,11.6-5.4c0,0-1.6-13.2,5-30.7c0,0-25.1,0.3-35.5,3.7
		c-6.2,2-16.3,3.4-25.7,13.9c-5.4,6-9.2,11.8-13,30.5c-4.2,20.8,4.6,49.6,4.6,49.6C227.6,261.1,273.1,260.1,273.1,260.1z"/>
</g>
<g>
	<path class="st15" d="M250.4,129.7c-6.5-7.5-16.8-12.2-27.7-12.4c-9.5-0.3-22.3,2.4-30.1,10.4c-4.7,4.8-7.4,11.1-6.4,18
		c0.6,4.1,4,6.2,4,6.2s3.7-9.5,13.4-7.4c10.2,2.3,14.6,0.1,14.6,0.1c-3.2,8.1-0.1,12.5,2.6,14.9c1.6,1.4,3,3.1,3.8,4.1
		c0.4,0.5,0.8,0.5,0.9-0.1c0.4-1.3,1.1-3.7,1.6-4.8c1.8-3.7,4.8-2.5,4.8-2.5c4.1,1.4,5.8,9.7-0.8,14.8c-0.2,0.1-0.6,0.4-0.3,1.3
		c2.8,8.5,12.9,8.5,13.5,8.2l0,0l0.2-0.1c1.3-0.7,2.1-1.8,2.3-3.3c0.7-5.7,3.1-7.4,4.9-9.9c2-2.9,4.2-6.1,5.4-15.1
		C258,143.7,255.7,136,250.4,129.7z"/>
	
		<radialGradient id="SVGID_12_" cx="228.1468" cy="721.3154" r="33.8085" gradientTransform="matrix(0.9997 -2.280948e-02 2.280948e-02 0.9997 -22.862 -566.6981)" gradientUnits="userSpaceOnUse">
		<stop  offset="0.526" style="stop-color:#444140;stop-opacity:0"/>
		<stop  offset="1" style="stop-color:#444140"/>
	</radialGradient>
	<path class="st23" d="M250.4,129.7c-6.5-7.5-16.8-12.2-27.7-12.4c-9.5-0.3-22.3,2.4-30.1,10.4c-4.7,4.8-7.4,11.1-6.4,18
		c0.6,4.1,4,6.2,4,6.2s3.7-9.5,13.4-7.4c10.2,2.3,14.6,0.1,14.6,0.1c-3.2,8.1-0.1,12.5,2.6,14.9c1.6,1.4,3,3.1,3.8,4.1
		c0.4,0.5,0.8,0.5,0.9-0.1c0.4-1.3,1.1-3.7,1.6-4.8c1.8-3.7,4.8-2.5,4.8-2.5c4.1,1.4,5.8,9.7-0.8,14.8c-0.2,0.1-0.6,0.4-0.3,1.3
		c2.8,8.5,12.9,8.5,13.5,8.2l0,0l0.2-0.1c1.3-0.7,2.1-1.8,2.3-3.3c0.7-5.7,3.1-7.4,4.9-9.9c2-2.9,4.2-6.1,5.4-15.1
		C258,143.7,255.7,136,250.4,129.7z"/>
</g>
<path class="st24" d="M174.2,397.2l32.8-10c0,0,6.5-2.1,5.7-6.6s-3-12.9-5.8-14.4c-2.8-1.5-8.9-42.8-9.1-44.6
	c-0.1-1.9,18.5-6.1,18.5-6.1l4.5,5.2l9.8-4.5l10.9,29c0,0,4.9,10.2,7.7,11.7c2.8,1.5,67.3,30.3,67.3,30.3l11.5,13.6c0,0,4.4,2,5.4,2
	s6.1-0.6,7.4-1.6c1.3-1,3.1-3.1,2.2-5.7c-1-2.6-13.8-37.2-13.8-37.2s-2.4-2.1-5.7-1.1c-3.3,0.9-7.5,7.3-7.5,7.6
	c0,0.3-44.6-28.5-44.6-28.5l-4-15.3l7.4-5.3l-9.8-21.9c0,0,5.8-14.7-3.8-32.7l11.8-1c0,0-16.6-13.7-14.3-31.7c0,0-1.6-8,14.3-12.4
	l-0.2-5c0,0,20-4.1,24-7.5c0,0,23.1-23.2,26-34.4c0,0,28.2-22.3,17.7-39.5l170.4,148.2c0,0-3,212.2-233,234.2L174.2,397.2z"/>
</svg>
