<?xml version="1.0" encoding="utf-8"?>
<!-- Generator: Adobe Illustrator 21.0.2, SVG Export Plug-In . SVG Version: 6.00 Build 0)  -->
<svg version="1.1" id="Layer_1" xmlns="http://www.w3.org/2000/svg" xmlns:xlink="http://www.w3.org/1999/xlink" x="0px" y="0px"
	 viewBox="0 0 512 512" style="enable-background:new 0 0 512 512;" xml:space="preserve">
<style type="text/css">
	.st0{fill:#273B7A;}
	.st1{fill:#F3D55B;}
	.st2{fill:#24AE5F;}
	.st3{fill:#0096E6;}
	.st4{fill:#38454F;}
	.st5{fill:#E64C3C;}
	.st6{fill:#121149;}
</style>
<circle class="st0" cx="256" cy="256" r="256"/>
<path class="st1" d="M207.1,248.8c0.7,0,1.5-0.1,2.2-0.1c0.8,0,1.6,0.1,2.4,0.1c-0.1-1-0.2-2-0.2-3c0-2.2,0.2-4.4,0.5-6.6
	c-0.9-0.1-1.9-0.1-2.8-0.1c-0.9,0-1.7,0.1-2.6,0.1c0.3,2.2,0.5,4.4,0.5,6.6C207.3,246.8,207.2,247.8,207.1,248.8z"/>
<path class="st1" d="M197.3,250.7c0.2-1.6,0.4-3.3,0.4-4.9c0-1.7-0.2-3.4-0.4-5.1c-19,5.1-33.2,21.9-34.5,42.1
	c3.4-0.2,6.7-0.9,9.9-1.9C174.5,266.8,184.2,255.2,197.3,250.7z"/>
<path class="st1" d="M209.3,322.9c-18.7,0-34.2-14-36.7-32c-3.1,0.8-6.2,1.3-9.5,1.5c3.2,22.7,22.7,40.1,46.2,40.1
	c23.5,0,43-17.5,46.2-40.1c-3.3-0.2-6.4-0.7-9.5-1.6C243.6,308.9,228.1,322.9,209.3,322.9z"/>
<path class="st1" d="M221.7,240.7c-0.2,1.7-0.4,3.3-0.4,5.1c0,1.7,0.2,3.4,0.4,5c12.9,4.6,22.5,16,24.4,29.9c3.1,1.1,6.4,1.8,9.9,2
	C254.7,262.6,240.5,245.9,221.7,240.7z"/>
<path class="st2" d="M295.2,250.5c0.2-1.6,0.3-3.1,0.3-4.7c0-1.8-0.2-3.5-0.4-5.2c-19.3,4.9-33.7,21.8-35,42.3
	c3.4-0.1,6.7-0.7,9.8-1.8C271.7,266.7,281.8,254.9,295.2,250.5z"/>
<path class="st2" d="M319.5,251c12.5,4.7,21.9,15.9,23.8,29.5c3.1,1.2,6.4,1.9,9.9,2.2c-1.3-20-15.2-36.6-33.8-41.9
	c-0.2,1.6-0.4,3.2-0.4,4.9C319.1,247.6,319.3,249.3,319.5,251z"/>
<path class="st2" d="M306.7,322.9c-18.7,0-34.1-13.9-36.7-31.9c-3.1,0.8-6.3,1.3-9.5,1.4c3.2,22.6,22.7,40.1,46.2,40.1
	c23.5,0,43-17.5,46.2-40.2c-3.3-0.2-6.4-0.8-9.5-1.7C341,308.9,325.5,322.9,306.7,322.9z"/>
<path class="st2" d="M305,248.8c0.6,0,1.1-0.1,1.7-0.1c1,0,2,0.1,3,0.1c-0.1-1-0.2-2-0.2-3c0-2.2,0.2-4.4,0.5-6.6
	c-1.1-0.1-2.2-0.2-3.3-0.2c-0.7,0-1.4,0.1-2,0.1c0.3,2.2,0.5,4.4,0.5,6.6C305.1,246.8,305.1,247.8,305,248.8z"/>
<path class="st3" d="M207.1,248.8c-3.4,0.2-6.7,0.9-9.9,1.9c-1.9,14.1-11.6,25.6-24.7,30.1c-0.2,1.6-0.4,3.3-0.4,4.9
	c0,1.7,0.2,3.4,0.4,5.1C191.6,285.8,205.8,269.1,207.1,248.8z"/>
<path class="st3" d="M162.7,282.8c-0.7,0-1.5,0.1-2.2,0.1c-20.5,0-37.1-16.6-37.1-37.1s16.6-37.1,37.1-37.1c18.7,0,34.2,14,36.7,32
	c3.1-0.8,6.2-1.3,9.5-1.5c-3.2-22.7-22.7-40.1-46.2-40.1c-25.8,0-46.8,21-46.8,46.8s21,46.8,46.8,46.8c0.9,0,1.7-0.1,2.6-0.1
	c-0.3-2.2-0.5-4.4-0.5-6.6C162.6,284.8,162.7,283.8,162.7,282.8z"/>
<path class="st1" d="M172.2,285.8c0-1.7,0.1-3.3,0.4-4.9c-3.1,1.1-6.4,1.7-9.9,1.9c-0.1,1-0.2,2-0.2,3c0,2.3,0.2,4.4,0.5,6.6
	c3.3-0.2,6.4-0.7,9.5-1.5C172.4,289.2,172.2,287.5,172.2,285.8z"/>
<path class="st3" d="M197.7,245.8c0,1.7-0.1,3.3-0.4,4.9c3.1-1.1,6.4-1.7,9.9-1.9c0.1-1,0.2-2,0.2-3c0-2.3-0.2-4.4-0.5-6.6
	c-3.3,0.2-6.4,0.7-9.5,1.5C197.5,242.4,197.7,244.1,197.7,245.8z"/>
<path class="st4" d="M258.4,208.7c18.7,0,34.1,13.9,36.7,31.9c3.1-0.8,6.3-1.3,9.5-1.4c-3.2-22.6-22.7-40.1-46.2-40.1
	c-23.5,0-43,17.5-46.2,40.1c3.3,0.2,6.4,0.7,9.5,1.6C224.1,222.7,239.6,208.7,258.4,208.7z"/>
<path class="st4" d="M305,248.8c-3.4,0.1-6.7,0.7-9.8,1.8c-1.8,14.4-11.9,26.2-25.3,30.6c-0.2,1.6-0.3,3.1-0.3,4.7
	c0,1.8,0.2,3.5,0.4,5.2C289.2,286.1,303.7,269.2,305,248.8z"/>
<path class="st4" d="M260,282.8c-0.6,0-1.1,0.1-1.7,0.1c-0.8,0-1.6-0.1-2.4-0.1c0.1,1,0.2,2,0.2,3c0,2.2-0.2,4.4-0.5,6.6
	c0.9,0.1,1.9,0.1,2.8,0.1c0.7,0,1.4-0.1,2-0.1c-0.3-2.2-0.5-4.4-0.5-6.6C259.9,284.8,260,283.8,260,282.8z"/>
<path class="st4" d="M221.7,250.8c-3.1-1.1-6.4-1.8-9.9-2c1.3,20.2,15.4,36.9,34.3,42c0.2-1.7,0.4-3.3,0.4-5.1c0-1.7-0.2-3.4-0.4-5
	C233.2,276.2,223.6,264.8,221.7,250.8z"/>
<path class="st4" d="M256,282.8c-3.4-0.2-6.7-0.9-9.9-2c0.2,1.6,0.4,3.3,0.4,5c0,1.7-0.2,3.4-0.4,5.1c3.1,0.8,6.2,1.4,9.5,1.6
	c0.3-2.2,0.5-4.4,0.5-6.6C256.1,284.8,256,283.8,256,282.8z"/>
<path class="st1" d="M211.8,248.8c3.4,0.2,6.7,0.9,9.9,2c-0.2-1.6-0.4-3.3-0.4-5c0-1.7,0.2-3.4,0.4-5.1c-3.1-0.8-6.2-1.4-9.5-1.6
	c-0.3,2.2-0.5,4.4-0.5,6.6C211.6,246.8,211.7,247.8,211.8,248.8z"/>
<path class="st2" d="M269.5,285.8c0-1.6,0.1-3.2,0.3-4.7c-3.1,1-6.4,1.6-9.8,1.8c-0.1,1-0.1,2-0.1,3c0,2.3,0.2,4.5,0.5,6.6
	c3.3-0.1,6.5-0.6,9.5-1.4C269.7,289.3,269.5,287.6,269.5,285.8z"/>
<path class="st4" d="M295.5,245.8c0,1.6-0.1,3.2-0.3,4.7c3.1-1,6.4-1.6,9.8-1.8c0.1-1,0.1-2,0.1-3c0-2.3-0.2-4.5-0.5-6.6
	c-3.3,0.1-6.5,0.6-9.5,1.4C295.3,242.3,295.5,244,295.5,245.8z"/>
<path class="st5" d="M356.2,199c-23.5,0-43,17.5-46.2,40.2c3.3,0.2,6.4,0.8,9.5,1.7c2.4-18.1,18-32.2,36.8-32.2
	c20.5,0,37.1,16.6,37.1,37.1s-16.6,37.1-37.1,37.1c-1,0-2-0.1-3-0.1c0.1,1,0.2,2,0.2,3c0,2.2-0.2,4.4-0.5,6.6
	c1.1,0.1,2.2,0.2,3.3,0.2c25.8,0,46.8-21,46.8-46.8S382,199,356.2,199z"/>
<path class="st5" d="M319.5,251c-3.1-1.2-6.4-1.9-9.9-2.2c1.3,20,15.2,36.6,33.8,41.9c0.2-1.6,0.4-3.2,0.4-4.9
	c0-1.8-0.2-3.5-0.4-5.2C330.8,275.9,321.5,264.7,319.5,251z"/>
<path class="st5" d="M353.3,282.8c-3.5-0.3-6.8-1-9.9-2.2c0.2,1.7,0.4,3.5,0.4,5.2c0,1.7-0.1,3.3-0.4,4.9c3,0.9,6.2,1.4,9.5,1.7
	c0.3-2.2,0.5-4.3,0.5-6.6C353.4,284.8,353.3,283.8,353.3,282.8z"/>
<path class="st2" d="M309.6,248.8c3.5,0.3,6.8,1,9.9,2.2c-0.2-1.7-0.4-3.5-0.4-5.2c0-1.7,0.1-3.3,0.4-4.9c-3-0.9-6.2-1.4-9.5-1.7
	c-0.3,2.2-0.5,4.3-0.5,6.6C309.5,246.8,309.6,247.8,309.6,248.8z"/>
<path class="st6" d="M120.5,269.9c0,0,25.4,26.8,42.6,22.5c0,0,7.1,40.7,46.2,40.1c0,0,37.8,1.3,46.2-40.1c0,0,3.5,0.2,4.9,0
	c0,0,13.3,50.3,58.7,38.4c0,0,24.2-4.6,33.8-38.5c0,0,22.3,5.7,43.5-22.6c0,0,17.9-25.8-5.2-55l106.1,127.2
	c0,0-80.3,150.8-187.7,164.5L120.5,269.9z"/>
</svg>
