<?xml version="1.0" encoding="utf-8"?>
<!-- Generator: Adobe Illustrator 21.0.2, SVG Export Plug-In . SVG Version: 6.00 Build 0)  -->
<svg version="1.1" id="Layer_1" xmlns="http://www.w3.org/2000/svg" xmlns:xlink="http://www.w3.org/1999/xlink" x="0px" y="0px"
	 viewBox="0 0 512 512" style="enable-background:new 0 0 512 512;" xml:space="preserve">
<style type="text/css">
	.st0{fill:#273B7A;}
	.st1{fill:#121149;}
	.st2{fill:url(#SVGID_1_);}
	.st3{fill:#C62828;}
	.st4{fill:url(#SVGID_2_);}
	.st5{fill:#875334;}
	.st6{fill:#A56C43;}
	.st7{fill:#473530;}
	.st8{fill:#42312C;}
	.st9{fill:#3C2C23;}
	.st10{fill:url(#SVGID_3_);}
	.st11{fill:url(#SVGID_4_);}
	.st12{fill:url(#SVGID_5_);}
	.st13{fill:url(#SVGID_6_);}
	.st14{fill:url(#SVGID_7_);}
	.st15{fill:url(#SVGID_8_);}
	.st16{fill:url(#SVGID_9_);}
	.st17{fill:url(#SVGID_10_);}
	.st18{fill:url(#SVGID_11_);}
	.st19{fill:url(#SVGID_12_);}
	.st20{fill:url(#SVGID_13_);}
	.st21{fill:url(#SVGID_14_);}
	.st22{fill:url(#SVGID_15_);}
	.st23{fill:#4300D9;}
	.st24{fill:url(#SVGID_16_);}
	.st25{fill:url(#SVGID_17_);}
	.st26{fill:url(#SVGID_18_);}
	.st27{fill:url(#SVGID_19_);}
	.st28{fill:url(#SVGID_20_);}
	.st29{fill:#E0E0E0;}
	.st30{fill:#E53935;}
	.st31{fill:url(#SVGID_21_);}
	.st32{fill:url(#SVGID_22_);}
</style>
<circle class="st0" cx="256" cy="256" r="256"/>
<path class="st1" d="M69.1,435.3l367-357c0,0,132.3,133.1,41.7,297.5c-10.7,19.5-26.2,39.4-43.7,59.5c0,0-32.2,36.5-88.6,59.2
	C277.2,522.1,174.7,529.9,69.1,435.3z"/>
<linearGradient id="SVGID_1_" gradientUnits="userSpaceOnUse" x1="155.8078" y1="800.1962" x2="227.5199" y2="800.1962" gradientTransform="matrix(1 0 0 1 0 -492)">
	<stop  offset="0" style="stop-color:#8D5738"/>
	<stop  offset="1" style="stop-color:#A56C43"/>
</linearGradient>
<path class="st2" d="M212.7,282.9c-6.1-3-49.9-20.9-49.9-20.9l-7.1,29.8c0,0,31.3,10.7,42.3,15.1c1.9,0.8,3.3,2.4,3.7,4.4l8.5,43
	l16.5,0c0,0,0.8-32.2,0.8-45.3C227.5,292,220.5,286.7,212.7,282.9z"/>
<path class="st3" d="M165.4,259.9c-2.2-0.8-4.5-1.2-6.7-1.2c-7.9,0-15.3,4.9-18.2,12.7c-3.7,10,1.4,21.2,11.5,24.9c0,0,0,0,0,0
	l24.2,8.9l13.4-36.4L165.4,259.9z"/>
<linearGradient id="SVGID_2_" gradientUnits="userSpaceOnUse" x1="115.283" y1="802.229" x2="182.5648" y2="802.229" gradientTransform="matrix(1 0 0 1 0 -492)">
	<stop  offset="0" style="stop-color:#8D5738"/>
	<stop  offset="1" style="stop-color:#A56C43"/>
</linearGradient>
<path class="st4" d="M181.2,304.6L168.3,273l-28.5,11.5l11.1,22.9c1.2,2,0.5,4.5-1.5,5.6l-34.1,18l8.1,16.6l47.6-18.9
	c9.4-3.7,14-14.4,10.3-23.8C181.2,304.7,181.2,304.7,181.2,304.6z"/>
<path class="st5" d="M284.8,213.8l-8.1-0.5c-2,0.3-12.4,1.7-14.4,5.2c-0.5,0.8-0.6,1.8-0.2,2.4c0.5,2.1,2.2,3.6,4.1,3.6
	c0.3,0,0.5,0,0.8-0.1h0l18.2-4.2c3.1-1.1,3.6-2.9,3.7-3.2c0.1-0.2,0.1-0.3,0-0.5C288.7,214.6,286.5,214.1,284.8,213.8L284.8,213.8z"
	/>
<path class="st6" d="M214.6,180.5c-1.3,3.2,4.2,8.1,4.1,11.9c-0.1,2.9-6.3,3.2-6.9,3.6c-0.7,0.5-1.2,1.5-1.7,2.9
	c-0.4,1-0.9,2-1.5,3.1c-2,3.7-5.7,7.3-15,5.7c-6.2-1-6.7-1.4-8.6-1.7c-3.9-0.6-7.1,5.2-7.1,5.2s-7.5,13.6-17.1,7.8
	c-11-6.6-5.6-15.1-5.6-15.1s10.1-13.7,7.1-25.6c-2.9-11.3-1.9-29.6,3.9-35.2c9-8.7,25.5-13.1,37-8.2c12.9,5.6,17.7,17.1,16.5,29.8
	c-0.4,4.6-1.7,9-3.2,12C216.3,177.1,214.9,179.7,214.6,180.5z"/>
<path class="st7" d="M210.1,198.9c-0.4,1-0.9,2-1.5,3.1c-2.1-0.4-4.4-1.5-5.8-3.2c-1.6-2,0.2-3.3,2.2-1.8
	C206.2,198,208.3,198.8,210.1,198.9z"/>
<ellipse transform="matrix(0.2731 -0.962 0.962 0.2731 -24.4887 327.4123)" class="st8" cx="204.4" cy="179.9" rx="4.6" ry="3"/>
<path class="st8" d="M199.1,173c-0.6-0.4-0.3-1.4,0.9-2.1c1.2-0.7,3.1-1.9,6.3-1.3c3.4,0.7,4.6,2.2,4.9,3.6c0.3,1.8-1,3.3-3.4,1.4
	C204.9,172.2,200,173.5,199.1,173z"/>
<path class="st9" d="M127.3,183.4c6.1-19.1-2.9-35.9,16.8-44.5c13-5.7,30.6,6.2,32.6,11.2c3.9,9.8-9.5,11.7-13.4,14.2
	c-5.7,3.7-6.6,27.9-23.4,38.5c-22.9,14.3-37.4,4.6-37.4,4.6S121.5,201.8,127.3,183.4z"/>
<radialGradient id="SVGID_3_" cx="-359.4775" cy="740.4603" r="47.8797" gradientTransform="matrix(-0.8297 -0.4344 -0.4332 0.8181 177.0103 -583.5259)" gradientUnits="userSpaceOnUse">
	<stop  offset="0.526" style="stop-color:#554138;stop-opacity:0"/>
	<stop  offset="1" style="stop-color:#554138"/>
</radialGradient>
<path class="st10" d="M129.3,174.1c1.9-15.2-1.6-28.1,14.9-35.3c13-5.7,30.6,6.2,32.6,11.2c3.9,9.8-9.5,11.7-13.4,14.2
	C157.7,167.9,129.3,174.1,129.3,174.1z"/>
<radialGradient id="SVGID_4_" cx="180.611" cy="554.2645" r="51.203" gradientTransform="matrix(0.8074 0.4732 0.501 -0.802 -316.7618 548.7926)" gradientUnits="userSpaceOnUse">
	<stop  offset="0" style="stop-color:#554138"/>
	<stop  offset="0.526" style="stop-color:#554138;stop-opacity:0"/>
</radialGradient>
<path class="st11" d="M127.3,183.4c1.5-4.8,2.2-9.8,2.5-14.9c0.3-4.5,0.3-8.5,4.8-10.9c7.1-3.8,17.9-2.3,25.1,3.5
	c2.2,1.8,3.3,3.4,2.2,5.4c-0.8,1.4-1.7,2.6-2.3,4.2c-1.3,3.5-2.5,7.1-3.8,10.6c-3.3,8.4-7.8,16.6-15.9,21.7
	c-22.9,14.3-37.4,4.6-37.4,4.6S121.5,201.8,127.3,183.4z"/>
<radialGradient id="SVGID_5_" cx="182.6623" cy="612.8561" r="29.2514" gradientTransform="matrix(0.806 0.4753 1.3039 -2.0685 -811.9463 1355.2045)" gradientUnits="userSpaceOnUse">
	<stop  offset="0.526" style="stop-color:#554138;stop-opacity:0"/>
	<stop  offset="1" style="stop-color:#554138"/>
</radialGradient>
<path class="st12" d="M118.1,210.5c0,0,21.1-1.5,31.5-17.3c4.2-6.3,6.5-12.1,7.7-16.2c1-3.5,6.5-17.1,11.3-19.5
	C168.6,157.6,134.1,173.9,118.1,210.5z"/>
<path class="st9" d="M165.5,134.2c7.5-6.2,18.2-8.8,28.6-7c9,1.6,20.8,6.6,26.7,16.1c3.5,5.7,4.9,12.4,2.8,19.1c-1.3,4-5,5.4-5,5.4
	s-1.8-10.2-11.4-9.9c-10.1,0.3-13.8-2.6-13.8-2.6c1.5,8.7-2.2,12.4-5.2,14.3c-1.7,1.1-3.4,2.5-4.4,3.3c-0.5,0.4-0.8,0.3-0.9-0.3
	c-0.1-1.4-0.3-3.8-0.6-5c-1-4-4.1-3.4-4.1-3.4c-4.2,0.6-7.3,8.5-2,14.8c0.1,0.2,0.5,0.6,0.1,1.3c-4.3,7.8-13.9,6-14.4,5.5l0,0
	c-0.1,0-0.1-0.1-0.1-0.1c-1.1-0.9-1.7-2.2-1.5-3.8c0.4-5.8-1.6-7.9-2.8-10.7c-1.4-3.2-2.9-6.9-2.3-15.9
	C155.7,146.6,159.2,139.3,165.5,134.2z"/>
<radialGradient id="SVGID_6_" cx="-292.4679" cy="664.2797" r="41.744" gradientTransform="matrix(-0.7655 -0.1731 -0.1676 0.7982 76.6147 -421.9117)" gradientUnits="userSpaceOnUse">
	<stop  offset="0.526" style="stop-color:#554138;stop-opacity:0"/>
	<stop  offset="1" style="stop-color:#554138"/>
</radialGradient>
<path class="st13" d="M165.5,134.2c7.5-6.2,18.2-8.8,28.6-7c9,1.6,20.8,6.6,26.7,16.1c3.5,5.7,4.9,12.4,2.8,19.1c-1.3,4-5,5.4-5,5.4
	s-1.8-10.2-11.4-9.9c-10.1,0.3-13.8-2.6-13.8-2.6c1.5,8.7-2.2,12.4-5.2,14.3c-1.7,1.1-3.4,2.5-4.4,3.3c-0.5,0.4-0.8,0.3-0.9-0.3
	c-0.1-1.4-0.3-3.8-0.6-5c-1-4-4.1-3.4-4.1-3.4c-4.2,0.6-7.3,8.5-2,14.8c0.1,0.2,0.5,0.6,0.1,1.3c-4.3,7.8-13.9,6-14.4,5.5l0,0
	c-0.1,0-0.1-0.1-0.1-0.1c-1.1-0.9-1.7-2.2-1.5-3.8c0.4-5.8-1.6-7.9-2.8-10.7c-1.4-3.2-2.9-6.9-2.3-15.9
	C155.7,146.6,159.2,139.3,165.5,134.2z"/>
<path class="st6" d="M263.3,179.4c1.3,3.2-4.4,8-4.4,11.8c0.1,2.9,6.2,3.3,6.8,3.8c0.7,0.5,1.2,1.6,1.7,2.9c0.4,1,0.8,2.1,1.4,3.2
	c1.9,3.7,5.5,7.4,14.9,6c6.2-0.9,6.7-1.2,8.7-1.5c3.9-0.5,7,5.4,7,5.4s7.2,13.7,16.9,8.1c11.1-6.4,8.6-10.9,8.6-10.9
	s-12.5-18-9.3-29.8c3.1-11.2,2.5-29.5-3.1-35.3c-8.8-8.9-25.2-13.7-36.8-9c-13,5.3-18,16.7-17.2,29.4c0.3,4.6,1.5,9,2.9,12
	C261.7,175.9,263.1,178.5,263.3,179.4z"/>
<path class="st7" d="M267.4,197.8c0.4,1,0.8,2.1,1.4,3.2c2.1-0.4,4.4-1.4,5.9-3.1c1.7-2-0.1-3.3-2.2-1.8
	C271.3,197,269.2,197.7,267.4,197.8z"/>
<ellipse transform="matrix(0.9678 -0.2517 0.2517 0.9678 -36.2395 74.6128)" class="st8" cx="273.5" cy="179" rx="3" ry="4.6"/>
<path class="st8" d="M279,172.1c0.7-0.4,0.3-1.4-0.9-2.2c-1.2-0.7-3.1-2-6.3-1.4c-3.4,0.6-4.7,2.1-4.9,3.5c-0.3,1.8,1,3.3,3.4,1.5
	C273.2,171.2,278.1,172.6,279,172.1z"/>
<path class="st9" d="M350.5,184.1c-5.6-19.3,3.7-35.9-15.8-44.9c-12.9-6-30.7,5.5-32.8,10.5c-4.1,9.7,9.3,11.9,13,14.5
	c5.6,3.8,5.9,28.1,22.6,39c22.6,14.8,37.3,5.5,37.3,5.5S355.9,202.7,350.5,184.1z"/>
<radialGradient id="SVGID_7_" cx="77.2075" cy="965.0771" r="47.8797" gradientTransform="matrix(0.8392 -0.4159 0.4149 0.8275 -141.8037 -587.9352)" gradientUnits="userSpaceOnUse">
	<stop  offset="0.526" style="stop-color:#554138;stop-opacity:0"/>
	<stop  offset="1" style="stop-color:#554138"/>
</radialGradient>
<path class="st14" d="M348.7,174.8c-1.6-15.2,2.2-28-14.1-35.6c-12.9-6-30.7,5.5-32.8,10.5c-4.1,9.7,9.3,11.9,13,14.5
	C320.5,168,348.7,174.8,348.7,174.8z"/>
<radialGradient id="SVGID_8_" cx="-264.7122" cy="300.5792" r="51.203" gradientTransform="matrix(-0.8177 0.4552 -0.4831 -0.8129 299.6876 555.7869)" gradientUnits="userSpaceOnUse">
	<stop  offset="0" style="stop-color:#554138"/>
	<stop  offset="0.526" style="stop-color:#554138;stop-opacity:0"/>
</radialGradient>
<path class="st15" d="M350.5,184.1c-1.4-4.8-1.9-9.9-2.2-15c-0.2-4.5-0.1-8.5-4.6-11c-7-4-17.9-2.7-25.2,3c-2.2,1.7-3.4,3.3-2.3,5.3
	c0.8,1.4,1.6,2.6,2.2,4.2c1.3,3.5,2.3,7.1,3.6,10.6c3.1,8.4,7.4,16.8,15.4,22c22.6,14.8,37.3,5.5,37.3,5.5S355.9,202.7,350.5,184.1
	L350.5,184.1z"/>
<radialGradient id="SVGID_9_" cx="-261.6665" cy="510.3661" r="29.2514" gradientTransform="matrix(-0.8164 0.4573 -1.2577 -2.0968 771.9387 1364.7776)" gradientUnits="userSpaceOnUse">
	<stop  offset="0.526" style="stop-color:#554138;stop-opacity:0"/>
	<stop  offset="1" style="stop-color:#554138"/>
</radialGradient>
<path class="st16" d="M359.1,211.5c0,0-21-2-31.1-18c-3.2-5.1-5.7-10.5-7.3-16.3c-1-3.5-6.2-17.3-10.9-19.8
	C309.8,157.4,343.9,174.6,359.1,211.5z"/>
<path class="st9" d="M313.4,134.1c-7.4-6.4-18-9.2-28.4-7.7c-9,1.4-20.9,6.2-27,15.5c-3.7,5.6-5.2,12.3-3.2,19
	c1.2,4,4.9,5.5,4.9,5.5s2-10.1,11.6-9.6c10.1,0.5,13.9-2.3,13.9-2.3c-1.8,8.6,1.9,12.4,4.9,14.4c1.7,1.1,3.4,2.5,4.3,3.4
	c0.5,0.4,0.8,0.3,0.9-0.2c0.1-1.4,0.4-3.8,0.7-5c1.1-4,4.2-3.3,4.2-3.3c4.1,0.6,7.1,8.7,1.6,14.8c-0.1,0.2-0.5,0.6-0.1,1.3
	c4.1,7.9,13.7,6.3,14.2,5.8l0,0c0.1,0,0.1-0.1,0.1-0.1c1.2-0.9,1.7-2.1,1.7-3.7c-0.2-5.8,1.8-7.9,3-10.6c1.4-3.2,3-6.8,2.6-15.9
	C323,146.7,319.6,139.4,313.4,134.1z"/>
<radialGradient id="SVGID_10_" cx="283.1744" cy="781.1779" r="41.7238" gradientTransform="matrix(0.7692 -0.1561 0.1499 0.8017 -45.6997 -423.7542)" gradientUnits="userSpaceOnUse">
	<stop  offset="0.526" style="stop-color:#554138;stop-opacity:0"/>
	<stop  offset="1" style="stop-color:#554138"/>
</radialGradient>
<path class="st17" d="M313.4,134.1c-7.4-6.4-18-9.2-28.4-7.7c-9,1.4-20.9,6.2-27,15.5c-3.7,5.6-5.2,12.3-3.2,19
	c1.2,4,4.9,5.5,4.9,5.5s2-10.1,11.6-9.6c10.1,0.5,13.9-2.3,13.9-2.3c-1.8,8.6,1.9,12.4,4.9,14.4c1.7,1.1,3.4,2.5,4.3,3.4
	c0.5,0.4,0.8,0.3,0.9-0.2c0.1-1.4,0.4-3.8,0.7-5c1.1-4,4.2-3.3,4.2-3.3c4.1,0.6,7.1,8.7,1.6,14.8c-0.1,0.2-0.5,0.6-0.1,1.3
	c4.1,7.9,13.7,6.3,14.2,5.8l0,0c0.1,0,0.1-0.1,0.1-0.1c1.2-0.9,1.7-2.1,1.7-3.7c-0.2-5.8,1.8-7.9,3-10.6c1.4-3.2,3-6.8,2.6-15.9
	C323,146.7,319.6,139.4,313.4,134.1z"/>
<path class="st5" d="M236,221.7c0.1-1-0.3-1.9-1-2.5c-3-2.7-13.3-0.9-15.5-0.4l-7.5,3c-1,0.6-3.3,1.9-2.8,3.9c0,0.2,0.1,0.3,0.2,0.4
	c0.1,0.2,1.3,1.8,4.6,1.9l18.5-1.7h0C234.7,226,236.3,223.9,236,221.7z"/>
<linearGradient id="SVGID_11_" gradientUnits="userSpaceOnUse" x1="170.6014" y1="719.7497" x2="268.1882" y2="719.7497" gradientTransform="matrix(1 0 0 1 0 -492)">
	<stop  offset="0.599" style="stop-color:#A56C43"/>
	<stop  offset="1" style="stop-color:#8D5738"/>
</linearGradient>
<path class="st18" d="M268,222.8c-0.8,2.2-6.3,5.2-13.6,8.2l-1.2,0.5c-2.1,0.8-4.4,1.7-6.7,2.5c-0.8,0.3-1.7,0.6-2.5,0.9
	c-12.5,4.2-26.6,7.6-33.8,7.7h0c-0.2,0-0.4-0.1-0.6-0.1c-0.4,0-0.8,0-1.2-0.1c-0.4-0.1-0.8-0.2-1.2-0.3v0l-1-0.2l-16.3-3.3
	l-19.3-3.9l7-21.5l0.2-0.5l21.7,7.7l11.2,4c5.6-0.8,33.7-4.6,38.1-5.6c2-0.4,6.1-0.9,9.9-0.9C264.2,218,269.3,219.1,268,222.8z"/>
<linearGradient id="SVGID_12_" gradientUnits="userSpaceOnUse" x1="236.1994" y1="726.4515" x2="241.3246" y2="721.3288" gradientTransform="matrix(1 0 0 1 0 -492)">
	<stop  offset="0" style="stop-color:#A56C43;stop-opacity:0"/>
	<stop  offset="1" style="stop-color:#8D5738"/>
</linearGradient>
<path class="st19" d="M253.1,231.5c-2.1,0.8-12.9,4.5-13.7,4.8c-4.8-2.5-10.6-8.6-10.6-8.6l9.2-5.6L253.1,231.5z"/>
<linearGradient id="SVGID_13_" gradientUnits="userSpaceOnUse" x1="203.1199" y1="715.1854" x2="189.5775" y2="720.3107" gradientTransform="matrix(1 0 0 1 0 -492)">
	<stop  offset="0" style="stop-color:#A56C43;stop-opacity:0"/>
	<stop  offset="1" style="stop-color:#8D5738"/>
</linearGradient>
<path class="st20" d="M206.1,242l-16.3-3.3l-12.3-25.4l0.2-0.5l21.7,7.7L206.1,242z"/>
<linearGradient id="SVGID_14_" gradientUnits="userSpaceOnUse" x1="315.0694" y1="715.4169" x2="224.2543" y2="715.4169" gradientTransform="matrix(1 0 0 1 0 -492)">
	<stop  offset="0" style="stop-color:#8D5738"/>
	<stop  offset="0.599" style="stop-color:#A56C43"/>
	<stop  offset="1" style="stop-color:#8D5738"/>
</linearGradient>
<path class="st21" d="M312.5,211.6c-3.2-3.4-8.1-4.9-12.6-3.7c-0.1,0-0.3,0-0.4,0.1l-0.2,0.1c-0.2,0-0.3,0.1-0.6,0.2L267,219.6
	c-4.9-0.8-19.5-3.1-27.1-2.8c-2.9,0.1-11.2,1-11.5,1.1c-0.3,0-0.5,0.2-0.7,0.3l-8.9,8.2c-1.7,1.4-2.2,3.6-1,5.2
	c0.7,1,1.8,2.4,16.1-5c1.2-0.6,2.6-0.6,3.9,0L259,237c3.1,1.5,6.4,2.3,9.8,2.3c1.3,0,2.7-0.1,4.1-0.3l31.1-5.7
	c1.2-0.1,2.3-0.3,3.3-0.7c0.2,0,0.3-0.1,0.4-0.2c2.9-1.1,5.3-3.3,6.8-6C317,221.6,316.2,215.5,312.5,211.6z"/>
<path class="st5" d="M278.7,217.8c0,0-16.6-4.8-21.9,0.3l15.5,5.5c0,0,7.4,3.5,9.7-1.8C283,219.6,280,218.3,278.7,217.8z"/>
<linearGradient id="SVGID_15_" gradientUnits="userSpaceOnUse" x1="259.6325" y1="803.4618" x2="334.9567" y2="803.4618" gradientTransform="matrix(1 0 0 1 0 -492)">
	<stop  offset="0" style="stop-color:#8D5738"/>
	<stop  offset="1" style="stop-color:#A56C43"/>
</linearGradient>
<path class="st22" d="M335,294l-12.3-28.9L269.4,294c-8.2,4.4-12.4,14-8.1,24.3c4.5,11.1,18.7,39.5,18.7,39.5l17.4-3.3l-11.5-38.8
	C285.9,315.7,335,294,335,294z"/>
<path class="st23" d="M332.9,277.1c-3.1-5.9-9.2-9.6-15.8-9.6c-2.8,0-5.6,0.7-8.2,2l-24.2,12.6l16.4,31.7l24.2-12.6
	C334,296.6,337.4,285.9,332.9,277.1z"/>
<linearGradient id="SVGID_16_" gradientUnits="userSpaceOnUse" x1="370.4525" y1="823.72" x2="323.0555" y2="773.9438" gradientTransform="matrix(1 0 0 1 0 -492)">
	<stop  offset="0" style="stop-color:#8D5738"/>
	<stop  offset="1" style="stop-color:#A56C43"/>
</linearGradient>
<path class="st24" d="M350.5,309.9l-14.7-54.2l-31.9,11.5l22.4,56l0.1,0.3c0.7,1.7,1.7,3.3,3,4.7c1.8,1.8,3.9,3,6.1,3.7l0,0.1
	l0.6,0.1c0.7,0.2,1.4,0.3,2.1,0.4l53.4,7.4l5.6-13.6C397.1,326.2,350.5,309.9,350.5,309.9z"/>
<radialGradient id="SVGID_17_" cx="325.4065" cy="728.1616" r="43.3525" gradientTransform="matrix(1 0 0 1 0 -492)" gradientUnits="userSpaceOnUse">
	<stop  offset="0" style="stop-color:#651FFF"/>
	<stop  offset="0.705" style="stop-color:#5914F2"/>
	<stop  offset="1" style="stop-color:#530EEB"/>
</radialGradient>
<path class="st25" d="M343.6,274.4c0.7-2.2,1-4.6,1.2-7.4c0.6-15.4-2.7-31.4-9.8-46.7c-2.3-5.3-8.2-17.8-21.6-17.8
	c-0.7,0-1.3,0-2,0.1c-17.3,1.5-19.7,16.9-17,29.2c3.8,17.6,6.3,27,7.2,43.5c0.3,5.6,2.3,11.7,6.5,14.1c1.8,6.5,5.9,15.7,10.2,21.9
	c10.7-3.9,21.2-8.1,31.6-12.7C347.8,291,343.6,274.4,343.6,274.4z"/>
<radialGradient id="SVGID_18_" cx="153.3239" cy="730.9629" r="42.7544" gradientTransform="matrix(1 0 0 1 0 -492)" gradientUnits="userSpaceOnUse">
	<stop  offset="0" style="stop-color:#EF5350"/>
	<stop  offset="0.545" style="stop-color:#EA4643"/>
	<stop  offset="0.987" style="stop-color:#E53935"/>
</radialGradient>
<path class="st26" d="M182.5,230.7c5-11.6,2.8-19.9-0.4-22.9c-5.3-5-10.4-5.4-13-6.2c-1.1-0.2-2.1-0.2-3-0.2
	c-9.8,0-17.3,7.4-22.7,18.8c-7.2,15.1-11.4,33.5-11.4,49c0,14.2,13.6,33.8,17.1,40.6c10.5-4.3,20.9-9,31-14.1
	c-1.5-3.9-3.1-7.8-4.9-11.6c0.8-2,1.3-4.3,1.4-6.7C177.8,263.1,176.7,246.3,182.5,230.7z"/>
<linearGradient id="SVGID_19_" gradientUnits="userSpaceOnUse" x1="171.0578" y1="696.8058" x2="223.5172" y2="752.4364" gradientTransform="matrix(1 0 0 1 0 -492)">
	<stop  offset="0.599" style="stop-color:#A56C43"/>
	<stop  offset="1" style="stop-color:#8D5738"/>
</linearGradient>
<path class="st27" d="M264.1,263.1c-0.6-0.6-1.5-0.8-3-0.8c0.4-0.3,0.7-0.7,1-1c0.4-0.7,0.5-1.4,0.2-2.2c-0.7-2.2-4.5-1.8-9.3-1.1
	c-1.9,0.2-3.8,0.5-4.9,0.4c-0.8,0.1-2.9,0.1-4.7-0.3c0.1,0,0.2-0.1,0.3-0.1c2-0.9,4.3-1.9,5.3-3.4c1-1.5,0.4-2.5,0.1-2.9
	c-1.7-1.9-7.3-0.6-10.7,0.9c-1.9,0.9-7.1,1.5-9,1.4c-0.2,0-0.4,0-0.7,0l-25.9-8.8c-3-1-5.6-3.2-7-6l-12.7-24.3
	c-0.1-0.2-0.2-0.3-0.2-0.3l-0.1-0.2c-0.1-0.1-0.1-0.2-0.2-0.3c-2.6-3.9-7.1-6.2-11.8-5.9c-5.3,0.4-10,4.3-11.5,9.5
	c-0.8,3.1-0.5,6.2,0.9,9.2c0,0.1,0.1,0.2,0.1,0.3c0.5,0.9,1.1,1.8,1.9,2.6l15.6,24.2c2.9,4.6,7.5,7.9,12.7,9.4l38.2,10.7
	c0.2,0.1,0.3,0.1,0.5,0c1.8,0.8,3.9,1.3,6.4,2l1.5,0.4c4.3,1.2,9.8,2,14.3,2c4.3,0,7.7-0.8,8.3-2.8c0.1-0.4,0-1-0.2-1.3
	c-0.4-0.6-1.2-1-2.8-1.3c2.8-0.3,5.1-1.2,5.4-3.3c0.1-0.5-0.1-1-0.4-1.4c-0.3-0.3-0.6-0.5-1-0.7c2-0.6,3.6-1.5,3.9-3.2
	C264.6,264,264.4,263.5,264.1,263.1z"/>
<linearGradient id="SVGID_20_" gradientUnits="userSpaceOnUse" x1="248.6054" y1="758.6004" x2="308.3802" y2="712.4886" gradientTransform="matrix(1 0 0 1 0 -492)">
	<stop  offset="0.599" style="stop-color:#A56C43"/>
	<stop  offset="1" style="stop-color:#8D5738"/>
</linearGradient>
<path class="st28" d="M322.3,220.2c-0.3-3.4-1.9-6.6-4.5-8.8c-2.6-2.2-6-3.3-9.4-3c-3.9,0.3-7.5,2.5-9.7,5.8
	c-0.1,0.1-0.2,0.2-0.2,0.3l-0.1,0.2c-0.1,0.1-0.2,0.3-0.3,0.7l-15,28.5l-30.6,10.4c-0.2,0-0.5-0.1-0.7,0c-1.9,0.1-7.1-0.5-9-1.4
	c-3.4-1.6-9-2.9-10.7-1c-0.3,0.4-0.9,1.4,0.1,2.9c1,1.5,3.3,2.5,5.3,3.4c0.1,0,0.2,0.1,0.2,0.1c-1.8,0.4-3.9,0.4-4.9,0.3
	c-0.8,0.1-2.8-0.1-4.6-0.4c-4.8-0.6-8.6-1.1-9.3,1.2c-0.2,0.7-0.2,1.5,0.2,2.1c0.2,0.4,0.6,0.7,1,1c-0.5,0-1,0-1.3,0.1
	c-0.8,0.1-1.3,0.3-1.7,0.7c-0.4,0.4-0.5,0.9-0.4,1.4v0c0.3,1.7,1.8,2.6,3.8,3.1c0,0,0,0,0.1,0c-0.2,0.1-0.4,0.2-0.5,0.2
	c-0.2,0.2-0.4,0.3-0.5,0.4c-0.3,0.4-0.5,0.9-0.4,1.4c0.3,2,2.4,2.9,5,3.3c0.1,0,0.3,0,0.4,0.1c-0.2,0.1-0.5,0.1-0.7,0.2
	c-1.2,0.3-1.8,0.6-2.1,1.2c-0.2,0.3-0.3,0.9-0.2,1.3c0.6,2,4,2.8,8.3,2.8c4.5,0,10-0.8,14.3-2l1.5-0.4c2.4-0.6,4.5-1.2,6.3-1.9
	c0.2,0,0.4,0,0.6,0l39.8-12c0.2-0.1,0.4-0.1,0.7-0.2l0.9-0.3c0.1,0,0.2-0.1,0.3-0.1c0.1,0,0.2-0.1,0.2-0.1c2.1-0.9,3.8-2.6,4.9-4.6
	l19.5-26.9c0.9-0.9,1.5-1.9,2-2.8c0.1-0.1,0.1-0.2,0.1-0.4C322.1,224.8,322.5,222.5,322.3,220.2L322.3,220.2z"/>
<path class="st5" d="M233.4,263.6c0,0.4-0.3,0.7-0.7,0.7c0,0-9.9-0.6-14-1.8c0.4-0.1,0.8-0.1,1.3-0.1c4,0.6,8.9,0.6,12.7,0.5
	C233.1,262.9,233.4,263.2,233.4,263.6z"/>
<path class="st5" d="M219.9,268.1c4.1,0.9,9,1.3,13.2,1.5h0.1c0.4,0,0.6-0.3,0.6-0.7c0-0.4-0.3-0.6-0.7-0.6c-4,0.2-8.6,0.1-12.6-0.4
	c0,0-0.1,0-0.1,0S219.9,268.1,219.9,268.1z"/>
<path class="st5" d="M234.4,273.8c0.1,0.3-0.2,0.7-0.6,0.7h-0.1c-3,0.1-7.1-0.4-10-1.1c0.2-0.1,0.4-0.1,0.7-0.2c3,0.3,6.6,0.3,9.3,0
	C234.1,273.2,234.4,273.4,234.4,273.8z"/>
<path class="st29" d="M206.2,340.2l3.4,18.2h18.2l1-20.3L206.2,340.2z"/>
<path class="st30" d="M244.4,359.9l-16.7-5.6l-18.6,0c0,0-5.1,5.8-5.2,10.8l0,7.5c0,1.7,1.4,3.1,3,3.1l41.5,0.1
	c1.5,0,2.7-1.2,2.7-2.7v-3.4C251.1,365.5,248.4,361.6,244.4,359.9z"/>
<path class="st29" d="M294.3,339.8l-22.8,5l8.7,15.4l19.4-1.8L294.3,339.8z"/>
<linearGradient id="SVGID_21_" gradientUnits="userSpaceOnUse" x1="256.4512" y1="857.2458" x2="303.6909" y2="857.2458" gradientTransform="matrix(1 0 0 1 0 -492)">
	<stop  offset="0" style="stop-color:#651FFF"/>
	<stop  offset="0.705" style="stop-color:#5914F2"/>
	<stop  offset="1" style="stop-color:#530EEB"/>
</linearGradient>
<path class="st31" d="M303.7,365.3c0-5.1-5.1-10.8-5.1-10.8l-18.6,0l-16.7,5.6c-4,1.6-6.7,5.5-6.7,9.9v3.4c0,1.5,1.2,2.7,2.7,2.7
	l41.5-0.1c1.7,0,3-1.4,3-3.1C303.7,372.8,303.7,365.3,303.7,365.3z"/>
<path class="st29" d="M131.8,319.7l-20,10.9l6.7,20.9l22.5-8.9L131.8,319.7z"/>
<path class="st30" d="M118.8,327.4c0,0-1.3-0.1-3.3-0.1c-2.2,0-5.2,0.2-7.8,1l-7.1,2.2c-1.6,0.5-2.5,2.2-2,3.8L111,374
	c0.4,1.1,1.4,1.9,2.5,1.9c0.3,0,0.6-0.1,0.8-0.1l3.2-1c4.1-1.3,7.1-5.1,7.4-9.4l0.3-17.6C125.2,347.6,118.8,327.4,118.8,327.4z"/>
<path class="st29" d="M378.6,317.2l-8.7,21.6l24.2,5.1l5.7-18.1L378.6,317.2z"/>
<linearGradient id="SVGID_22_" gradientUnits="userSpaceOnUse" x1="388.0719" y1="837.1276" x2="414.807" y2="837.1276" gradientTransform="matrix(1 0 0 1 0 -492)">
	<stop  offset="0" style="stop-color:#651FFF"/>
	<stop  offset="0.705" style="stop-color:#5914F2"/>
	<stop  offset="1" style="stop-color:#530EEB"/>
</linearGradient>
<path class="st32" d="M412.7,324.1l-7.1-2.2c-2.6-0.8-5.6-1-7.8-1c-1.9,0-3.3,0.1-3.3,0.1l-6.4,20.2l0.3,17.6
	c0.3,4.3,3.2,8.1,7.4,9.4l3.2,1c0.3,0.1,0.6,0.1,0.8,0.1c1.1,0,2.2-0.7,2.5-1.9l12.4-39.6C415.2,326.3,414.3,324.6,412.7,324.1z"/>
</svg>
