<svg xmlns="http://www.w3.org/2000/svg" xmlns:xlink="http://www.w3.org/1999/xlink" viewBox="0 0 128.96 77.54"><defs><style>.cls-1{fill:none;}.cls-2{clip-path:url(#clip-path);}.cls-3{fill:url(#radial-gradient);}.cls-4{fill:#fff;}.cls-5{fill:#010103;}.cls-6{fill:#160a5a;}.cls-7{fill:#2a892f;}</style><clipPath id="clip-path"><path class="cls-1" d="M15.48,38.77A23.29,23.29,0,1,0,38.77,15.48,23.29,23.29,0,0,0,15.48,38.77"/></clipPath><radialGradient id="radial-gradient" cx="-321.25" cy="751.56" r="1" gradientTransform="matrix(0, -25.08, -25.08, 0, 18897.25, -8025.84)" gradientUnits="userSpaceOnUse"><stop offset="0" stop-color="#fff"/><stop offset="0.53" stop-color="#3163ab"/><stop offset="1" stop-color="#3163ab"/></radialGradient></defs><title>logo-4</title><g id="Layer_2" data-name="Layer 2"><g id="Layer_1-2" data-name="Layer 1"><g class="cls-2"><rect class="cls-3" x="8.72" y="8.72" width="60.1" height="60.1" transform="translate(-11.25 16.32) rotate(-20.83)"/><path class="cls-4" d="M22.66,27.82h-.24l-.05,0a.12.12,0,0,0,0,.07.07.07,0,0,0,0,0l0,0,.05,0h.39v.06l0,0,.06,0h.22l0,0a.1.1,0,0,0,0,0,.19.19,0,0,0,0-.06l0-.06,0,0,0,0,0,0-.08,0-.07,0h-.21m-1,.09-.08,0-.09,0-.1,0-.1,0,0,0a.06.06,0,0,0,0,0,.06.06,0,0,0,0,0h.44l0,0a0,0,0,0,0,0,0,.2.2,0,0,1,0-.05.55.55,0,0,0,0-.07.15.15,0,0,0,0-.07.05.05,0,0,0,0,0h0m1.84.05v0a.21.21,0,0,0,0,0,.14.14,0,0,0,0,.06.08.08,0,0,0,0,0l.07,0,.09,0,.09,0,.08,0,.09,0,.11,0,.1,0a.17.17,0,0,1,.07.05l.07.06.09,0,.08,0h0l.26,0h1l.09,0,.05,0,0,0,0,0s0,0,0,0l-.09,0-.11,0H24.5l-.06,0-.05,0-.05,0-.07,0-.09-.06-.09-.06-.08,0h-.1l-.06,0-.11,0-.09,0-.09,0-.07,0,0,0h0m-2.81.16h0l-.15,0-.16,0-.14,0-.08,0s0,0,0,0v.07s0,0,0,0H20l0,0,0,0a0,0,0,0,0,0,0h.52l.05,0h.18a0,0,0,0,1,0,0,.13.13,0,0,0,0,.06l0,.06,0,0,0,0h0l0,0,.05,0,.05,0h.08l0,0,0,.05,0,0,0,0h1l0,0,0,0,0,0,0,0v-.06l0-.07,0-.06v0h0l0,0,0,0H22.2l0,0,0,0H22l0,0,0,0,0,0-.06,0h0l-.08,0-.05,0,0,0,0,0,0,0,0,0h-.1l0,0-.07,0-.07,0,0,0h-.19l-.14,0s-.07,0-.07,0l0,0,0,0-.06,0h-.09m31.73-.41h-.12l0,0h0l0,0-.1,0-.14.05-.1,0-.07,0H51.6l-.12,0-.11,0-.06,0h-.09l-.07,0-.07,0L51,28l-.08,0-.07,0-.07,0h-.51l-.06,0-.09,0-.08,0-.08,0-.09.06-.11.06-.12,0-.1,0H49s0,0,0,0,0,0,0,.05l.1.07.14.06.13.06.07,0,0,.05,0,.07a.22.22,0,0,1,0,.07.07.07,0,0,1,0,0h-.1l0,0,0,0a.19.19,0,0,1,0-.05.36.36,0,0,0,0-.07.09.09,0,0,0,0,0l0,0-.09,0-.09,0H49l0,0-.07-.06,0,0,0,0h-.17l0,0,0,0a.21.21,0,0,0,0,.07.77.77,0,0,0,0,.08.29.29,0,0,1,0,.07.06.06,0,0,1,0,0h-.15v0a.12.12,0,0,1,0,0v-.16a.29.29,0,0,0,0-.06s0,0,0,0h0v0l-.06.08,0,0,0,0a.1.1,0,0,0,0,0,.13.13,0,0,0,0,.05l0,.05,0,.06a.24.24,0,0,1,0,.08v.08a.36.36,0,0,0,0,.06.1.1,0,0,0,0,0h0l0,0,.05,0,.07,0,.08,0h.29l0,0v0a.19.19,0,0,0,0,.08l0,.05a0,0,0,0,1,0,0l-.05,0h-.23l0,0,0,0v0l0,0h-.14l0,0-.08.08-.09.1-.07.09,0,0,0,0-.09,0-.11,0-.08,0h0s0,0,0,0l0-.07.07-.07.08-.06.07-.06.05-.07a.26.26,0,0,0,0-.07.05.05,0,0,0,0,0l0-.06a.8.8,0,0,1,0-.1.92.92,0,0,1,0-.11.22.22,0,0,1,0-.08l0-.05,0-.06a.08.08,0,0,0,0-.06.1.1,0,0,0-.05-.05l-.09,0-.08-.05-.07,0-.07,0h0l-.07,0-.07.06-.07.07-.06.06,0,0,0,0,0,0-.07,0-.07,0a.13.13,0,0,0,0,.07.11.11,0,0,0,0,.08.21.21,0,0,0,.09.08l.12.06.07.05a.09.09,0,0,1,0,0,.05.05,0,0,1,0,0H47l-.07,0-.09,0H46.7l-.08,0-.08,0-.08,0h-.31l0,0,0,0-.06.06-.07,0-.07,0h0l0,0,0,0,0,0h-.45l0,0,0,0v0h-.08l-.05,0-.08,0h-.18l-.05,0-.07,0-.1,0h-.4l0,0,0,.05,0,.05,0,0,0,0h0a.11.11,0,0,1,0-.08l0-.09,0-.08a0,0,0,0,0,0-.06h-.33l0,0a.08.08,0,0,0,0,0,.24.24,0,0,0,0,.07.31.31,0,0,0,0,.07l0,.05a.26.26,0,0,1,0,.06.59.59,0,0,1,0,.08.23.23,0,0,1,0,.07s0,0,0,0h0l0,0,0-.05,0,0,0,0H43.5l-.06,0,0,0,0,0h-.11l-.07,0,0,0a.11.11,0,0,0,0,.05s0,0,0,.07a.25.25,0,0,1,0,.06,0,0,0,0,1,0,0h-.2l0,0,0,0,0,0h-.1l0,0,0,0,0,0h-.09v0a.7.7,0,0,1,0-.07.26.26,0,0,0,0-.06.11.11,0,0,0,0,0l-.06-.05,0,0v0a0,0,0,0,1,0,0h.17l.06,0h.36l.09,0,.09,0,.17-.06.11,0s0,0,0,0,0,0,0,0l-.08,0-.09,0-.1,0-.12,0h-.14l-.16,0-.18,0-.2-.06-.17-.06L42,29l-.08,0-.08,0-.13,0-.23,0-.27,0h-.46l-.31.07-.39.11-.34.1-.16.06,0,.05-.06.08-.08.1-.1.1-.14.12-.17.15-.19.14a.66.66,0,0,1-.18.08l-.18.07-.16.09-.12.09s0,.05,0,.06a.26.26,0,0,0,0,.06l0,.09,0,.08a.08.08,0,0,1,0,.05.08.08,0,0,0,0,.05.31.31,0,0,0,0,.08l.06.09.09.06h.32l0,0,0,0a.14.14,0,0,1,0-.05l0-.06.06,0,0,0h0v0a.45.45,0,0,0,0,.1L39,31l0,.1a.15.15,0,0,1,0,.08.16.16,0,0,0,0,.05.12.12,0,0,0,0,0l0,0h.06l.12,0,.18,0,.17,0,.07,0h0l0,0,0-.05a.11.11,0,0,0,0-.07.12.12,0,0,1,0-.08l.06-.08.07-.07,0,0,0,0,0-.07a.12.12,0,0,0,0-.08.1.1,0,0,0-.07-.05l-.11,0-.07,0a0,0,0,0,1,0-.06.29.29,0,0,1,.08-.09.3.3,0,0,1,.12-.07l.11,0,.12,0a.52.52,0,0,0,.15-.11.35.35,0,0,0,.09-.15.22.22,0,0,0,0-.09s0,0,0-.05l.1,0H41l0,0s0,0,0,0l-.08.07-.13.09-.15.09-.14.07a.23.23,0,0,0-.09.07.16.16,0,0,0,0,.08.23.23,0,0,0,0,.08.23.23,0,0,0,0,.07l0,.07,0,.08,0,.06a.08.08,0,0,0,.06,0h0l.08,0,.09,0,.09,0h.52l0,0,.06.06a.19.19,0,0,1,0,.07,0,0,0,0,1,0,0h-.83l0,0,0,0,.09,0,.07.05s0,0,0,.05h-.2l-.06,0h-.08a.13.13,0,0,0-.08,0l-.06.07,0,.09,0,.09a.21.21,0,0,0,0,.07s0,.05,0,.08a.14.14,0,0,1,0,.06,0,0,0,0,1,0,0h-.06l-.08,0-.07,0h-.21l-.05,0-.08,0-.09,0-.09,0h-.09l0,0,0,0h-.35l0,0,0-.05a.2.2,0,0,1,0-.07.34.34,0,0,1,0-.08v-.07a.21.21,0,0,0,0-.06,0,0,0,0,0,0,0h-.13l-.08,0-.07,0,0,0,0,.07a.55.55,0,0,0,0,.08.42.42,0,0,0,0,.08.12.12,0,0,0,0,.06l0,0,0,.05,0,0s0,0,0,0h-.35l0,0,0,0-.08.07-.09.08-.07.07,0,0h0l-.11,0-.1,0s0,0,0,0,0,0,0,.06a.29.29,0,0,1,0,.06.1.1,0,0,1,0,0l-.06,0-.09,0-.1,0-.11,0-.11,0-.09,0-.06,0-.06,0-.1,0-.1,0,0,0s0,0,0,0l.08,0,.13,0,.13.06.1.07a.15.15,0,0,1,0,.08.68.68,0,0,1,0,.09.6.6,0,0,1,0,.09l0,.09,0,.09,0,0H36a.13.13,0,0,0-.07.07.37.37,0,0,0,0,.12.7.7,0,0,0,0,.13.55.55,0,0,0,0,.11.26.26,0,0,1,0,.08.17.17,0,0,1,0,.06l0,0,0,0,0,0a.2.2,0,0,0,0,.06.16.16,0,0,0,0,.06.1.1,0,0,0,0,0l0,0,0,.06,0,0,0,0h.25l0,0,0,.05,0,.06,0,.05,0,0h0l0,0,0-.06,0-.05,0,0H37l.08,0,.07-.06.07-.07.07-.06.05,0a0,0,0,0,0,0,0l0,0,0,0a.07.07,0,0,1,0-.06l0-.07.07-.07.07-.07a.15.15,0,0,1,.08,0h.08l.07,0a.08.08,0,0,0,0,0,.58.58,0,0,0,0-.08l0-.09,0-.07a.07.07,0,0,1,.06,0h0l.08,0,.08,0,.08,0h.07l.08,0,.1-.05.09-.06.06,0h.12l.06,0,0,0a.11.11,0,0,1,0,.05.24.24,0,0,0,0,.09l.08.08.09.07.06,0,.08,0,.13,0,.13,0,.08,0,0,0,0,.06,0,.08,0,.08v0l0,0,0,0h.05v-.05a.24.24,0,0,0,0-.07v-.08a.17.17,0,0,1,0-.06,0,0,0,0,1,0,0H40l0,0-.09-.06-.11-.07-.09,0-.08,0-.09-.05-.09-.07-.07-.09a.3.3,0,0,0-.07-.08L39.17,33,39.1,33a.12.12,0,0,1,0-.08v-.05h.1l.06,0,.05,0,.05,0,.1.08.12.09.12.09.09.08.07.06.08.05.07.06a.22.22,0,0,1,0,.08.38.38,0,0,0,0,.09l.05.08.05.07,0,.05,0,.08.06.12.06.12,0,.08h.09l0,0,0,0,0,0,.05,0,.06,0,0,0a.14.14,0,0,0,0-.07.1.1,0,0,0,0-.07l-.05-.06-.07,0-.05,0a0,0,0,0,1,0,0l0,0,.07,0,.06,0,0,0,0,0,0,0H41a.24.24,0,0,1,0,.1s0,.09,0,.14,0,.09,0,.13a.26.26,0,0,0,0,.08l.05,0,.1,0,.1.05.07.05,0,0,.05,0h.38l.06,0h.2l.07,0,.07,0h.16l0,0a.07.07,0,0,1,0,0,.21.21,0,0,1,0,.05s0,.09,0,.14,0,.1,0,.15a.9.9,0,0,1-.05.15.45.45,0,0,1-.08.12l-.07.09,0,.06,0,0h-.22l0,0,0,0,0,0h-.07l-.12,0-.12,0-.12.05a.44.44,0,0,0-.1.09l-.06.07,0,0,0,0h-.06s0,0,0-.07l.12-.1.11-.1s0-.06,0-.07l0,0h-.47l-.12,0-.11,0-.1,0-.09,0h0l-.09,0-.1.06-.1.09L40.1,35l0,0,0,0h-.25l-.1,0-.1-.06-.08-.06,0,0h0l-.08,0-.1,0h-.08l-.08,0L39,34.74l-.08-.06-.06,0,0,0,0,0a.09.09,0,0,1,0-.06.06.06,0,0,1,0,0l.07,0h.05s0,0,0-.06a.74.74,0,0,0,0-.15.41.41,0,0,0-.05-.11l-.06-.06-.07,0h-1l-.09,0-.15.05-.16.06-.12.05-.1,0-.11,0-.09,0-.06,0h-.42l-.1.07-.1.07-.07.06,0,0,0,0-.06.05-.06.09a.81.81,0,0,0-.06.13.58.58,0,0,0,0,.14s0,.09,0,.12a.32.32,0,0,1,0,.1.13.13,0,0,1-.07.07l-.12.06-.14.08-.13.09-.1.08a.53.53,0,0,0-.08.12l-.09.18-.09.19-.09.16a.28.28,0,0,0-.05.13.29.29,0,0,0,0,.11l0,.1,0,.09,0,.09A.58.58,0,0,1,35,37a.43.43,0,0,1,0,.13.38.38,0,0,1-.07.14l-.08.12,0,.09,0,.06,0,0s0,0,0,0l0,0,0,.06a.25.25,0,0,1,0,.08.26.26,0,0,1,0,.1.64.64,0,0,0,0,.1.15.15,0,0,0,0,.09.26.26,0,0,0,.11.09l.15.08.11.09.08.09.05.11a.53.53,0,0,0,.08.13l.12.14.11.11,0,0,0,0,.09.08.11.1.1.08,0,0h.09l0,0,0,0v0a.09.09,0,0,1,0-.05l.08,0H37l.13,0,.12-.05.1-.05.06,0,0,0,.07,0,.09,0h.19l0,0a.31.31,0,0,1,.09.08A.39.39,0,0,1,38,39l0,.09a.24.24,0,0,0,0,.08l0,0h.15l.06,0,.06,0,.05,0,0,0,0,0h0l0,0,0,0,0,0,.08.06a.17.17,0,0,1,0,.06.09.09,0,0,1,0,.07.24.24,0,0,1-.06.08.23.23,0,0,0-.06.1.55.55,0,0,0,0,.12s0,.08,0,.13a.48.48,0,0,1,0,.14l0,.11a.14.14,0,0,0,0,.07.1.1,0,0,0,0,.05l.08.05a.47.47,0,0,1,.12.12l.13.2.12.2.08.13a.17.17,0,0,1,0,.1,1.27,1.27,0,0,1,0,.13,1,1,0,0,0,0,.15.32.32,0,0,0,0,.13l.06.11,0,.09a.14.14,0,0,1,0,.08.11.11,0,0,1,0,.06l-.09.07-.09.1A.57.57,0,0,0,39,42a.56.56,0,0,0,0,.17,1.19,1.19,0,0,0,0,.18.89.89,0,0,0,0,.15l0,.12,0,.09,0,.09.06.12.07.12.05.09,0,.09,0,.12,0,.13a.7.7,0,0,1,0,.12,1.05,1.05,0,0,1,0,.11s0,.07,0,.11a.6.6,0,0,0,0,.1.17.17,0,0,0,0,.07l0,.07,0,.08.05.08.07.08a.35.35,0,0,1,.07.1l0,.11,0,.09v.1l0,.07a.83.83,0,0,1,0,.1s0,.07,0,.1a.39.39,0,0,0,0,.08l0,.07.07.05,0,0,0,0h.16l0,0,.06,0,.1,0h.52L41,45l.12-.06.12-.08.13-.12.14-.15.13-.15.09-.1.08-.08.09-.1.07-.1A.14.14,0,0,0,42,44l0-.08a.33.33,0,0,1,0-.07.13.13,0,0,1,0-.06.11.11,0,0,1,0,0l.09,0,.11-.06.09-.06a.12.12,0,0,0,0-.06.37.37,0,0,0,0-.1l0-.14,0-.14,0-.09a.1.1,0,0,1,0-.06l0-.07.06-.09.07-.1a.43.43,0,0,1,.11-.09l.14-.08.13-.06.08,0,.05-.07.06-.11.06-.13a.72.72,0,0,0,0-.13.64.64,0,0,0,0-.13s0-.09,0-.13a.83.83,0,0,1,0-.12.2.2,0,0,1,0-.09.17.17,0,0,0,0-.07.15.15,0,0,0,0-.06l0-.07L43,41.22a.25.25,0,0,1-.06-.11.74.74,0,0,1,0-.14s0-.1,0-.13a.22.22,0,0,0,0-.08.15.15,0,0,1,0-.07.55.55,0,0,1,0-.11.45.45,0,0,1,0-.11.09.09,0,0,1,0-.06l.07-.06.09-.11.09-.13.09-.11.1-.13.14-.16.15-.15a.32.32,0,0,1,.13-.07l.11-.05.11-.09.09-.11a.24.24,0,0,0,0-.1.45.45,0,0,1,.07-.14l.13-.2.13-.19a.42.42,0,0,0,.07-.12.91.91,0,0,1,0-.11l0-.15a1.05,1.05,0,0,0,0-.15.13.13,0,0,0,0-.1h-.06l-.14,0-.17.05-.15.06-.09,0-.06,0-.09,0-.12,0h-.17a.15.15,0,0,1-.1,0,.09.09,0,0,1,0-.07.47.47,0,0,1,0-.08.27.27,0,0,0,0-.07.34.34,0,0,0,0-.09l-.08-.13-.09-.11-.06-.06-.05,0-.07-.07-.07-.1L43,37.26l0-.12L42.89,37l-.06-.12-.07-.1a.54.54,0,0,1-.07-.11l-.06-.15-.06-.16-.07-.15-.07-.14-.07-.15-.06-.15-.06-.14,0,0,0,0,0,0,0,0,.06,0,.06,0h.17v0a.41.41,0,0,0,0,.09l.05.11.06.12a.56.56,0,0,1,0,.12.15.15,0,0,0,0,.08l.05,0,.05,0a.11.11,0,0,1,0,.07.74.74,0,0,0,0,.13l.05.15.06.13,0,.07.06.06.1.09.09.1.05.08,0,.06,0,.08,0,.1a1.16,1.16,0,0,1,0,.13l0,.15c0,.05,0,.11,0,.15a.63.63,0,0,0,0,.12.13.13,0,0,0,.06.07h.18l.13,0,.11,0,.07,0,.1-.06.18-.09.19-.08.15,0,.09,0,.07,0,.08-.05.11,0,.13,0,.11-.07.1-.09.1-.08.1-.1.09-.13.08-.13.06-.1,0-.07.05-.06a.14.14,0,0,0,0-.06.1.1,0,0,0,0-.07l-.08-.08-.12-.09L45.64,36l-.1,0a.08.08,0,0,1-.06,0l0-.06,0-.06a0,0,0,0,0,0,0l0,0,0,0,0,0-.07.05-.08.05-.08.06-.08,0-.07,0h0s0,0,0,0a.14.14,0,0,1,0,0,.15.15,0,0,0,0-.06.23.23,0,0,0-.06-.08l-.09-.07-.06-.05,0,0a.17.17,0,0,1,0-.06.15.15,0,0,0,0-.08l-.1-.1-.1-.11a.25.25,0,0,1-.06-.1.15.15,0,0,1,0-.08.27.27,0,0,1,0-.08l.07-.06.07,0h0v0l0,.1.05.11.07.1a.32.32,0,0,0,.1.07l.12.07.11.07.09.06.07,0h.08l0,0,0,0,0,0,0,0h.08l.06.05.07.09.08.1.08.06.12,0h.67l.08,0,0,0,0,0,0,0h.08s0,0,.05,0l.07.08.07.09.07.05h.07l.08,0a.13.13,0,0,1,.06,0,.15.15,0,0,1,0,.1.43.43,0,0,0,0,.12.37.37,0,0,0,0,.1l.05.07.06,0h0l.08,0,.09-.07.08-.07,0,0v.05s0,.08,0,.13,0,.1,0,.15,0,.09,0,.12a.51.51,0,0,0,0,.14l0,.18,0,.16,0,.07,0,.06.07.15.08.17.06.12.06.1.09.14.08.14a.29.29,0,0,1,0,.11s0,.06,0,.1a.59.59,0,0,0,0,.1.3.3,0,0,0,0,.08.06.06,0,0,0,0,0,.08.08,0,0,0,.06,0l.06-.09.06-.11.06-.11.05-.11a.8.8,0,0,0,0-.12l0-.12,0-.11a.82.82,0,0,0,0-.11s0-.09,0-.13,0-.09,0-.12,0-.07,0-.09a.16.16,0,0,1,0-.07l0-.06.08-.06.11-.06.12-.08.11-.11.11-.12.11-.1a.42.42,0,0,0,.09-.1l.07-.1a.29.29,0,0,1,.1-.08.4.4,0,0,1,.17,0h.26l0,0,0,0,0,0,0,0,0,0h0l0,0,0,0,0,0a.45.45,0,0,0,.05.12l.09.12.09.1.05.07,0,.05,0,.08a.61.61,0,0,1,0,.1.48.48,0,0,1,0,.11s0,.08,0,.12a.94.94,0,0,0,0,.11.31.31,0,0,0,0,.08s0,0,0,0l.05,0,.06-.08.05-.08,0,0h0l0,0,.06,0h.09l0,0v0a.16.16,0,0,1,0,0,1.39,1.39,0,0,0,0,.16c0,.05,0,.1,0,.15v.14s0,.08,0,.11a.3.3,0,0,0,0,.11l.07.13.07.1,0,0h0a.33.33,0,0,1,0-.08l0-.11,0-.12a.4.4,0,0,0,0-.1.27.27,0,0,1,0,0v0h.05l0,0,.05,0,.07,0,.11.1.09.12.05.09,0,0,0,0,.06.06.06.07,0,.06h.09l.06,0,.05,0,0,0,0-.05,0,0,0,0,.06,0,.08,0,.08,0,.06,0a.19.19,0,0,0,0-.08l0-.11a.75.75,0,0,0,0-.12.38.38,0,0,0,0-.13.36.36,0,0,0-.07-.14l-.1-.14L53,37.19,53,37.1,52.89,37l-.08-.09-.06-.11,0-.09,0,0,0,0,.09-.09.1-.1.08-.08,0,0h.1l0,0,0,0v0a.12.12,0,0,1,0,.07l0,.08,0,.1a.5.5,0,0,0,0,.13.24.24,0,0,0,0,.1.18.18,0,0,0,0,.07l.05,0h.11l0-.06.06-.08,0-.07,0,0a0,0,0,0,0,0,0l0,0,0,0a.25.25,0,0,1,0-.08.17.17,0,0,1,0-.09l0-.07.07,0,.07,0h.21l.16,0,.17-.05.14-.06.13-.1.11-.12.09-.12.09-.09.13-.1.17-.15a1.15,1.15,0,0,0,.14-.16.21.21,0,0,0,0-.13.73.73,0,0,1,0-.12s0-.09,0-.13a1,1,0,0,0,0-.14.57.57,0,0,0-.05-.14L55,34.59l-.08-.1-.07-.08-.05-.07s0,0,0,0l.09,0,.12,0,.11-.07a.18.18,0,0,0,.05-.08.1.1,0,0,0,0-.07l0,0-.05,0h-.3l0,0,0,0,0,0-.07-.06a.09.09,0,0,1,0-.06.1.1,0,0,1,0-.06l0,0,.05,0h0l.07,0,.08-.05.08-.07.07-.06,0,0,0,0,0,0h0l0,.08,0,.1a.25.25,0,0,0,0,.09.05.05,0,0,0,0,0h.05l.05,0,.05,0,.06,0,.05,0,0,0,0,0h0l0,0,0,.07a.42.42,0,0,1,0,.08.17.17,0,0,1,0,.07.26.26,0,0,0,0,.06.39.39,0,0,0,0,.07.12.12,0,0,0,0,0l0,0h0l0,0,0,0,0,0h0l0,0,0,.06a.18.18,0,0,1,0,.07.2.2,0,0,1,0,.1l-.05.09,0,.07a.08.08,0,0,0,0,.06.15.15,0,0,0,.07.06l0,0h.14l0,0,0,0,.05,0a.23.23,0,0,0,.08-.09.57.57,0,0,0,.05-.13.56.56,0,0,0,0-.13.18.18,0,0,0,0-.1l-.06-.08-.07-.1L56,33.63a.16.16,0,0,1,0-.07s0,0,0,0l.09,0,.09,0a.07.07,0,0,0,0-.06.23.23,0,0,1,0-.07l0-.06.06-.05.07,0,.06,0,.06-.06.06-.05,0,0h0l0,0,.05,0,.07,0H57l0,0,.09-.09.16-.14.18-.16.17-.14.13-.12.09-.13a.92.92,0,0,0,.06-.14,1.07,1.07,0,0,0,0-.14l0-.13,0-.11a.66.66,0,0,0,0-.1.37.37,0,0,0,0-.11l0,.13a.89.89,0,0,1,0,.12.66.66,0,0,1,0,.11,1,1,0,0,1,0,.11,1.25,1.25,0,0,0,0,.13s0,.1,0,.15,0,.1,0,.13a.26.26,0,0,0,0,.07l0,0,0,0,0,0h.07s0,0,0-.06a.68.68,0,0,0,0-.1l0-.11a.43.43,0,0,1,0-.07.09.09,0,0,1,0,0l0,0,0,0,0,0s0,0,0,0a.39.39,0,0,0,0-.09l0-.11,0-.09,0-.06,0,0,0,0s0,0,0,0l0,0,0,0a.12.12,0,0,0,0,0,0,0,0,0,0,0,0l0,0v0l0,0h-.2l-.07,0a.07.07,0,0,0,0,.06l0-.07,0-.06-.05,0h-.08l-.08,0-.07,0-.07,0h-.08a0,0,0,0,1-.05,0,.14.14,0,0,1,0-.06s0,0,0-.06,0,0,0,0l0,0,0,0-.05,0,0,0h0a.06.06,0,0,1,0-.07l.08-.08.13-.07.15-.06a.67.67,0,0,0,.16-.1l.18-.15.17-.14a.3.3,0,0,1,.13-.07h.72l.14,0,.11,0,.08,0h.12l.08,0,.09,0,.1,0h.22l0,0,.1-.07.13-.09.12-.07.1-.07.08-.08.05,0,.07,0,.07,0h.12l0,0v0a.67.67,0,0,1,0,.08s0,0,0,.07a.09.09,0,0,0,0,0l.05,0,.08,0,.1,0,.1-.05.1,0,.09,0,.07,0,0,0h0l-.08.06-.19.14-.22.15-.16.11-.12.06-.16.06-.16.07a.46.46,0,0,0-.12.1l-.09.1-.06.08a.27.27,0,0,0,0,.09.39.39,0,0,0,0,.11.45.45,0,0,0,0,.14l.07.14a.54.54,0,0,1,0,.14.2.2,0,0,1,0,.13.69.69,0,0,0-.07.13l0,.13,0,.1v0l0,0,.08-.09.12-.12.15-.12.15-.12.12-.12.09-.11.07-.08.08-.05.1,0,.09,0a.07.07,0,0,0,0-.06.28.28,0,0,1,0-.07l0-.08,0-.08,0-.08a.1.1,0,0,0,0-.06l0,0a.06.06,0,0,1,0,0,.17.17,0,0,1,0-.07l0-.09a.22.22,0,0,1,.06-.08.27.27,0,0,1,.12-.05l.22,0h.56l.2,0,.16-.07.16-.08.19-.07.16,0,.14,0,.12,0h.31l0,0a0,0,0,0,0,0,0l0,0-.08-.07-.09-.07a.21.21,0,0,1,0-.06s0,0,0,0l.08,0,.07,0,.06,0a.18.18,0,0,0,0-.06.15.15,0,0,0,0-.09l0-.11a.33.33,0,0,1,0-.11.12.12,0,0,1,0-.09.09.09,0,0,0,0-.08.14.14,0,0,0,0-.08l-.09-.06-.1,0h-.72l-.07,0-.07,0-.07,0h-.11l0,.06-.05.08,0,.08,0,0h-.09l0,0,0,0a.16.16,0,0,0-.08-.06l-.14,0H60.87l0,0,0,0-.08-.06-.08,0-.08,0-.05,0H60l-.16,0h-.29l0,0-.08,0-.1-.06-.11-.06-.1,0-.08,0H58.4l-.07,0-.06,0-.06,0h-.05l0,0,0,0a0,0,0,0,1,0,0l0,0,.1,0,.15,0,.13,0,.06,0,0,0,0,0-.07,0-.09,0h-.11l-.12,0-.11,0h-.1v0l0,0h-.15l-.06,0h-.2l-.07,0-.06.05s0,0,0,0,0,0,.08,0l.14,0h.22a.09.09,0,0,1,.06,0,.16.16,0,0,1,0,.05.12.12,0,0,1,0,0v.08a.13.13,0,0,1,0,.05l0,.07-.05.06-.05,0h-.27l-.05,0H56.8l0,0h-.07l-.06,0-.08.06-.09.06-.08,0h0l-.07,0-.07,0,0-.06a.17.17,0,0,1,0-.08.57.57,0,0,0,0-.08l0-.08,0-.06,0,0H55.6l-.14,0-.13,0-.08,0-.05,0-.07,0-.08,0H54.9l-.07,0-.09,0-.12,0h-.73l-.05,0,0,0a0,0,0,0,1,0,0l.06-.06.07-.08A.21.21,0,0,0,54,28a.07.07,0,0,0,0-.07l-.11,0-.13,0h-.64l-.08,0-.06,0,0,0h-.08v0h0l0,0-.06,0-.11,0-.09,0h-.14m-5.2.15h-.08l0,0,0,0,0,0-.07,0h-.42l-.17,0-.23,0-.22,0-.14,0-.08,0-.07.06-.08.08-.11.07-.14.07-.14.07-.12.06-.09,0-.06,0,0,.07a.16.16,0,0,0,0,.06,0,0,0,0,0,0,0l.07,0,.09,0,.1,0,.1,0,.06,0,.06,0h.22l0,0,0,0a.12.12,0,0,0,0-.07.16.16,0,0,0,0-.13l0,0,0,0a.08.08,0,0,1,0,0,.12.12,0,0,1,0-.06.29.29,0,0,1,.09-.07l.12-.07.13-.07.13-.06.14,0h.79l.12,0,.12-.07.1-.09.07-.08a0,0,0,0,0,0,0l0,0-.05,0h-.07m-24,.43h-.68l0,0a.09.09,0,0,0,0,.06.35.35,0,0,0,0,.08s0,.05,0,.07,0,0,0,0v0l0,0h.05l0,0,0-.06,0-.06,0,0H23l0,0,0,0v0h.13l.08,0,.06,0,0-.06,0,0a.06.06,0,0,0,0,0l0,0-.05,0h-.08m.57.14h-.07l0,0,0,0a0,0,0,0,0,0,0l0,0,.06,0h.15l0,0a0,0,0,0,0,0,0l0,0,0,0,0,0h-.05m-3.19.17h-.91l0,0,0,0,0,.08,0,.08,0,.06,0,0h-.05l0,0s0,0,0,0l.12,0,.11,0,0,0,0,0H20l.13,0,.1,0a.13.13,0,0,0,.06-.06l0,0,0,0,0,0h0l0,.06.07.09.06.08,0,0,0,0,0,0,.05,0,0,0a0,0,0,0,1,0,0l0,0,0,0h-.11l-.08,0-.1,0-.09,0-.07,0-.06,0-.09,0h-.61l-.05,0-.07,0-.06,0,0,0v0l0,0,0-.05,0,0h-.05l0,0,0,0,0,0h-.33l-.07,0,0,0,0,0h-.53v0l0,0,0,0,0,0,0,0,0,0H17.8l0,0,0,0,0,0h-.08l0,0h-.4l-.11,0-.08,0h-.5l-.12,0h-.77l0,0-.06,0-.07,0,0,0h-.23l0,0-.05,0,0,0h0v0l0,.05,0,.06-.06,0-.06,0-.07,0-.07,0h-.11l-.08,0-.11,0-.1,0,0,0,0,0-.07.05-.08.05-.06,0H13.8a0,0,0,0,0,0,0v0a.16.16,0,0,0,0,0l.05,0,.11,0h.11l.07,0,0,0,0,0h.08l0,0,.05,0,0,.05a.09.09,0,0,1,0,0,0,0,0,0,1,0,0h-.15l-.08,0-.07,0-.06,0,0,0,0,0h0l-.13.07-.13,0-.12,0-.09,0h0v0l0,0,.05.06.07.06.1,0,.12,0h.29l.06,0,0,0,0,0,0,0h.14s0,0,0,0a.15.15,0,0,1,0,.06l-.06.06-.08,0h-.16l-.09,0-.08,0-.07.05-.08.06-.06,0,0,0a.09.09,0,0,0,0,.06l.05.08.08.08.07.07A.15.15,0,0,1,14,31h.09l.06,0,.06,0,0,0v0h.07l0,0a.08.08,0,0,1,0,0,.19.19,0,0,1,0,.05.13.13,0,0,0,0,.08.11.11,0,0,0,0,.05l0,0h0v0l0,0,0,0,0,0h0l0,0,.05,0,0,0,0,0h0l0,0,0,0H15a.06.06,0,0,1,0,.05l0,0-.06,0-.06,0-.08,0-.12.05-.11.05-.08,0-.07,0-.1.05-.1,0-.07,0,0,0a.09.09,0,0,0,0,0,.07.07,0,0,0,0,0,.06.06,0,0,0,0,0h0l.11,0,.14,0,.14-.05.1,0h.15l0,0,.06,0,.14-.08.11-.07.09,0,.06,0h0l0,0,0,0,0,0,.06,0h.09l.05,0,0,0,0,0,0,0,0-.06a.14.14,0,0,0,0-.05s0,0,0,0h-.22l0,0,.06,0,.06-.06a.1.1,0,0,0,0-.05.27.27,0,0,1,0-.05l0-.06,0-.05.06,0h.07a0,0,0,0,1,0,0v0l0,.07v0a0,0,0,0,0,0,0v0h.07l0,0,0,0,0,0,.05,0h.05l.06,0,.08,0,.08-.06,0,0,0,0h.1l.06,0,.06,0h.22l.09,0,.09,0h.08l.13,0,.17.06.16.06.1,0,.07,0,.1,0a.29.29,0,0,1,.08.08.2.2,0,0,1,0,.11.29.29,0,0,0,0,.08l0,0,0,0h.14l.08,0,.07,0a.06.06,0,0,1,0,0s0,0,0,.08a1,1,0,0,0,0,.11.38.38,0,0,0,0,.11.13.13,0,0,0,.06.08l.08,0,.07,0,.06,0h.07s0,0,0,0a.34.34,0,0,0,0-.08.36.36,0,0,0,0-.08.09.09,0,0,0,0,0l0,0a.16.16,0,0,1,0,0s0,0,0,0a.13.13,0,0,0,0,0h.07l0,0,0,0,0,.08,0,.08.05.07,0,0,.05,0L19,32a.31.31,0,0,1,0,.08.12.12,0,0,1,0,.08.15.15,0,0,0,0,.07.18.18,0,0,0,0,.07l.05.05.07,0,.08,0,.08.06.07.06,0,0,0,0,0,0,0,0a.07.07,0,0,1,0,0v.06l0,.1,0,.11a.67.67,0,0,1,0,.09s0,.06,0,.11v.17l0,.18v.14a.41.41,0,0,0,0,.12.75.75,0,0,0,0,.14l.07.14a.6.6,0,0,0,.08.11l.09.11.08.13.07.11.06.07,0,0,0,.06.05,0,.07,0h0l.07,0,.06,0,.06.08.06.11.07.15.07.16.06.13a.15.15,0,0,0,.06.06l.06,0,.06,0a.11.11,0,0,1,0,.05.06.06,0,0,1,0,.05l0,.06,0,.07a.07.07,0,0,0,0,.06s0,0,0,0h.17l0,0,0,0,.07.08.06.06,0,.06a.08.08,0,0,1,0,.06.06.06,0,0,0,0,0l0,0,.05,0h0l0,0,0,.06.06.06.06,0h.06a.08.08,0,0,0,0-.08.25.25,0,0,0-.06-.09l-.1-.08-.08-.06a.12.12,0,0,1,0-.06s0-.05,0-.08a.32.32,0,0,0,0-.1.31.31,0,0,0-.09-.1l-.09-.1-.05-.09,0-.08-.07-.08L21,35.33,21,35.26a.09.09,0,0,1,0-.07.13.13,0,0,1,.05-.07h.06l0,0,0,.06,0,.07,0,.07a.46.46,0,0,0,.07.1l.11.13.12.12.1.1.09.11.1.15.09.13s.05.06.07.06l.06,0,.07.07.06.07,0,0v0l0,.06a.32.32,0,0,1,0,.07.08.08,0,0,1,0,.06.09.09,0,0,0,0,.06.34.34,0,0,0,0,.09l0,.09.06.06.1.06.15.08.14.07.08,0,0,0,.06.07.08.07a.17.17,0,0,0,.09,0h.22l0,0,0,0,0,0,0,0,0,0h.05l0-.06,0,0,0,0h.14l.05,0,0,0,0,.05.06.06.08.07.09.06.08,0h.35l0,0,0,0,0,0,.05,0,.07.06.06.08a.2.2,0,0,1,0,.1.22.22,0,0,0,0,.1.17.17,0,0,0,0,.06l.06,0,.06,0,.06,0,.06.05.06.05.05.05.06,0,.07,0,.06,0,0,0,0,0,0,0,0,0h.1l.06-.06a.16.16,0,0,0,0-.06.17.17,0,0,0,0,0v0H26l0,0,0,.06,0,.08,0,.07,0,0,0,0a.5.5,0,0,1,0,.09.49.49,0,0,1,0,.11.34.34,0,0,1,0,.11l0,.1,0,.09,0,.06s0,0,0,0l0,0,0,.06,0,.07-.05,0-.07.05-.09.08-.07.08a.11.11,0,0,0,0,.07l0,.07,0,.1,0,.1a.17.17,0,0,1,0,.08.26.26,0,0,1,0,.07l-.06.08a.37.37,0,0,0,0,.09.18.18,0,0,0,0,.1.19.19,0,0,0,.06.09l.1.07.09.07a.12.12,0,0,1,0,.08.5.5,0,0,0,0,.12l.07.15.07.15a.63.63,0,0,1,0,.12.3.3,0,0,0,0,.1l.08.11.07.12a.3.3,0,0,1,0,.13.2.2,0,0,0,0,.12.42.42,0,0,0,.1.1l.12.06.08,0,.05,0,.07,0,.07.05.07,0,.06,0,.06.05.05.06,0,.07a.28.28,0,0,1,0,.08.57.57,0,0,1,0,.16s0,0,0,0,0,0,0,.09,0,.11,0,.18l0,.21c0,.07,0,.14,0,.2a.79.79,0,0,0,0,.16c0,.05,0,.1,0,.14a.56.56,0,0,1,0,.11.1.1,0,0,1,0,.07l-.06,0,0,0a.1.1,0,0,0,0,.05.08.08,0,0,0,0,.06.05.05,0,0,1,0,.05l0,0,0,0s0,0,0,0v.06l0,.09a.55.55,0,0,1,0,.1.16.16,0,0,1,0,.08l0,.07,0,.08,0,.08,0,.07,0,.06,0,.06,0,.07a.2.2,0,0,0,0,.08.08.08,0,0,1,0,.06l0,0,0,0a.12.12,0,0,0,0,.13l0,0,0,0a.14.14,0,0,1,0,.08.43.43,0,0,1,0,.09l0,.07,0,.06a.24.24,0,0,0,0,.07.41.41,0,0,0,0,.08.77.77,0,0,0,0,.08l0,.07a.21.21,0,0,1,0,0,.14.14,0,0,1,0,0l0,.07,0,.08-.06.08-.06.07,0,.06,0,.05a.1.1,0,0,0,0,0l0,.05,0,0,0,0a0,0,0,0,1,0,0l0,0,0,.07,0,.07a.16.16,0,0,0,0,.07.07.07,0,0,0,0,0l0,0h0a.05.05,0,0,1,0,0,0,0,0,0,1,0,0l0,0,0,0a0,0,0,0,0,0,0l.06,0,.05,0a.12.12,0,0,1,0,0,.2.2,0,0,1,0,.09.17.17,0,0,0,0,.1.18.18,0,0,0,0,.06l.06,0,0,0,0,0,0,0,0,0H27l0,0,0-.06a.49.49,0,0,0,0-.09v-.05h.07l0,0a.08.08,0,0,1,0,0l0,.05-.08.07-.05,0,0,0s0,0,0,0l.05,0,.08,0,.1,0,.08,0h.09l.1,0,.09,0,.05,0h.06l.1,0,.1,0,.06,0s0,0,0,0h-.19l-.1,0-.09-.05-.1-.09-.08-.09,0-.08a.41.41,0,0,1,0-.07.38.38,0,0,1,0-.08.25.25,0,0,1,0-.08.13.13,0,0,1,0-.06l.08-.06.1-.08.09-.08.06-.05,0-.05,0-.08a.37.37,0,0,0,0-.07s0,0,0,0h-.2l0,0v0a.07.07,0,0,1,0,0l0,0,.07-.06.08-.07.06-.08,0-.07,0,0,0,0,.05,0,.05-.06,0-.07v0a0,0,0,0,0,0,0H28l0,0,0-.06,0-.07a.29.29,0,0,1,0-.06h.09l.07,0,.08,0,.08,0h.08a0,0,0,0,0,0,0V46a.2.2,0,0,1,0-.06.26.26,0,0,1,0-.06l0,0,0,0h.52l0,0,.07-.09.07-.1,0-.08,0,0a.13.13,0,0,0,0,0,.08.08,0,0,0,0,0l0,0,0,0,0-.06,0-.06,0,0a.2.2,0,0,1,0-.06v-.1s0-.07,0-.1a.34.34,0,0,1,0-.07h0s0,0,0,.06,0,.09,0,.14a.57.57,0,0,0,0,.15.15.15,0,0,0,.09.09l.05,0h.19l.06,0,.06,0,.06-.06.11-.11.09-.09.06-.08a.21.21,0,0,0,0-.08l0-.08,0-.07,0-.06,0,0H30l0,0,0,0,.06-.1.05-.06.05-.06.06-.08a.18.18,0,0,0,0-.11,1,1,0,0,0,0-.12.3.3,0,0,1,0-.11.12.12,0,0,1,.05-.09l.12-.08.13-.07.1-.06,0,0h0l0,0,.07,0,.1,0,.11,0h.1l.08,0,.06,0,0-.07,0-.09,0-.09.05-.08.06-.08,0-.08a.27.27,0,0,0,0-.08.09.09,0,0,0,0-.06.13.13,0,0,1,0-.08,1,1,0,0,1,0-.13l0-.13a.28.28,0,0,0,0-.09l0-.07a.59.59,0,0,1,0-.1.27.27,0,0,1,0-.12.3.3,0,0,1,.09-.12l.14-.13.12-.13.09-.12a.25.25,0,0,0,0-.08l0-.08.05-.13a1.47,1.47,0,0,0,0-.14.37.37,0,0,0,0-.12.29.29,0,0,0,0-.1.45.45,0,0,0-.06-.1l-.07-.08-.07,0-.08,0-.1,0-.09,0-.07-.06-.07-.07-.09-.06-.09,0-.08,0H31.1l0,0L31,40.18l-.09-.05-.08,0-.06,0-.06,0-.08,0-.08,0h-.14l0,0,0,0,0,.06a.37.37,0,0,0,0,.08l0,.06a.06.06,0,0,1,0,0h-.12l-.08,0s0,0,0,0l.09-.05a.42.42,0,0,0,.09-.09.23.23,0,0,0,0-.09.12.12,0,0,0,0-.07l0,0-.07,0H30.1l-.06,0,0,0,0,0-.1,0H29.8l-.07,0a0,0,0,0,1,0,0,.06.06,0,0,1,0,0l.06,0,.1,0,.11-.05.09-.06s0,0,0,0a.39.39,0,0,0,0-.05l0-.06,0-.05-.06,0-.05,0,0-.06,0-.09a.63.63,0,0,0-.08-.12l-.1-.1L29.59,39,29.48,39l-.11,0h-.26l0,0,0,0,0,0-.05-.09-.06-.06,0,0,0-.05v0h-.19l0,0h-.11a0,0,0,0,1,0,0l0,0a.43.43,0,0,0,.05-.1l0-.11a.39.39,0,0,0,0-.08s0,0,0,0h0l0,0,0,.06,0,.06,0,0h0v0l0,0-.06,0,0,0h-.17l-.06,0,0,0a0,0,0,0,0,0,0,.11.11,0,0,1,0,0l0,0,0,0h0l0,0,0,0,0-.05,0,0,0,0h-.17l0,0,0,0h0s0,0,0,0l0-.07,0-.07s0,0,0,0H27.3l-.07,0-.07.06-.05.08a.33.33,0,0,0,0,.09l0,.09v.07s0,0,0,0h0s0,0,0,0a.46.46,0,0,1,0-.09.84.84,0,0,1,0-.1.55.55,0,0,1,0-.08.22.22,0,0,1,0-.07l0-.07a.14.14,0,0,0,0-.06s0,0,0,0h0l-.08,0-.08,0-.07.05-.05,0-.05,0-.07,0-.07.06-.06.07,0,.07,0,.06,0,0,0,0h-.14l0,0a0,0,0,0,1,0,0s0,0,0,0l-.06,0-.07,0-.07,0h0l0,0-.06,0-.08,0-.08,0h-.11l-.05,0,0,0,0,0,0,0,0,0,0-.06a.63.63,0,0,1,0-.1.9.9,0,0,1,0-.13s0-.08,0-.12l0-.11,0-.09a.12.12,0,0,0,0-.09l-.07-.1-.09-.08-.08,0h0l-.06,0-.06,0-.06,0h-.32s0,0,0,0l0,0a.25.25,0,0,0,0-.07.4.4,0,0,0,0-.09s0-.06,0-.1a.29.29,0,0,1,0-.1.21.21,0,0,1,.07-.09.22.22,0,0,0,.07-.1.31.31,0,0,0,0-.12.26.26,0,0,0,0-.1.08.08,0,0,0-.05,0h-.37l-.07,0-.05,0a.18.18,0,0,0,0,.07.17.17,0,0,0,0,.08.16.16,0,0,1,0,.07.14.14,0,0,1,0,.06l0,0H24l0,0,0,0,0,0,0,0h-.1l0,0,0,0-.06,0-.1-.09-.09-.09-.07-.1a.42.42,0,0,1,0-.12s0-.09,0-.13,0-.09,0-.13a.78.78,0,0,1,0-.11.36.36,0,0,1,0-.09.38.38,0,0,0,0-.09.45.45,0,0,0,0-.1.28.28,0,0,0,0-.08.07.07,0,0,0,0,0,0,0,0,0,1,0,0l0-.06.07-.06.07,0,.07,0,.07-.05.06-.06,0,0,0,0h.4l.06,0,.08,0h.12l0,0v-.1l0,0,.05,0h.49l0,0,0,.05,0,0,0,0h0l0,0,0,0,0,0h0v.07l0,.13,0,.13a.49.49,0,0,0,.05.11.18.18,0,0,0,.07.06.09.09,0,0,1,.05,0,.31.31,0,0,1,0,.07.16.16,0,0,0,0,.06.07.07,0,0,0,.05,0h0a.09.09,0,0,0,.07,0,.34.34,0,0,0,0-.1.48.48,0,0,0,0-.11.23.23,0,0,0,0-.09l0-.1,0-.13,0-.12,0-.08a.14.14,0,0,1,0-.06.23.23,0,0,1,0-.08.18.18,0,0,1,0-.08.16.16,0,0,1,.07-.06l.12-.07.15-.11.14-.12.1-.09.08-.06.1-.06a.21.21,0,0,0,.07-.06.06.06,0,0,0,0-.07l0-.07,0-.06,0-.06a.33.33,0,0,1,0-.06v0h.09l0,0h0l0,0,0,0,0-.05a.07.07,0,0,0,0,0l0,0a.14.14,0,0,1,0,0l0,0h.12l0,0a.08.08,0,0,0,0,0l0,0a0,0,0,0,1,0,0l0,0,0,0h.25l.08,0,.07,0,0,0a0,0,0,0,0,0,0l0,0,0-.05a.17.17,0,0,1,0-.07.14.14,0,0,1,0-.07l.06-.06.08,0,.07,0h.18l0,0,0,0,0,0,0,0h.06v.09a.68.68,0,0,0,0,.08.14.14,0,0,0,0,.06.06.06,0,0,0,.05,0l.08,0,.07,0,.06,0,0,0,.06,0,.1,0,.1,0,.06,0h.07l.11,0,.09,0s0,0,0-.06l0-.07,0-.06,0-.05,0,0h0l0,0,0,0,0,0,0,0h-.12v0a.12.12,0,0,1,0,0s0,0,0-.06a.15.15,0,0,0,0,0l0,0h0l0,0,0,0,0,0h0l0,0,0,0,0,0h0l0,0a.11.11,0,0,0,0-.06.15.15,0,0,0,0-.08l0,0,0,0h-.17l0,0,0,0-.07,0,0,0-.05,0-.08,0-.1,0-.07,0,0,0h0l0,0,.08-.05.09-.07.08-.07.07-.05.07,0,.07,0,.06-.05H28l.06,0,0,0h0l0,0,0,0h0s0,0,0,.06,0,.05,0,.08a.19.19,0,0,0,0,.06,0,0,0,0,0,0,0l.07,0,.08,0,.05,0s0,0,0,0,0,0,0,0h.14l.08,0,.07,0,.06,0,.06,0,0,0,0,0,0,0,0,0,.06,0,.05,0a.08.08,0,0,1,0,0,.11.11,0,0,1,0,.06.19.19,0,0,1-.06.06.26.26,0,0,0-.07.08l0,.1,0,.09a.15.15,0,0,1,0,.06l0,0a0,0,0,0,0,0,0l0,0h.42l0,0,0,0,0,0h0l0,0,0,0h.19l0,0h0v0a.11.11,0,0,0,0,0v0l0,0,0,0,0-.05,0-.06,0,0,0,0h-.22l0,0,0,0,0,0h-.07v0l0-.06,0,0,0,0,0,0,0-.07,0-.08a.09.09,0,0,0,0-.07s0,0-.07,0l-.1,0-.07,0,0,0,0,0,0-.07L29,31.43l-.08-.06-.06,0H28.7l-.07,0a.06.06,0,0,1,0,0,.16.16,0,0,0,0-.06l-.05-.07-.06-.07L28.41,31l-.07-.08-.1-.12-.09-.11-.06-.06H28l0,0,0,0-.06.07-.06.07-.06,0-.05,0H27.6l-.05,0,0,0,0,0-.05-.06a.07.07,0,0,1,0-.06.08.08,0,0,1,0,0l0,0a0,0,0,0,0,0,0l-.05,0-.09,0-.11,0h-.1l-.08,0L27,30.45l-.09-.05-.12,0h-.46l0,0,0,0v.07l0,.1a.23.23,0,0,0,0,.09.28.28,0,0,0,0,.06,0,0,0,0,1,0,0l0,0-.07,0,0,0s0,0,0,0l.05,0,.09.06.08.08.06.08,0,0v.07l0,.06,0,.06,0,0,0,0,0,0h-.09l0,0,0,0h-.1v0a0,0,0,0,0,0,0l0,.05,0,0,0,0a.12.12,0,0,1,0,.05.25.25,0,0,0,0,.08l0,.1a.35.35,0,0,1,0,.09.09.09,0,0,1,0,.07l0,0h-.2l0,0,0,0a.1.1,0,0,1,0,0,0,0,0,0,1,0,0,.05.05,0,0,0,0,0,.32.32,0,0,0,0-.07l0-.07v0l0,0,0,0,0,0h0a.17.17,0,0,0,0-.07l0,0,0,0a.13.13,0,0,1,0-.06.14.14,0,0,0,0,0l0,0,0,0h-.24l-.09,0-.1,0-.12,0-.13,0-.11,0-.1,0-.11-.06,0,0h-.27a0,0,0,0,1,0,0l0-.07,0-.07A.09.09,0,0,0,24,31H23.9a.06.06,0,0,1,0,0,.25.25,0,0,1,0-.09.28.28,0,0,1,0-.11.17.17,0,0,1,0-.08l.1-.09.16-.11.15-.12.09-.08.08-.06.12,0h.3v0a.39.39,0,0,1,0-.06V30l0-.07v0h0v0A.1.1,0,0,0,25,30l.07.05,0,0s0,0,0,.06l-.05.05s0,0,0,0h.16l.08,0,.06,0h0l0,0,.06,0h.13l0,.06,0,.05,0,0h0l.07,0,.07,0a.07.07,0,0,0,0-.06s0,0-.06-.07l-.11-.05-.09,0-.08,0-.07-.06,0,0,0,0h-.23l0,0H25v0a0,0,0,0,1,0,0l0,0h.41l.05,0,.06,0,0,0h.05l.07,0,.06,0a.08.08,0,0,0,0-.07.16.16,0,0,0,0-.07l-.06,0-.06,0,0,0a0,0,0,0,1,0,0l0,0,.05,0,.05,0h.33v0a.31.31,0,0,0,0,0V29.2h0l0,0a.18.18,0,0,1,0,0,.13.13,0,0,0,0,0l0,0h.19l0,0a.05.05,0,0,1,0,0,.19.19,0,0,1,0,.07l0,.07,0,0,0,0,0,0s0,0,0,0h.3l0,0,0-.06,0-.06v0h.13l.05,0,.06,0s0,0,0,0,0,0-.07,0l-.1,0-.07,0,0,0,0,0,0,0,0,0,0,0H26.2l0,0,0,0a.15.15,0,0,0,0,.06.45.45,0,0,0,0,.08.22.22,0,0,0,0,.07s0,0,0,0h0l0,0h.1l.05,0h.5l0,0,0,0,0,0,0,0h.1l0,0,0,0,0,0h.18l.07.06,0,0h.27v-.05l0,0,.05,0h0l.06,0,.06,0,0,0h0v0s0,0,0-.07a.35.35,0,0,0,0-.07.2.2,0,0,0,0-.06L28,30.12,28,30.07l-.08,0-.07,0,0,0,0,0v0a.06.06,0,0,1,0,0l0,0h.1l.07,0,.07,0,.06,0,.05,0,0,0,0,0h.1l.06,0,.05,0,0,0,0,0,0,0,0-.05,0,0v0h-.06l-.13,0-.14,0a.18.18,0,0,1-.08,0l-.05-.05-.08,0-.08,0h-.24l0,0,0,0,0-.1,0-.09,0-.07,0,0-.11,0-.2,0-.2,0L27,29l-.09,0-.13,0-.14-.05-.11,0-.09-.05-.1,0-.09,0h-.18l-.15,0-.16,0h-.53s0,0,0,0l0,.06a.11.11,0,0,1,0,.07.1.1,0,0,1-.08,0H25a.06.06,0,0,1,0,0v0l0-.07a.25.25,0,0,0,0-.09.13.13,0,0,0,0-.06l0,0h-.2l-.13.06-.13.05-.08.05a0,0,0,0,0,0,.06.18.18,0,0,1,0,.06s0,0,0,.06a.14.14,0,0,0,0,.06.19.19,0,0,0,.06.06l.07,0,.06,0,.06,0h.45v0a.49.49,0,0,1,0,.06l0,.06a.08.08,0,0,1,0,0l0,0-.05,0,0,0a.09.09,0,0,0,0,0l0,0,0,0,0,0h-.05a.19.19,0,0,1,0,0,.5.5,0,0,0,0-.06.2.2,0,0,0,0-.07.1.1,0,0,0,0-.06l0,0,0,0h-.12l0,0,0,0,0,0h-.07v0l0,0,0-.07-.06-.06-.06,0,0,0,0,0,0-.05-.05-.06L24,29l0,0h-.16l0,0v0a.16.16,0,0,0,0,0v.05l0,.06,0,.08,0,.1a.75.75,0,0,1,0,.11.24.24,0,0,1,0,.09.05.05,0,0,1,0,0h-.13l-.05,0h-.07l0,0,0,0a.36.36,0,0,1,0-.06s0,0,0-.07v-.07a.37.37,0,0,1,0-.05.07.07,0,0,1,0,0h-.33l0,0a0,0,0,0,0,0,0l0,0a.15.15,0,0,1,.07,0,.12.12,0,0,1,0,.07.11.11,0,0,1,0,.07.1.1,0,0,1-.06,0h-1l0,0a.06.06,0,0,1,0-.05l0,0,.07,0h.21l.11,0,.1,0a.22.22,0,0,0,.08-.07.09.09,0,0,0,0-.09.09.09,0,0,0-.06-.05l-.09,0h-.16l-.06,0-.07,0L22.44,29a.1.1,0,0,1,0-.08.13.13,0,0,1,0-.07l0-.06a0,0,0,0,0,0,0H22a.06.06,0,0,0,0,0,.36.36,0,0,0,0,.09L22,29l0,.1s0,0,0,0h0L22,29l0-.06,0-.06,0-.06,0,0,0,0h-.64l0,0-.07,0-.09,0-.07,0-.06,0-.07,0,0,0,0,0,0,0h-.11m3.42.05h0l-.08,0-.1.05-.09.06s0,0,0,.05v0l0,0h.46l0,0a.09.09,0,0,0,0,0,.07.07,0,0,0,0,0l0,0h0l0,0,0,0h0m-.71.09h-.52a.06.06,0,0,0,0,0,.11.11,0,0,0,0,.06l0,0,.05,0h.26l0,.05,0,.07,0,.07a.1.1,0,0,0,.07,0h.06l.08-.06,0,0,0,0,0,0s0,0,0,0a.27.27,0,0,0,0-.07l0-.08,0-.05H23.3m10.59,1h-.08l0,0,0,0a.07.07,0,0,0,0,0,.23.23,0,0,0,0,.07l0,.08,0,.06,0,0h.26l0,0,0,0,0,0,0,0,0,0h.14l.1,0,.08,0,.06,0,0,0,.05,0,.09,0H35l0,0,.05-.06,0-.07a0,0,0,0,0,0-.06l-.06,0-.08,0-.08,0h-.14l-.06,0-.08,0h-.43l-.05,0-.07,0h-.16m-8.43.64H25.4l0,0a0,0,0,0,0,0,0l0,0h.15a0,0,0,0,0,0,0l0,0,0,0h0m.42.11h0l-.05,0a0,0,0,0,0,0,0l0,0h.09l0,0a0,0,0,0,0,0,0l0,0h0m-12.1.43h-.1l-.06,0s0,0,0,0l0,0,.05,0h0l0,0,0,0a.06.06,0,0,0,0,0s0,0,0,0m22.93-.06h0l0,0,0,0,0,0h-.21a.1.1,0,0,0-.05,0,.12.12,0,0,0,0,.06.24.24,0,0,0,0,.07l0,.06,0,.06.06.07.07.07.08.05.11,0,.11,0,.07,0s0,0,0,0l-.08.06-.09.07-.08.08,0,.07a.06.06,0,0,0,0,.06l.07,0,.08,0h0l0,0a.08.08,0,0,0,0,0,0,0,0,0,0,0,0h0l0,0,0,0,0,0,.06,0H37l.11,0,.11,0h.09l.08,0L37.5,32l.06-.08a.12.12,0,0,0,0-.07.22.22,0,0,0,0-.08l-.06-.08-.07-.07-.08-.05-.08-.07-.08-.1-.07-.1L37,31.24a.05.05,0,0,1,0-.05.32.32,0,0,1,0-.07.3.3,0,0,0,0-.08A.1.1,0,0,0,37,31L37,30.91l-.06,0-.06,0-.07,0h-.07m-.46.52h-.05l-.07,0,0,0,0,0,0,0h-.06l0,0,0,0a.09.09,0,0,0,0,.06l0,.06,0,.05a.07.07,0,0,1,0,0l0,0a.05.05,0,0,0,0,0,.14.14,0,0,0,0,.07l0,.06L36,32h.09l.07,0,.07,0,.06,0,.07,0,.07-.05.05-.07a.17.17,0,0,0,0-.08s0-.06,0-.08a.59.59,0,0,0,0-.08l0-.06,0,0,0,0,0,0h-.09m-22.54.4a0,0,0,0,0,0,0l0,.06a.27.27,0,0,1,0,.07.09.09,0,0,1-.06,0l-.09,0-.07,0,0,0s0,0,0,0h.24l.06,0,0,0,0-.06a.66.66,0,0,0,0-.08.52.52,0,0,0,0-.08s0,0,0,0h0m-1,.29h-.14l0,0,0,0a0,0,0,0,0,0,0l.06,0,.08,0h.16l.09,0,.06,0s0,0,0,0h0l-.06,0,0,0h-.12m45.38.69h0l-.06,0,0,.06,0,.06a.18.18,0,0,0,0,0s0,0-.05,0l-.11.05a.25.25,0,0,0-.09.06,0,0,0,0,0,0,.07l0,0,0,0h.34l.13,0,.11,0,.08,0h.11l.08,0,.06,0a.07.07,0,0,0,0-.06.12.12,0,0,0,0-.07l-.08,0-.1,0h-.18l0,0,0,0,0,0,0,0h-.06m-.26.5h-.05a.13.13,0,0,0,0,.07.61.61,0,0,0,0,.11s0,.09,0,.13a.54.54,0,0,1,0,.13l-.06.11-.05.1,0,.07,0,0-.07,0-.11,0-.12.06-.09.06H56.6l0,.05-.06.05-.06.05-.05,0-.06,0-.08,0a.1.1,0,0,0-.06,0,.11.11,0,0,0,0,.09.79.79,0,0,0,0,.11l0,.1.06.07.06,0h.06l.06,0,0-.06a.23.23,0,0,0,0-.09.13.13,0,0,1,0,0v0h.25l.06,0,0,0,0-.07,0-.08h0a.1.1,0,0,0,0,0,.1.1,0,0,0,0,0l0,0,.05,0h.13l0,0,0,0a.08.08,0,0,0,0,0s0,0,0,0l.1,0,.11,0,.07,0,.06,0,.09,0,.08,0,0,0a.63.63,0,0,0,0-.08s0-.08,0-.12a.64.64,0,0,1,0-.12s0-.06,0-.06l0,0,0,0a.08.08,0,0,0,0-.06.31.31,0,0,0,0-.11l0-.11,0-.09,0-.07,0,0m-19.27.29a.11.11,0,0,0-.07,0,.21.21,0,0,0,0,.08.2.2,0,0,0,0,.09.11.11,0,0,0,0,.07l0,0h.13l0,0,0,0a.12.12,0,0,0,0-.07.18.18,0,0,0,0-.07l0-.06-.05,0m-.85.14h0l0,0,0,0a0,0,0,0,0,0,0h.13a.06.06,0,0,0,0,0v0h0m1.46.26H39.1s0,0,0,0l0,0,.05,0,.05,0,0,0,0,0,0,0,0,0h.09l0,0a.07.07,0,0,0,0,0,.12.12,0,0,0,0-.06.21.21,0,0,0,0-.08l-.06,0h-.27M55,35.85h0a.21.21,0,0,0-.12.08.49.49,0,0,0-.08.15.33.33,0,0,0,0,.14s0,.06.06.06h0a.17.17,0,0,0,.11-.07.58.58,0,0,0,.08-.15.4.4,0,0,0,0-.15s0-.07-.05-.07m-28.88.22h0l-.05,0a.06.06,0,0,0,0,0,.06.06,0,0,0,0,0l.06,0h0l.06,0a0,0,0,0,0,0,0,.07.07,0,0,0,0,0l-.07,0m-.53.28h-.09l-.12,0-.11,0h0a.12.12,0,0,0,0,0l0,0h.64l0,0,.06.05.1.06.1.06.07,0,0,0h.23a.07.07,0,0,0,0,0l-.05-.06-.07,0-.07,0h0l-.08,0-.09,0L26,36.5l-.08-.06-.08-.05-.1,0H25.6m1.53.47h-.18l-.07,0-.09.07L26.7,37l0,0h.27l0,0,0,0,.05,0h.1l.06,0,.05,0h.06l0,0,0,0h0v-.06a.21.21,0,0,0,0-.11.23.23,0,0,0-.06-.08l-.08-.05-.08,0h-.09m.65.17h0a.08.08,0,0,0-.05,0,.13.13,0,0,0,0,.07.13.13,0,0,0,0,.07.07.07,0,0,0,.06,0h0a.1.1,0,0,0,.06,0,.1.1,0,0,0,0-.07.13.13,0,0,0,0-.06.1.1,0,0,0-.07,0M55,36.82a0,0,0,0,0,0,0,.26.26,0,0,0,0,.06A.24.24,0,0,1,55,37a.17.17,0,0,1-.06.08l-.09.06-.08.06a.14.14,0,0,0,0,.07.16.16,0,0,0,0,.1.42.42,0,0,0,.08.11l.11.09.08.08s0,0,0,.06l-.07.06-.09.08-.08.09a.24.24,0,0,0,0,.09h0l.07,0,.11-.09L55,37.8l.08-.09a.19.19,0,0,1,.08-.06l.09,0h.08a.07.07,0,0,0,.05,0l0,0v0h-.08l-.08,0-.09,0H55v0a.09.09,0,0,1,0,0v-.06a.29.29,0,0,1,.07-.12l.08-.07.06-.06a.12.12,0,0,0,0-.09.29.29,0,0,0,0-.1l-.06-.06-.06,0h0m-28.83.32h0a.08.08,0,0,0-.05,0,.13.13,0,0,0,0,.07.13.13,0,0,0,0,.07.07.07,0,0,0,.06,0h0a.1.1,0,0,0,.06,0,.1.1,0,0,0,0-.07.13.13,0,0,0,0-.06.09.09,0,0,0-.06,0m29.35.63h0l0,0,0,0,0,0a.22.22,0,0,0,0,0,.09.09,0,0,0,0,0l0,0h.08a.18.18,0,0,0,.12,0,.11.11,0,0,0,0-.09.15.15,0,0,0,0-.09.17.17,0,0,0-.11,0h0m-.37.19h0l0,0a.35.35,0,0,0,0,.09.15.15,0,0,0,0,.08.06.06,0,0,0,.06,0h.33v0l0-.06-.06-.08L55.25,38l-.09,0m-3.53.24a.08.08,0,0,0-.06,0,.2.2,0,0,0,0,.08.38.38,0,0,0,0,.09.16.16,0,0,0,0,.07l0,0,.05,0,.06.06a.51.51,0,0,1,.05.13,1.78,1.78,0,0,0,.05.18l.07.16.06.14,0,.09.06.07.09.08.1.07.08.06h.1l0,0a.09.09,0,0,0,0,0,.09.09,0,0,0,0,0l0-.06,0-.07,0-.08a.21.21,0,0,1,0-.07l0-.08,0-.09-.05-.11-.07-.11-.07-.1L52,38.63,52,38.57l-.05-.07-.07-.09-.09-.1-.08-.08,0,0M49,38.29h0a.16.16,0,0,0-.05.09.7.7,0,0,0,0,.17.61.61,0,0,0,0,.17.14.14,0,0,0,.07.1h0a.13.13,0,0,0,.08,0,.27.27,0,0,0,.06-.08.32.32,0,0,0,0-.09.11.11,0,0,0,0-.07.24.24,0,0,1,0-.07l0-.09a.3.3,0,0,0,0-.08.07.07,0,0,0-.05,0m6.61,0-.07.08,0,.05,0,0h-.11l0,0h-.05l-.09,0-.08.06-.05.06a.06.06,0,0,0,0,.06s0,0,.07,0h.23a.12.12,0,0,1,.08.06l0,.05,0,0,0,0h.11l.09,0,.08-.08a.29.29,0,0,0,0-.09.13.13,0,0,0,0-.08l0-.07-.07-.07-.06-.06,0,0m-1.22.39h0l-.06,0,0,0a.11.11,0,0,0,0,.05.14.14,0,0,0,0,.07l0,.05a0,0,0,0,1,0,0h-.12a.29.29,0,0,0-.14,0,.24.24,0,0,0-.08.07l0,.08,0,.06,0,0,0,0-.05,0-.07,0-.06,0,0,.05,0,.06,0,.06h-.09l0,0,0,0h-.1a.12.12,0,0,0,0,.07.64.64,0,0,0,0,.13s0,.1,0,.15l.06.16a.58.58,0,0,0,.09.14l.11.11.1.07.07,0h.59l0,0a.06.06,0,0,0,0,0s0-.06,0-.1a.69.69,0,0,1,0-.11.4.4,0,0,1,0-.11.29.29,0,0,1,.07-.1l.09-.08.08-.08a.2.2,0,0,0,0-.09.21.21,0,0,0,0-.11l-.05-.12,0-.1a.18.18,0,0,1,0-.08.09.09,0,0,1,0-.06l.07-.05.06,0,0,0a.06.06,0,0,0,0,0h-.15l0,0a.3.3,0,0,1,0-.08.72.72,0,0,1,0-.13h0m-3.18.25h0s0,0,0,.06a.43.43,0,0,0,.09.11l.12.11.08.07.07.07.13.13.12.15a.27.27,0,0,1,.05.13.42.42,0,0,0,0,.14l.08.17.09.15.07.09.09.06.13.09.13.11a.33.33,0,0,1,.08.09l0,0,0,0,0,0h.05l0,0v0a.2.2,0,0,0,0,0s0-.07,0-.11,0-.07,0-.11a.62.62,0,0,1,0-.1l0-.07a.16.16,0,0,0,0-.06.14.14,0,0,0,0-.06.08.08,0,0,0,0,0l-.05,0h0a.12.12,0,0,1-.07,0l-.08-.07-.09-.09-.1-.09-.11-.08-.11-.08-.1-.09-.11-.11-.12-.12-.12-.1-.11-.08L51.46,39,51.39,39l-.08,0-.07,0h-.06m4.91.47a.14.14,0,0,0-.1.07.66.66,0,0,0-.08.16.49.49,0,0,0,0,.16s0,.08.05.09h0a.13.13,0,0,0,.1-.07.57.57,0,0,0,.07-.16.6.6,0,0,0,0-.16s0-.08,0-.09h0m-.56.14h-.08l-.14,0-.14,0-.08,0h-.26a.15.15,0,0,0,0,.06.07.07,0,0,0,0,.05.08.08,0,0,0,0,0h.23l.15,0,.13,0h.08l0,0,0-.06,0-.06s0,0,0,0m1,.22h-.07l0,0,0,0-.06.06s0,0,0,0l0,0,.12,0,.13,0,.07,0s0,0,0,0a.16.16,0,0,1,0,.06l-.06.08,0,.08a.12.12,0,0,0,0,.06,0,0,0,0,0,0,0h.33a.13.13,0,0,1,0,0,0,0,0,0,0,0,0l.05,0,.13,0,.15,0,.1,0,.06.05,0,0,.05.06.05.07a.17.17,0,0,1,0,.07s0,0,0,0l-.08,0-.06,0,0,0a0,0,0,0,0,0,0h.32l0,.06.06.09.08.09a.15.15,0,0,0,.09,0h0a.14.14,0,0,0,.09,0,.44.44,0,0,0,.07-.09l.06-.1.05-.08,0,0,0,0h.21l0,0,0,0a.42.42,0,0,0,0,.09l0,.08.07.08.1.07.08,0,.08,0,.07,0h.1a.22.22,0,0,0,0-.08.72.72,0,0,0,0-.11.55.55,0,0,0-.06-.1A.18.18,0,0,0,59,41L59,41l-.09-.1-.07-.11a.22.22,0,0,1,0-.09.08.08,0,0,0,0-.06l-.06,0-.07,0-.07,0-.06-.07-.06-.09-.09-.08a.32.32,0,0,0-.12-.05l-.12,0-.1,0-.1-.06L57.77,40l-.1,0-.12,0h-.43l0,0h0l0,0,0,0-.06,0-.11,0h-.09l-.07,0a.08.08,0,0,1,0,0l0,0,0,0,0,0h0m-1.81.1,0,0,0,0v.15a.42.42,0,0,1,0,.09l0,.08a.12.12,0,0,0,0,.07.08.08,0,0,0,0,.05h.07l0,0,0,0,0,0,0,0,0,0,0,0H55a.17.17,0,0,1,0,.06.49.49,0,0,1,0,.05.22.22,0,0,0,0,.06l0,.08.06.06.07,0h.12v-.05s0-.07,0-.12a.68.68,0,0,0,0-.13.22.22,0,0,0-.08-.09L55,40.12l-.05,0s0,0,0,0h.23l.05,0a.07.07,0,0,0,0,0,.08.08,0,0,0,0,0l0,0h-.41l-.05,0,0,0h0m-2,.81h-.06l0,0a.15.15,0,0,0,0,.08.14.14,0,0,0,0,.07l0,.05,0,0h.42l.05,0,0,0h0l.06.05.06,0,.06,0H54v0A.09.09,0,0,0,54,41l-.05-.06-.07,0-.06,0h-.08l-.13,0-.11,0h0l0,0,0,0,0,0,0,0h0l-.1,0H52.9a.09.09,0,0,1-.06,0l0,0,0,0,0,0h0m2.83.32h-.07l0,0-.07.08-.07.08-.05.08a.12.12,0,0,0,0,.07v0h0l.07,0,.07,0,.06,0,0,0h0l.07,0,.07,0a.08.08,0,0,0,0-.06.09.09,0,0,0,0,0l0,0-.06,0h-.07m-.85.18h-.06l0,0v0a.08.08,0,0,0,0,0l0,0,0,0h.1l0,0a.08.08,0,0,0,0,0,.11.11,0,0,0,0,0l0,0,0,0h0m3.33.22h0a.2.2,0,0,0,0,.08,1.05,1.05,0,0,0,0,.15.84.84,0,0,0,0,.17.23.23,0,0,0,0,.13A.18.18,0,0,1,58,42a.46.46,0,0,1,0,.13,1.28,1.28,0,0,1-.05.14l-.06.13,0,0,0,0h0l-.06,0-.07,0-.07-.06-.07,0-.1-.06-.11-.05-.1-.05-.08-.06a.1.1,0,0,1,0-.09.65.65,0,0,1,.05-.12,1,1,0,0,0,.05-.12.11.11,0,0,0,0-.1l0,0h-.42l0,0,0,0-.05,0-.06,0s0,0,0,0a.43.43,0,0,0,0,.09s0,.07,0,.09v0l0,0-.06-.07-.08-.08v0h0s0,0,0,0,0,0,0,.06a.26.26,0,0,1,0,.08.2.2,0,0,1,0,.08l-.06.06,0,0,0,0,0,.07,0,0,0,0H56l0,0,0,0-.05-.05,0,0,0,0H55.7l0,0,0,0,0,0a.16.16,0,0,0-.05.06l0,.09,0,.1,0,.07-.07,0-.11,0-.11,0-.08.05a.21.21,0,0,0,0,.07l0,.1a1,1,0,0,0,0,.1s0,0,0,.06,0,0,0,0h-.1l-.12,0-.09,0,0,0H54.3l-.1,0-.14.09-.14.11-.11.08a.16.16,0,0,0-.06.08.38.38,0,0,0,0,.11.43.43,0,0,0,0,.11.16.16,0,0,0,0,.08l0,.06,0,.08a.22.22,0,0,1,0,.07,0,0,0,0,1,0,0,.08.08,0,0,0,0,0,.21.21,0,0,0,0,.09.33.33,0,0,0,0,.11.42.42,0,0,0,.08.12l.08.1a.22.22,0,0,1,0,.07.2.2,0,0,1,0,.05.26.26,0,0,0,0,.06.17.17,0,0,0,0,.05l0,0,.05.06.07.08a.09.09,0,0,1,0,.09.22.22,0,0,1-.07.08l-.1.07L54,45a.09.09,0,0,0,0,.06.24.24,0,0,0,0,.07l.06.07.06.06,0,0h.23l.06,0,.06,0,.09,0,.08-.05.08,0,.07,0h.43l0,0,.05-.08.07-.1.07-.09,0,0h.36l.07,0,.13,0,.19-.05h.2l0,0,0,0,0,0,.09,0,.1,0,.09,0,.08,0a.1.1,0,0,1,0,.06.21.21,0,0,1,0,.08l0,.08,0,.07a0,0,0,0,0,0,0H57l0,0,0,0,0,0,0-.05.06-.05.08-.06h0s0,0,0,0a.31.31,0,0,1,0,.07s0,.05,0,.08a.22.22,0,0,0,0,.08h.07v-.05h0v0a.08.08,0,0,0,0,0v0l0,0v0l0,0,.06,0,.06,0a.13.13,0,0,1,0,.08s0,.06,0,.09a.67.67,0,0,0,0,.07.19.19,0,0,0,0,.05l0,0h.05l.09,0,.1,0a.24.24,0,0,1,.08.09l0,0,0,0h.07l0,0,0,0,0,0h.12l.06,0,.06,0,0,0h0l.06,0,.08,0,.1-.06.12,0,.11,0,.05,0,0,0,0,0,0-.08,0-.11.05-.13.07-.13.09-.14.09-.17a1.1,1.1,0,0,0,.07-.18.61.61,0,0,0,0-.17c0-.05,0-.12,0-.2s0-.17,0-.26a1.85,1.85,0,0,0,0-.26.74.74,0,0,0-.08-.21l-.12-.17-.13-.16-.1-.14a.18.18,0,0,1,0-.11.08.08,0,0,0,0-.07l-.09,0-.11,0-.1-.06a.26.26,0,0,1-.07-.1.87.87,0,0,1,0-.14l0-.15a1,1,0,0,0,0-.13.58.58,0,0,0-.06-.11l-.08-.1-.09-.1-.09-.1a.64.64,0,0,1-.08-.13l-.06-.15,0-.12s0-.05,0-.05m-13.68.32a.1.1,0,0,0-.08,0,.35.35,0,0,0-.06.08l-.06.1-.07.11-.09.1-.09.08-.07.05-.05,0h0l-.08,0-.09.06a.22.22,0,0,0-.07.09.17.17,0,0,0,0,.12.72.72,0,0,1,0,.15.58.58,0,0,1,0,.13.46.46,0,0,1,0,.12.25.25,0,0,1-.05.09.13.13,0,0,0,0,.1.66.66,0,0,0,0,.13l0,.14a.37.37,0,0,1,0,.13.27.27,0,0,0,0,.1.13.13,0,0,0,0,.07l.07,0,.11,0h.11l.08,0,.06-.07.06-.11,0-.13,0-.12,0-.12,0-.11a1,1,0,0,0,.05-.13l0-.15,0-.14,0-.09,0-.09a1.7,1.7,0,0,0,.06-.26.66.66,0,0,0,0-.12.91.91,0,0,0,0-.11l0-.11,0-.09a.11.11,0,0,0-.06,0h0m19.29.54a.18.18,0,0,0-.1,0l-.1.1-.08.1,0,0h.05a.28.28,0,0,0,.13,0l.12-.09a.28.28,0,0,0,.07-.1s0-.05,0-.06h0m-2.29.72s0,0,0,0l0,0,0,.06.05.07,0,0,0,0,0,0h.09l0,0v0a.12.12,0,0,0,0-.05.13.13,0,0,0,0-.06L61.61,43l-.14,0h-.09m1.41,2.23h-.05a0,0,0,0,0,0,0,.24.24,0,0,0,0,.06l0,.07,0,.05a.17.17,0,0,1,0,.06.42.42,0,0,1,0,.08s0,.06,0,.08a.26.26,0,0,1,0,.06l0,0-.07,0,0,0s0,0,0,0l.09,0H63a0,0,0,0,1,0,0L63,46l0,.06a.08.08,0,0,0,0,.05s0,0,0,0h0l.06,0,0,0,0-.06,0-.07,0-.07,0-.06,0-.05.06,0a.07.07,0,0,0,0-.05.1.1,0,0,0,0-.06l0,0,0,0h-.19l-.06,0,0,0,0,0,0-.07,0-.09,0-.08,0-.06-.05,0m-.15.86h0l0,0-.05,0-.06,0-.06,0,0,0,0,0,0,.05-.11.08-.17.1-.16.1-.13.1a.28.28,0,0,0-.08.09.12.12,0,0,0,0,.08.1.1,0,0,0,0,.06l.09,0,.13,0h.18l0,0,0,0,.05-.06.1-.11.1-.09.11-.09.12-.09a.45.45,0,0,0,.1-.11.46.46,0,0,0,0-.11.58.58,0,0,0,0-.08s0,0,0,0l0,0-.05-.05L62.68,46l0,0m-3.72,0h0l0,0,0,0,0,0,0,0,0,0H58.6l-.06,0-.07,0-.05,0h0s0,.06,0,.09a.12.12,0,0,0,0,.06l.07.06a.09.09,0,0,1,0,.09.09.09,0,0,0,0,0l0,0h.24a.18.18,0,0,0,.06-.06l.07-.12.05-.13a.19.19,0,0,0,0-.09h0m-17-5.88h0a.09.09,0,0,1-.06-.06.36.36,0,0,1,0-.12.81.81,0,0,1,0-.12.35.35,0,0,1,0-.08l0,0,0,0h.21a.16.16,0,0,1,0,.11.61.61,0,0,1-.06.14.55.55,0,0,1-.09.12.15.15,0,0,1-.09.05M26.17,33.06h.3s0,0,0,0l0,0-.06,0-.08,0-.08,0-.05,0,0,0,0,0-.05,0-.08,0-.08,0-.07.05,0,0,0,0,0,0h-.09v0a0,0,0,0,1,0,0h0v0l0,0,.08,0,.08,0h0l0,0,.09-.1.09-.1.07,0h0m15.17.5h0v0l0-.08a.33.33,0,0,0,0-.09s0,0,0-.05a0,0,0,0,1,0,0,.15.15,0,0,1,0-.07l0-.07.06-.06.06-.05.06-.07.06-.09.06-.1,0-.06.05,0,0,0h.09l.06,0,.07.09.06.1,0,.08h.09l0,0,0,0,0,0,0,0,0,0,0,0a.14.14,0,0,0,0-.05.08.08,0,0,1,0,0l.05,0,.08,0h.09s0,0,.05,0,0,0,0,0l0,0-.07,0,0,0s0,0,0,0l.05,0,.09,0,.11.05L43,33l.11.08.11.07a.33.33,0,0,1,.09.08.26.26,0,0,1,0,.09.14.14,0,0,1,0,.08.08.08,0,0,1-.05,0l-.08,0h-.42l-.09,0-.09,0-.11,0-.11,0h-.23l-.08,0-.06,0,0,0,0,0,0,0h-.37l-.06,0-.06,0h0m-16.41,0h0a.07.07,0,0,1-.06,0,.22.22,0,0,1,0-.09.65.65,0,0,1,0-.1v-.08a.38.38,0,0,0,0-.08v-.1a.73.73,0,0,1,0-.1.23.23,0,0,1,0-.09.2.2,0,0,1,.05-.07l.07,0,.08,0h.7a.12.12,0,0,1,.07,0l.06.08a.31.31,0,0,1,0,.08s0,0,0,0h-.06l0,0,0,0a.14.14,0,0,1,0-.06h0l0,0,0,.08a.51.51,0,0,0,0,.09.16.16,0,0,0,0,.07.06.06,0,0,1,0,.06l0,.05-.06,0,0,0,0,0,0-.05a.37.37,0,0,1,0-.07.41.41,0,0,1,0-.08.23.23,0,0,0,0-.08l0-.07-.06,0-.08,0h0l-.09,0-.07,0L25.1,33l0,0a.12.12,0,0,0,0,.06.59.59,0,0,0,0,.09s0,.07,0,.09a.33.33,0,0,0,0,.06.25.25,0,0,1,0,.06.28.28,0,0,1,0,.07.16.16,0,0,1,0,.06.08.08,0,0,1-.06,0m19.51-.93h.08l.07-.05.07,0,.06,0,0,0h.1l.09,0,.08,0,0,0,0,.06.06.07,0,.06s0,0,0,0l0,0h-.29l0,0h-.13l-.06,0,0,.06a.19.19,0,0,0,0,.07.3.3,0,0,0,0,0,.07.07,0,0,0,0,0h.12l0,0,0,.05,0,.06,0,.06,0,0,.05,0,.05,0,0,0a0,0,0,0,1,0,.05l-.05.06a.18.18,0,0,0,0,.06,0,0,0,0,0,0,.06.25.25,0,0,1,.06.1.87.87,0,0,1,0,.14s0,.1,0,.14l0,.1s0,0,0,0l-.08,0-.11,0H44.8l-.09,0-.12,0-.12,0-.09,0a.11.11,0,0,1-.05-.06.45.45,0,0,1,0-.12.29.29,0,0,1,0-.11s0-.05.05-.05h.1l0,0,.05,0,.07-.07s0-.06,0-.08a.17.17,0,0,0-.08-.06l-.12,0-.1,0a.19.19,0,0,1-.08-.06l-.09-.11L44.08,33,44,33a.16.16,0,0,1,0-.08.22.22,0,0,1,0-.09.31.31,0,0,1,.05-.09l.09-.08h.29m-20,0h-.07l0,0a0,0,0,0,1,0,0,.12.12,0,0,1,0-.06l0,0,.06,0,.1,0,.1-.05.09-.06.09-.05.07,0h0l.06.06.08.06.08,0,.07,0a0,0,0,0,1,0,0,.13.13,0,0,1,0,.06l0,.06,0,0h-.33l0,0,0,0h-.08l-.06,0-.06,0-.06,0h-.1m-4.61.06,0,0,0-.06,0-.07v-.06a.06.06,0,0,0,0,0l-.05,0-.06,0-.05,0,0,0,0-.07,0-.06s0,0,0,0h0l0,0,0,0,0,0h0l0,0,.08.06.08.07.05.05a.13.13,0,0,1,0,.05.24.24,0,0,1,0,.07.15.15,0,0,1,0,.06l0,0h0M42,30.55h-.09l-.09,0-.06-.05a.08.08,0,0,1,0-.06l0,0,0,0h.06l.09,0,.09.05a.22.22,0,0,1,.06.07.05.05,0,0,1,0,.06v0H42m-10.23-4.4h-.11l-.1,0-.1,0H31l-.17,0-.15.07-.12.06-.12,0-.09,0h0l-.06.09-.06.1-.06.08a.08.08,0,0,1-.05,0h0l0-.05,0-.06,0-.05,0,0h0a.12.12,0,0,0,0,.07.38.38,0,0,0,0,.09.71.71,0,0,1,0,.1.22.22,0,0,1,0,.1l0,0-.06,0-.07,0h-.24l0,0-.06,0h-.34l-.22,0-.19.05a.38.38,0,0,0-.12.07.06.06,0,0,0,0,.08.06.06,0,0,1,0,.05l0,0-.05,0h-.16l-.07,0-.08,0-.06.06a.09.09,0,0,0,0,.06.25.25,0,0,1,0,.14l0,0-.07,0h-.15l-.06,0,0,0a.17.17,0,0,0,0,.06.09.09,0,0,1,0,.06l-.1,0-.1,0H27l-.06,0s0,0,0,.05l0,0h.21l.08,0,.07.07.06.07,0,0h.12l0,0,0,0,0-.06,0-.08,0-.07v0a.37.37,0,0,0,0,.06.23.23,0,0,0,0,.07.1.1,0,0,0,0,0h.46l.15,0,.15,0,.11,0,.09,0,.12,0,.11,0a.23.23,0,0,1,.08.07.46.46,0,0,1,0,.13c0,.05,0,.11,0,.17l0,.16a.24.24,0,0,0,0,.09h0l0,0L29.3,29l0-.06,0,0h.16l0,0,0,0,0,.06.05.08,0,.07a.12.12,0,0,1,0,.06v.08l0,0h0l0,0h0l0,0a.05.05,0,0,1,0,0l0-.06a.34.34,0,0,0,0-.07.14.14,0,0,0,0-.06,0,0,0,0,0,0,0h-.22l0,0,0,.05a.25.25,0,0,0,0,.1.22.22,0,0,0,0,.08.15.15,0,0,0,0,.06l0,0h.15l0,0,0,0,0,.05,0,.06a.09.09,0,0,0,0,.05.27.27,0,0,0,0,.07l0,.09,0,.09,0,.06,0,0,.07,0,.07,0h0s0,0,0,0h0l0,0a0,0,0,0,0,0,0l0,.06,0,.07,0,.07.05,0,.08,0,.11.07.1.08.05.06h.09l.06,0,.05,0,0,0h0s0,0,0,0l0,.06a.18.18,0,0,0,0,.06.08.08,0,0,0,.06,0h.09l0,0,0,0,.05,0,0-.06a.22.22,0,0,0,0-.07.38.38,0,0,0,0-.07s0,0,0-.06v0a.13.13,0,0,1,0,0l0,0h.16l0,0,0,0a.12.12,0,0,0,0,0,.38.38,0,0,0,0-.07.32.32,0,0,1,0-.07.07.07,0,0,1,0-.05l.08,0,.1,0,.09,0,.07,0,.07,0h.39l0-.06.06-.08.07-.08.07,0h.2l.14,0,.15,0,.14,0,.13-.05.11,0,.08,0h.19a0,0,0,0,0,0,0l0,0-.05-.06-.07,0-.08,0a0,0,0,0,1,0,0A.12.12,0,0,1,33,29l0-.07,0,0h0l.06,0,.05,0a.07.07,0,0,1,0,.05.16.16,0,0,0,0,.06.16.16,0,0,0,0,.06l0,0,.07,0h.05l.08,0a.13.13,0,0,0,0-.06.13.13,0,0,0,0-.06.09.09,0,0,0,0,0l0,0,0,0,0-.05,0,0a.13.13,0,0,1,0,0,.08.08,0,0,1,0,0l0,0,.09,0h.33l0,0a.08.08,0,0,0,0,0s0-.07,0-.1a.8.8,0,0,1,0-.1.56.56,0,0,1,0-.09.26.26,0,0,1,0-.07l0-.06,0,0,0,0s0,0,0,0H34l0,0,0,0a.19.19,0,0,1,0-.09.21.21,0,0,1,0-.08l0-.06,0,0,.09-.08.15-.14.17-.14a.59.59,0,0,1,.15-.08.37.37,0,0,0,.12-.06.38.38,0,0,0,.08-.09.16.16,0,0,0,0-.09.06.06,0,0,0,0-.06l-.06,0-.07,0h-.28l-.06,0-.05,0-.1.09-.08.07-.08.05-.1,0h-.07a.21.21,0,0,1-.11-.06.42.42,0,0,1-.07-.1l-.06-.12-.06-.1a.35.35,0,0,1-.07-.14,1.35,1.35,0,0,1,0-.16.48.48,0,0,0,0-.13s0-.05-.07-.05h0l-.09,0h-.36l-.09,0-.08,0-.07,0h-.26l-.08,0-.06,0,0,0h-.43l-.13,0-.09,0h.43l.15,0,.17,0,.16,0,.13,0,.06,0a0,0,0,0,0,0,0l0,0h0l-.16,0-.18,0-.18,0-.18,0h0"/></g><path class="cls-5" d="M68.13,51.81a.8.8,0,0,1-.66-.37,1.52,1.52,0,0,1-.27-.9V48a1.5,1.5,0,0,1,.27-.89.79.79,0,0,1,.66-.38h3.69a.79.79,0,0,1,.65.38,1.48,1.48,0,0,1,.27.89h-.46a.73.73,0,0,0-.14-.44.39.39,0,0,0-.32-.19H68.13a.4.4,0,0,0-.33.19.76.76,0,0,0-.13.44v2.54a.78.78,0,0,0,.13.46.4.4,0,0,0,.33.18h3.69a.4.4,0,0,0,.32-.18.76.76,0,0,0,.14-.46v-1H70V49h2.77v1.59a1.5,1.5,0,0,1-.27.9.8.8,0,0,1-.65.37Z"/><path class="cls-5" d="M73.66,51.81V46.74h4.61a.79.79,0,0,1,.65.38,1.47,1.47,0,0,1,.28.89,1.49,1.49,0,0,1-.28.9.89.89,0,0,1-.36.31l.63,2.6h-.46l-.62-2.54h-4v2.54Zm4.61-3.17a.4.4,0,0,0,.32-.18.75.75,0,0,0,.14-.46.73.73,0,0,0-.14-.44.39.39,0,0,0-.32-.19H74.12v1.27Z"/><path class="cls-5" d="M81,51.81a.8.8,0,0,1-.66-.37,1.52,1.52,0,0,1-.27-.9V48a1.5,1.5,0,0,1,.27-.89.8.8,0,0,1,.66-.38h3.69a.79.79,0,0,1,.65.38,1.47,1.47,0,0,1,.27.89v2.54a1.49,1.49,0,0,1-.27.9.79.79,0,0,1-.65.37Zm3.69-.63A.4.4,0,0,0,85,51a.76.76,0,0,0,.14-.46V48a.74.74,0,0,0-.14-.44.39.39,0,0,0-.32-.19H81a.4.4,0,0,0-.33.19.76.76,0,0,0-.13.44v2.54a.79.79,0,0,0,.13.46.41.41,0,0,0,.33.18Z"/><path class="cls-5" d="M87.48,51.81a.8.8,0,0,1-.66-.37,1.52,1.52,0,0,1-.27-.9V46.74H87v3.81a.78.78,0,0,0,.13.46.4.4,0,0,0,.33.18h3.69a.4.4,0,0,0,.32-.18.76.76,0,0,0,.14-.46V46.74h.46v3.81a1.5,1.5,0,0,1-.27.9.8.8,0,0,1-.65.37Z"/><path class="cls-5" d="M93,51.81V46.74h4.61a.79.79,0,0,1,.65.38,1.47,1.47,0,0,1,.28.89,1.49,1.49,0,0,1-.28.9.79.79,0,0,1-.65.37H93.47v2.54Zm4.61-3.17a.4.4,0,0,0,.32-.18.75.75,0,0,0,.14-.46.73.73,0,0,0-.14-.44.39.39,0,0,0-.32-.19H93.47v1.27Z"/><path class="cls-5" d="M105,51.81a.8.8,0,0,1-.66-.37,1.52,1.52,0,0,1-.27-.9h.46a.78.78,0,0,0,.13.46.4.4,0,0,0,.33.18h3.69A.4.4,0,0,0,109,51a.75.75,0,0,0,.14-.46.74.74,0,0,0-.14-.45.39.39,0,0,0-.32-.19L105,49.27a.8.8,0,0,1-.66-.37,1.52,1.52,0,0,1-.27-.9,1.5,1.5,0,0,1,.27-.89.8.8,0,0,1,.66-.38h3.69a.79.79,0,0,1,.65.38,1.47,1.47,0,0,1,.27.89h-.46a.73.73,0,0,0-.14-.44.39.39,0,0,0-.32-.19H105a.4.4,0,0,0-.33.19.76.76,0,0,0-.13.44.78.78,0,0,0,.13.46.4.4,0,0,0,.33.18l3.69.63a.79.79,0,0,1,.65.38,1.47,1.47,0,0,1,.27.89,1.49,1.49,0,0,1-.27.9.8.8,0,0,1-.65.37Z"/><path class="cls-5" d="M110.52,51.81,113,46.74h.61l2.46,5.07h-.62l-.61-1.27h-3.08l-.61,1.27Zm4-1.9-1.23-2.54-1.23,2.54Z"/><path class="cls-5" d="M117,51.81V46.74h4.61a.79.79,0,0,1,.65.38,1.47,1.47,0,0,1,.28.89,1.49,1.49,0,0,1-.28.9.89.89,0,0,1-.36.31l.63,2.6H122l-.62-2.54h-4v2.54Zm4.61-3.17a.4.4,0,0,0,.32-.18A.75.75,0,0,0,122,48a.74.74,0,0,0-.14-.44.4.4,0,0,0-.32-.19h-4.15v1.27Z"/><polygon class="cls-5" points="123.43 51.81 123.43 46.74 123.89 46.74 123.89 51.18 128.96 51.18 128.96 51.81 123.43 51.81"/><polygon class="cls-6" points="14.65 42.27 12.7 42.27 12.7 24.5 15.13 24.5 19.39 36.2 23.66 24.5 26.02 24.5 26.02 42.27 23.8 42.27 23.8 30.94 23.86 29.38 23.8 29.38 23.28 30.94 20.42 38.72 18.01 38.72 15.12 30.94 14.65 29.38 14.58 29.38 14.65 30.94 14.65 42.27"/><path class="cls-6" d="M32,47H28.68L37,21.06h3.56L48.88,47H45.19l-1.85-5.7H33.86Zm2.66-8.29h7.86l-3.25-9.84-.76-2.6-.68,2.6Z"/><path class="cls-6" d="M53.59,34.42v7.24H51.29v-17H56a9.49,9.49,0,0,1,3.41.46,3.63,3.63,0,0,1,1.7,1.38,3.56,3.56,0,0,1,.6,2,5.29,5.29,0,0,1-.4,2,6.07,6.07,0,0,1-1.1,1.78,7.32,7.32,0,0,1-2,1.49l5.14,8H60.59L55.9,34.42Zm0-1.71h3.23a5.69,5.69,0,0,0,1.62-1.16,4.39,4.39,0,0,0,.8-1.26,3.49,3.49,0,0,0,.27-1.33A2.29,2.29,0,0,0,58.61,27a5.58,5.58,0,0,0-3.29-.71H53.59Z"/><polygon class="cls-6" points="69.24 41.66 69.24 26.5 63.93 26.5 63.93 24.62 76.88 24.62 76.88 26.5 71.55 26.5 71.55 41.66 69.24 41.66"/><polygon class="cls-6" points="87.94 41.66 85.81 41.66 85.81 24.62 87.9 24.62 94.17 35.96 94.85 37.66 94.91 37.66 94.85 35.96 94.85 24.62 96.98 24.62 96.98 41.66 94.85 41.66 88.75 30.5 87.9 28.71 87.94 30.48 87.94 41.66"/><rect class="cls-6" x="79.22" y="24.7" width="2.22" height="16.1"/><path class="cls-6" d="M106.44,41.3V39.21a12.14,12.14,0,0,0,5,1.25,4.77,4.77,0,0,0,1.79-.34,2.73,2.73,0,0,0,1.3-1,2.45,2.45,0,0,0,.44-1.41,2.64,2.64,0,0,0-.61-1.67,7.74,7.74,0,0,0-2.27-1.71l-1.17-.64-1.18-.65q-3.11-1.77-3.11-4.39A4.28,4.28,0,0,1,108,25.42a6.15,6.15,0,0,1,4.33-1.31,12.6,12.6,0,0,1,3.66.53v1.9a10.83,10.83,0,0,0-3.8-.73,3.64,3.64,0,0,0-2.38.75,2.26,2.26,0,0,0-.91,1.8,2.34,2.34,0,0,0,.7,1.74,7.66,7.66,0,0,0,1.78,1.27l.89.51,1.1.65.95.52q2.91,1.71,2.91,4.31a4.51,4.51,0,0,1-1.5,3.4q-1.5,1.41-4.8,1.41a11.4,11.4,0,0,1-2-.17,17.55,17.55,0,0,1-2.51-.71"/><polygon class="cls-6" points="102.46 29.22 101.08 29.22 102.27 23.87 103.44 23.87 102.46 29.22"/><path class="cls-7" d="M38.62,63.53A25.18,25.18,0,0,1,14.44,45.17l.79-.22A24.29,24.29,0,0,0,62,44.87l.79.22A25.17,25.17,0,0,1,38.62,63.53"/><path class="cls-7" d="M49.09,16.5a24.07,24.07,0,0,0-8-2.24l.08-.82a24.89,24.89,0,0,1,8.26,2.32Z"/><path class="cls-7" d="M17.84,25.86l-.7-.43A25.09,25.09,0,0,1,37.31,13.35l0,.82A24.27,24.27,0,0,0,17.84,25.86"/></g></g></svg>