<svg xmlns="http://www.w3.org/2000/svg" xmlns:xlink="http://www.w3.org/1999/xlink" viewBox="0 0 33.8 38.03"><defs><style>.cls-1{fill:none;}.cls-2{clip-path:url(#clip-path);}.cls-3{fill:#113192;}.cls-4,.cls-5{fill:#fff;}.cls-4{fill-rule:evenodd;}</style><clipPath id="clip-path" transform="translate(-3.61 -1.11)"><rect class="cls-1" width="40.47" height="40.47"/></clipPath></defs><title>logo-8</title><g id="Layer_2" data-name="Layer 2"><g id="Layer_1-2" data-name="Layer 1"><g class="cls-2"><rect class="cls-3" width="33.8" height="38.03"/><path class="cls-4" d="M6.88,3.47v.72h-.6a.3.3,0,0,0-.17,0,.15.15,0,0,0-.05.13c0,.07,0,.11.05.13a.46.46,0,0,0,.21,0h.61v.92H6.22a1.08,1.08,0,0,1-.78-.25,1,1,0,0,1-.27-.73V3.19a1,1,0,0,1,.25-.72,1,1,0,0,1,.71-.26h.8v.93H6.35c-.16,0-.24.06-.24.16a.14.14,0,0,0,.06.13.38.38,0,0,0,.2,0Zm2.7-1.26-.8,1.57.83,1.66h-1l-.38-.78-.32.78H7l.84-1.63L7,2.21H8l.36.73.29-.73Zm1.18,2.11V3.48c.18,0,.28-.07.28-.22s-.07-.2-.21-.2-.21.09-.21.28V5.44H9.7v-2a1.74,1.74,0,0,1,.06-.51,1,1,0,0,1,.2-.37,1.14,1.14,0,0,1,.41-.3,1.19,1.19,0,0,1,.5-.11,1.05,1.05,0,0,1,.79.33,1.14,1.14,0,0,1,.32.82,1.05,1.05,0,0,1-.29.77,1,1,0,0,1-.79.27Zm2.51-1.24V5.44h-.92V2.21h1.18a1.17,1.17,0,0,1,.83.28,1,1,0,0,1,.33.79,1,1,0,0,1-.41.83l.53,1.33h-1l-.44-1V3.57h.07c.19,0,.29-.09.29-.26s-.11-.23-.33-.23Zm3.49.39v.72h-.6a.3.3,0,0,0-.17,0,.15.15,0,0,0-.05.13.15.15,0,0,0,.05.13.46.46,0,0,0,.21,0h.61v.92H16.1a1.08,1.08,0,0,1-.78-.25,1,1,0,0,1-.27-.73V3.19a1,1,0,0,1,.25-.72A1,1,0,0,1,16,2.21h.8v.93h-.58c-.16,0-.24.06-.24.16a.14.14,0,0,0,.06.13.38.38,0,0,0,.2,0Zm2-1.27v.92l-.15,0a.24.24,0,0,0-.18.08.27.27,0,0,0-.08.19.56.56,0,0,0,.08.25l.07.13a1.39,1.39,0,0,1,.19.67,1.09,1.09,0,0,1-.32.8,1,1,0,0,1-.78.33,1,1,0,0,1-.44-.11V4.48a.44.44,0,0,0,.23.09.3.3,0,0,0,.2-.07.24.24,0,0,0,.08-.18A1,1,0,0,0,17.58,4a1.57,1.57,0,0,1-.21-.76,1.1,1.1,0,0,1,.31-.79,1,1,0,0,1,.74-.33,1.06,1.06,0,0,1,.37.07m1.91,0v.92l-.15,0a.24.24,0,0,0-.18.08.27.27,0,0,0-.07.19.53.53,0,0,0,.08.25l.07.13a1.38,1.38,0,0,1,.19.67,1.1,1.1,0,0,1-.32.8,1,1,0,0,1-.78.33,1,1,0,0,1-.44-.11V4.48a.44.44,0,0,0,.23.09.29.29,0,0,0,.2-.07.24.24,0,0,0,.08-.18A1,1,0,0,0,19.49,4a1.57,1.57,0,0,1-.21-.76,1.1,1.1,0,0,1,.31-.79,1,1,0,0,1,.74-.33,1.06,1.06,0,0,1,.37.07m4.94,0V4.31a1.24,1.24,0,0,1-.31.89,1.1,1.1,0,0,1-.84.33,1,1,0,0,1-.8-.32,1.38,1.38,0,0,1-.28-.92V2.21h.92V4.27c0,.2.07.3.2.3s.2-.1.2-.3V2.21Zm.49,3.23V3.35a1.23,1.23,0,0,1,.32-.88,1.1,1.1,0,0,1,.84-.33,1,1,0,0,1,.8.32,1.38,1.38,0,0,1,.28.92V5.44h-.91V3.38c0-.2-.07-.29-.2-.29s-.19.1-.19.29V5.44Zm3.7,0h-.92V2.21h.92Zm2.08-3.31a1.48,1.48,0,0,1,1.12.5,1.69,1.69,0,0,1,.47,1.19A1.68,1.68,0,0,1,33,5a1.57,1.57,0,0,1-2.29,0,1.68,1.68,0,0,1-.47-1.2,1.66,1.66,0,0,1,.48-1.2,1.56,1.56,0,0,1,1.17-.49m0,1a.63.63,0,0,0-.48.22.79.79,0,0,0,0,1,.63.63,0,0,0,.48.22.62.62,0,0,0,.48-.22.8.8,0,0,0,0-1.05.63.63,0,0,0-.48-.22m2,2.36V3.35a1.23,1.23,0,0,1,.31-.88A1.1,1.1,0,0,1,35,2.13a1,1,0,0,1,.8.32,1.38,1.38,0,0,1,.28.92V5.44h-.92V3.38c0-.2-.07-.29-.2-.29s-.19.1-.19.29V5.44Z" transform="translate(-3.61 -1.11)"/><path class="cls-4" d="M6.81,33.75V31.92H8.19v.31h-1v.4h.93v.31H7.19v.49h1v.31Zm3,0H9.41v-.67a1,1,0,0,0,0-.28.19.19,0,0,0-.08-.1.22.22,0,0,0-.12,0,.28.28,0,0,0-.17,0,.25.25,0,0,0-.1.13,1.11,1.11,0,0,0,0,.3v.6H8.54V32.43h.33v.19a.54.54,0,0,1,.44-.22.53.53,0,0,1,.21,0,.36.36,0,0,1,.15.11.42.42,0,0,1,.07.15,1.07,1.07,0,0,1,0,.23Zm.73,0L10,32.43h.37l.25.67.07.22,0-.11,0-.11.26-.67h.37l-.53,1.32Zm1-.68a.71.71,0,0,1,.09-.34.59.59,0,0,1,.25-.25.74.74,0,0,1,.36-.09.68.68,0,0,1,.5.19.66.66,0,0,1,.2.49.67.67,0,0,1-.69.69.81.81,0,0,1-.35-.08.58.58,0,0,1-.26-.24.79.79,0,0,1-.09-.38m.36,0a.43.43,0,0,0,.1.3.31.31,0,0,0,.23.1.3.3,0,0,0,.23-.1.44.44,0,0,0,.1-.3.43.43,0,0,0-.1-.3.3.3,0,0,0-.23-.1.3.3,0,0,0-.23.1.43.43,0,0,0-.1.3m1.3-1.16h.36v.32h-.36Zm0,.5h.36v1.32h-.36Zm1.45,1.32V31.92h.79a1.39,1.39,0,0,1,.43,0,.43.43,0,0,1,.22.17.51.51,0,0,1,.08.29.48.48,0,0,1-.12.34.6.6,0,0,1-.37.17.89.89,0,0,1,.2.15,2.1,2.1,0,0,1,.21.29l.23.36h-.45l-.27-.4a2.45,2.45,0,0,0-.2-.27.29.29,0,0,0-.11-.08L15,33H15v.76ZM15,32.69h.28a1.41,1.41,0,0,0,.34,0,.19.19,0,0,0,.1-.08.23.23,0,0,0,0-.14.22.22,0,0,0,0-.15.23.23,0,0,0-.14-.07H15Zm1.76.13-.32-.06a.49.49,0,0,1,.19-.28A.68.68,0,0,1,17,32.4a.89.89,0,0,1,.36.05.35.35,0,0,1,.16.14.71.71,0,0,1,0,.31v.41a1.57,1.57,0,0,0,0,.26.76.76,0,0,0,.07.18h-.35l0-.1v0a.67.67,0,0,1-.2.13.59.59,0,0,1-.22,0,.46.46,0,0,1-.33-.11.36.36,0,0,1-.12-.28.38.38,0,0,1,.05-.2.35.35,0,0,1,.15-.13,1.16,1.16,0,0,1,.28-.08,2,2,0,0,0,.35-.09v0a.18.18,0,0,0-.05-.14.31.31,0,0,0-.19,0,.21.21,0,0,0-.23.16m.48.28-.22.05a.7.7,0,0,0-.19.06.15.15,0,0,0-.07.12.17.17,0,0,0,.06.13.2.2,0,0,0,.14.05.31.31,0,0,0,.18-.06.21.21,0,0,0,.08-.11.69.69,0,0,0,0-.17Zm.69-.69h.33v.19a.49.49,0,0,1,.17-.16.49.49,0,0,1,.24-.06.52.52,0,0,1,.4.18.73.73,0,0,1,.16.5.75.75,0,0,1-.16.51.52.52,0,0,1-.4.18.48.48,0,0,1-.2,0,.72.72,0,0,1-.19-.15v.67H17.9Zm.35.64a.5.5,0,0,0,.09.33.27.27,0,0,0,.22.11.26.26,0,0,0,.21-.1.5.5,0,0,0,.08-.32.47.47,0,0,0-.08-.31.26.26,0,0,0-.21-.1.27.27,0,0,0-.22.1.43.43,0,0,0-.09.29m1.24-1.14h.35v.32h-.35Zm0,.5h.35v1.32h-.35Zm2,1.32h-.33v-.19a.53.53,0,0,1-.19.17.5.5,0,0,1-.23.06.52.52,0,0,1-.4-.18.74.74,0,0,1-.16-.51.73.73,0,0,1,.16-.51.52.52,0,0,1,.41-.17.51.51,0,0,1,.39.18v-.66h.35Zm-1-.69a.61.61,0,0,0,.06.31.27.27,0,0,0,.24.14.27.27,0,0,0,.21-.1.48.48,0,0,0,.09-.31.51.51,0,0,0-.08-.33.27.27,0,0,0-.21-.1.27.27,0,0,0-.21.1.44.44,0,0,0-.09.29m2.08.27.36.06a.59.59,0,0,1-.22.29.64.64,0,0,1-.37.1.61.61,0,0,1-.52-.23.75.75,0,0,1-.13-.45.72.72,0,0,1,.18-.51.58.58,0,0,1,.44-.19.61.61,0,0,1,.48.19.87.87,0,0,1,.16.6h-.89a.35.35,0,0,0,.09.24.27.27,0,0,0,.21.09.22.22,0,0,0,.14,0,.27.27,0,0,0,.09-.15m0-.35a.33.33,0,0,0-.08-.23.26.26,0,0,0-.38,0,.31.31,0,0,0-.08.23Zm2.6.77h-.33v-.19a.54.54,0,0,1-.2.17.51.51,0,0,1-.23.06.52.52,0,0,1-.4-.18.88.88,0,0,1,0-1,.53.53,0,0,1,.41-.17.51.51,0,0,1,.39.18v-.66h.36Zm-1-.69a.6.6,0,0,0,.06.31.27.27,0,0,0,.24.14.26.26,0,0,0,.21-.1.47.47,0,0,0,.09-.31.52.52,0,0,0-.08-.33.27.27,0,0,0-.21-.1.28.28,0,0,0-.21.1.44.44,0,0,0-.09.29m1.29-1.13h.36v.25a.85.85,0,0,1,0,.24.35.35,0,0,1-.1.16.52.52,0,0,1-.19.11l-.07-.14a.29.29,0,0,0,.15-.1.28.28,0,0,0,0-.17h-.17Zm2.41,1.82h-.41l-.16-.41h-.74l-.15.41h-.4l.72-1.82h.4ZM27.25,33,27,32.35l-.25.68Zm1.23.72h-.36V32.43h.33v.19a.58.58,0,0,1,.15-.18.28.28,0,0,1,.15,0,.45.45,0,0,1,.23.07l-.11.3a.32.32,0,0,0-.17-.06.2.2,0,0,0-.13,0,.27.27,0,0,0-.08.15,1.93,1.93,0,0,0,0,.44Zm.64.09.41,0a.14.14,0,0,0,0,.1.28.28,0,0,0,.16,0,.41.41,0,0,0,.21,0,.17.17,0,0,0,.07-.09.54.54,0,0,0,0-.16v-.19a.48.48,0,0,1-.4.21.5.5,0,0,1-.43-.22.76.76,0,0,1-.12-.44.72.72,0,0,1,.16-.51.52.52,0,0,1,.4-.18.5.5,0,0,1,.41.22v-.19h.33v1.18a1.21,1.21,0,0,1,0,.35.45.45,0,0,1-.11.18.51.51,0,0,1-.19.1,1,1,0,0,1-.3,0,.79.79,0,0,1-.48-.11.36.36,0,0,1-.14-.29v0m.32-.77a.47.47,0,0,0,.08.31.25.25,0,0,0,.2.1.28.28,0,0,0,.22-.1.43.43,0,0,0,.09-.3.45.45,0,0,0-.09-.31.27.27,0,0,0-.22-.1.26.26,0,0,0-.21.1.45.45,0,0,0-.08.3m2.08.27.35.06a.57.57,0,0,1-.22.29.63.63,0,0,1-.37.1.6.6,0,0,1-.52-.23.74.74,0,0,1-.13-.45.72.72,0,0,1,.17-.51.58.58,0,0,1,.44-.19.6.6,0,0,1,.47.19.86.86,0,0,1,.17.6H31a.35.35,0,0,0,.09.24.27.27,0,0,0,.21.09.22.22,0,0,0,.14,0,.28.28,0,0,0,.09-.15m0-.35a.32.32,0,0,0-.08-.23.24.24,0,0,0-.18-.08.25.25,0,0,0-.19.08A.32.32,0,0,0,31,33Zm1.87.77H33v-.67a1,1,0,0,0,0-.28.21.21,0,0,0-.08-.1.22.22,0,0,0-.12,0,.28.28,0,0,0-.17,0,.24.24,0,0,0-.1.13,1.07,1.07,0,0,0,0,.3v.6h-.35V32.43h.33v.19a.55.55,0,0,1,.44-.22.53.53,0,0,1,.21,0,.36.36,0,0,1,.15.11.42.42,0,0,1,.07.15,1.08,1.08,0,0,1,0,.23Zm1-1.32v.28h-.24v.53a1.19,1.19,0,0,0,0,.19.08.08,0,0,0,0,0l.06,0,.14,0,0,.27a.71.71,0,0,1-.28.05.46.46,0,0,1-.17,0,.24.24,0,0,1-.11-.08.34.34,0,0,1-.05-.13,1.78,1.78,0,0,1,0-.25V32.7h-.16v-.28h.16v-.26l.36-.2v.47Z" transform="translate(-3.61 -1.11)"/><path class="cls-4" d="M4.5,37.27V35.45H5.88v.31h-1v.4h.93v.31H4.88V37h1v.31ZM6.22,36h.33v.19A.47.47,0,0,1,6.73,36,.49.49,0,0,1,7,35.92a.52.52,0,0,1,.4.18.72.72,0,0,1,.16.5.74.74,0,0,1-.16.51.52.52,0,0,1-.4.18.46.46,0,0,1-.2,0,.65.65,0,0,1-.19-.15v.67H6.22Zm.35.64a.5.5,0,0,0,.09.33.28.28,0,0,0,.22.11.26.26,0,0,0,.21-.1.5.5,0,0,0,.08-.32.46.46,0,0,0-.08-.31.26.26,0,0,0-.21-.1.27.27,0,0,0-.22.1.44.44,0,0,0-.09.29m1.51-.24-.32-.06A.49.49,0,0,1,7.95,36a.69.69,0,0,1,.39-.09.88.88,0,0,1,.35.05.36.36,0,0,1,.16.14.71.71,0,0,1,0,.31v.41a1.57,1.57,0,0,0,0,.26.75.75,0,0,0,.07.18H8.63l0-.1v0a.67.67,0,0,1-.2.13.57.57,0,0,1-.22,0,.46.46,0,0,1-.33-.11.36.36,0,0,1-.12-.28.38.38,0,0,1,.05-.2.36.36,0,0,1,.15-.13,1.24,1.24,0,0,1,.28-.08,2.08,2.08,0,0,0,.35-.08v0a.18.18,0,0,0-.05-.14.31.31,0,0,0-.19,0,.21.21,0,0,0-.23.16m.48.28-.22.05a.67.67,0,0,0-.19.06.15.15,0,0,0-.07.12.17.17,0,0,0,.06.13.19.19,0,0,0,.14.05A.31.31,0,0,0,8.46,37a.21.21,0,0,0,.09-.11.64.64,0,0,0,0-.17Zm1,.63H9.24V36h.33v.19A.55.55,0,0,1,9.72,36a.28.28,0,0,1,.15,0,.47.47,0,0,1,.23.07l-.11.3a.33.33,0,0,0-.17-.06.2.2,0,0,0-.13,0,.27.27,0,0,0-.08.15,2,2,0,0,0,0,.44Zm.64.09.41,0a.13.13,0,0,0,0,.1.27.27,0,0,0,.16,0,.43.43,0,0,0,.21,0,.17.17,0,0,0,.07-.09.54.54,0,0,0,0-.16v-.19a.49.49,0,0,1-.4.21.5.5,0,0,1-.43-.22.75.75,0,0,1-.12-.44.72.72,0,0,1,.16-.5.52.52,0,0,1,.4-.18.49.49,0,0,1,.41.22V36h.33v1.18a1.16,1.16,0,0,1,0,.35.42.42,0,0,1-.11.18.49.49,0,0,1-.19.1,1,1,0,0,1-.3,0,.79.79,0,0,1-.49-.11.36.36,0,0,1-.14-.29s0,0,0,0m.32-.77a.47.47,0,0,0,.08.31.26.26,0,0,0,.21.1.28.28,0,0,0,.22-.1.43.43,0,0,0,.09-.3.45.45,0,0,0-.09-.3.28.28,0,0,0-.43,0,.45.45,0,0,0-.08.3m2.52.69h-.36V36.6a1.1,1.1,0,0,0,0-.28.2.2,0,0,0-.08-.1.22.22,0,0,0-.12,0,.28.28,0,0,0-.17,0,.25.25,0,0,0-.1.13,1.08,1.08,0,0,0,0,.3v.6h-.35V36h.33v.19a.55.55,0,0,1,.44-.22.54.54,0,0,1,.22,0,.35.35,0,0,1,.15.11.4.4,0,0,1,.07.15,1.06,1.06,0,0,1,0,.23Zm1.14-.42.35.06a.58.58,0,0,1-.22.29.65.65,0,0,1-.37.1.61.61,0,0,1-.52-.23.74.74,0,0,1-.13-.45.72.72,0,0,1,.17-.51.58.58,0,0,1,.44-.19.6.6,0,0,1,.47.19.85.85,0,0,1,.17.6H13.7a.34.34,0,0,0,.09.24A.27.27,0,0,0,14,37a.22.22,0,0,0,.14,0,.26.26,0,0,0,.09-.15m0-.35a.33.33,0,0,0-.08-.23.25.25,0,0,0-.18-.08.25.25,0,0,0-.19.08.31.31,0,0,0-.07.22Zm3,.55-.22.27a1.25,1.25,0,0,1-.3-.21.74.74,0,0,1-.24.15.87.87,0,0,1-.3,0,.68.68,0,0,1-.52-.19.49.49,0,0,1-.13-.34.51.51,0,0,1,.11-.31.86.86,0,0,1,.32-.24,1,1,0,0,1-.14-.21.44.44,0,0,1,0-.19.35.35,0,0,1,.14-.28.57.57,0,0,1,.39-.11.54.54,0,0,1,.38.12.38.38,0,0,1,.07.5.91.91,0,0,1-.27.22l.26.33a.76.76,0,0,0,.08-.21l.32.07a1.91,1.91,0,0,1-.08.25l-.08.13.15.12.14.09m-1-1,.1-.07a.22.22,0,0,0,.11-.16.15.15,0,0,0-.05-.11.23.23,0,0,0-.27,0,.12.12,0,0,0,0,.1.25.25,0,0,0,.08.16Zm-.14.38a.47.47,0,0,0-.18.15.29.29,0,0,0-.06.18.24.24,0,0,0,.08.18.28.28,0,0,0,.2.07.42.42,0,0,0,.16,0,.68.68,0,0,0,.17-.11Zm2-1h.38v1.82h-.37Zm2,1.82h-.36V36.6a1,1,0,0,0,0-.28.2.2,0,0,0-.07-.1.22.22,0,0,0-.12,0,.28.28,0,0,0-.17,0,.25.25,0,0,0-.1.13,1.13,1.13,0,0,0,0,.3v.6h-.35V36h.33v.19A.56.56,0,0,1,19.9,36a.36.36,0,0,1,.15.11.38.38,0,0,1,.07.15,1.06,1.06,0,0,1,0,.23Zm.73,0L20.32,36h.37l.25.67.07.22,0-.11,0-.11.26-.67h.36l-.53,1.32Zm1.85-.42.35.06a.58.58,0,0,1-.22.29.65.65,0,0,1-.37.1.61.61,0,0,1-.52-.23.74.74,0,0,1-.13-.45.72.72,0,0,1,.18-.51.58.58,0,0,1,.44-.19.61.61,0,0,1,.47.19.86.86,0,0,1,.16.6H22.2a.35.35,0,0,0,.09.24.27.27,0,0,0,.21.09.22.22,0,0,0,.14,0,.27.27,0,0,0,.09-.15m0-.35a.34.34,0,0,0-.08-.23.25.25,0,0,0-.19-.08.25.25,0,0,0-.19.08.31.31,0,0,0-.08.22Zm.52.39.36-.05a.25.25,0,0,0,.09.15.32.32,0,0,0,.2.05.35.35,0,0,0,.21,0,.11.11,0,0,0,0-.09.09.09,0,0,0,0-.06.24.24,0,0,0-.12,0,2,2,0,0,1-.55-.17.34.34,0,0,1-.16-.3.36.36,0,0,1,.14-.29.65.65,0,0,1,.43-.12.75.75,0,0,1,.41.09.45.45,0,0,1,.18.26l-.33.06a.2.2,0,0,0-.08-.12.29.29,0,0,0-.17,0,.38.38,0,0,0-.2,0,.08.08,0,0,0,0,.07.08.08,0,0,0,0,.06,1.39,1.39,0,0,0,.33.1,1,1,0,0,1,.4.16.32.32,0,0,1,.11.26.4.4,0,0,1-.16.31.69.69,0,0,1-.46.13.76.76,0,0,1-.44-.11.5.5,0,0,1-.21-.3M25.44,36v.28h-.24v.53a1.24,1.24,0,0,0,0,.19.07.07,0,0,0,0,0l.06,0,.14,0,0,.27a.71.71,0,0,1-.28.05.45.45,0,0,1-.17,0,.25.25,0,0,1-.11-.08.33.33,0,0,1,0-.13,1.45,1.45,0,0,1,0-.25v-.57h-.16V36h.16v-.26l.36-.2V36Zm.25-.5H26v.32h-.35Zm0,.5H26v1.32h-.35Zm.6.94.36-.05a.25.25,0,0,0,.09.15.31.31,0,0,0,.2.05.35.35,0,0,0,.21,0,.11.11,0,0,0,0-.09.09.09,0,0,0,0-.06.25.25,0,0,0-.12,0,2,2,0,0,1-.55-.17.34.34,0,0,1-.16-.3.36.36,0,0,1,.14-.29.66.66,0,0,1,.43-.12.75.75,0,0,1,.41.09.45.45,0,0,1,.18.26l-.34.06a.2.2,0,0,0-.08-.12.29.29,0,0,0-.17,0,.38.38,0,0,0-.2,0,.08.08,0,0,0,0,.07.08.08,0,0,0,0,.06,1.36,1.36,0,0,0,.33.1,1,1,0,0,1,.4.16.32.32,0,0,1,.11.26.39.39,0,0,1-.16.31.69.69,0,0,1-.46.13.76.76,0,0,1-.43-.11.49.49,0,0,1-.21-.3m1.44,0,.36-.05a.26.26,0,0,0,.09.15.32.32,0,0,0,.2.05.35.35,0,0,0,.21,0,.11.11,0,0,0,0-.09.08.08,0,0,0,0-.06.24.24,0,0,0-.12,0,2,2,0,0,1-.55-.17.34.34,0,0,1-.16-.3.36.36,0,0,1,.14-.29.66.66,0,0,1,.43-.12.75.75,0,0,1,.41.09.45.45,0,0,1,.18.26l-.34.06a.2.2,0,0,0-.08-.12.29.29,0,0,0-.17,0,.38.38,0,0,0-.2,0,.08.08,0,0,0,0,.07.08.08,0,0,0,0,.06,1.36,1.36,0,0,0,.33.1,1,1,0,0,1,.4.16.32.32,0,0,1,.11.26.39.39,0,0,1-.15.31.69.69,0,0,1-.46.13.76.76,0,0,1-.44-.11.5.5,0,0,1-.21-.3m2.35,0,.35.06a.58.58,0,0,1-.22.29.64.64,0,0,1-.37.1.61.61,0,0,1-.52-.23.74.74,0,0,1-.13-.45.72.72,0,0,1,.18-.51.58.58,0,0,1,.44-.19.6.6,0,0,1,.47.19.85.85,0,0,1,.17.6h-.89a.34.34,0,0,0,.09.24.27.27,0,0,0,.2.09A.22.22,0,0,0,30,37a.28.28,0,0,0,.09-.15m0-.35a.33.33,0,0,0-.08-.23.26.26,0,0,0-.38,0,.31.31,0,0,0-.07.22ZM30.7,36H31v.18a.53.53,0,0,1,.42-.21.46.46,0,0,1,.22.05.4.4,0,0,1,.16.16A.63.63,0,0,1,32,36a.48.48,0,0,1,.22-.05.5.5,0,0,1,.25.06.37.37,0,0,1,.15.17.79.79,0,0,1,0,.28v.84h-.36v-.75a.52.52,0,0,0,0-.25.17.17,0,0,0-.15-.07.25.25,0,0,0-.24.18.94.94,0,0,0,0,.27v.63h-.36v-.72a1,1,0,0,0,0-.25.16.16,0,0,0-.06-.08.19.19,0,0,0-.11,0,.27.27,0,0,0-.15,0,.24.24,0,0,0-.1.13,1,1,0,0,0,0,.27v.64H30.7Zm3.11.9.35.06a.57.57,0,0,1-.22.29.64.64,0,0,1-.37.1.61.61,0,0,1-.52-.23.75.75,0,0,1-.13-.45.72.72,0,0,1,.18-.51.57.57,0,0,1,.44-.19.6.6,0,0,1,.47.19.85.85,0,0,1,.17.6H33.3a.34.34,0,0,0,.08.24.27.27,0,0,0,.21.09.22.22,0,0,0,.14,0,.27.27,0,0,0,.08-.15m0-.35a.33.33,0,0,0-.08-.23.26.26,0,0,0-.38,0,.31.31,0,0,0-.07.22Zm1.87.77h-.36V36.6a1.05,1.05,0,0,0,0-.28.19.19,0,0,0-.08-.1.22.22,0,0,0-.12,0,.29.29,0,0,0-.17,0,.24.24,0,0,0-.1.13,1,1,0,0,0,0,.3v.6h-.35V36h.33v.19a.55.55,0,0,1,.44-.22.53.53,0,0,1,.22,0,.35.35,0,0,1,.15.11.38.38,0,0,1,.07.15,1,1,0,0,1,0,.23Zm1-1.32v.28h-.24v.53a1.24,1.24,0,0,0,0,.19.08.08,0,0,0,0,0l.06,0,.14,0,0,.27a.71.71,0,0,1-.28.05.44.44,0,0,1-.17,0,.24.24,0,0,1-.11-.08.34.34,0,0,1-.05-.13,1.6,1.6,0,0,1,0-.25v-.57h-.16V36h.16v-.26l.36-.2V36Z" transform="translate(-3.61 -1.11)"/><path class="cls-5" d="M20.51,7v.19a11.54,11.54,0,1,1-8.17,3.38,11.52,11.52,0,0,1,8.17-3.38V6.78A11.91,11.91,0,1,0,32.44,18.69,11.92,11.92,0,0,0,20.51,6.78Z" transform="translate(-3.61 -1.11)"/><path class="cls-5" d="M19,6.89A17.54,17.54,0,0,0,14.9,10a14.89,14.89,0,0,0-2.8,3.84,12,12,0,0,0-1.28,5.39c0,2.76.92,6,3.36,9.61l.32-.21c-2.41-3.6-3.3-6.73-3.3-9.4A11.6,11.6,0,0,1,12.44,14a15.52,15.52,0,0,1,4.18-5.05,17.57,17.57,0,0,1,1.78-1.27l.53-.32.14-.08,0,0h0Z" transform="translate(-3.61 -1.11)"/><path class="cls-5" d="M19.75,6.88a26.43,26.43,0,0,0-2.19,4.05,23.94,23.94,0,0,0-2.19,9.48,16,16,0,0,0,.8,5.06,15.18,15.18,0,0,0,2.81,5l.29-.25a14.74,14.74,0,0,1-2.74-4.85,15.53,15.53,0,0,1-.78-4.94,23.58,23.58,0,0,1,2.16-9.32,29.09,29.09,0,0,1,1.49-2.91c.2-.35.37-.62.49-.8L20,7.16l0-.05h0Z" transform="translate(-3.61 -1.11)"/><path class="cls-5" d="M20.74,7.09h0a18.7,18.7,0,0,1,1.82,3.57,24.92,24.92,0,0,1,1.75,9.16,26.43,26.43,0,0,1-2.17,10.36l.35.15a26.78,26.78,0,0,0,2.2-10.51,25.3,25.3,0,0,0-1.82-9.41,18.87,18.87,0,0,0-1.82-3.55Z" transform="translate(-3.61 -1.11)"/><path class="cls-5" d="M23.45,7.53h0a13.1,13.1,0,0,1,2.87,2.8,13,13,0,0,1,2.74,8c0,3-1,6.63-3.8,10.89l.32.21c2.85-4.3,3.86-8,3.86-11.1A13.43,13.43,0,0,0,26.56,10a13.26,13.26,0,0,0-2.9-2.8Z" transform="translate(-3.61 -1.11)"/><path class="cls-5" d="M11.55,11.26a40.32,40.32,0,0,0,7.79.83,21,21,0,0,0,4.76-.49A8.71,8.71,0,0,0,28,9.71l-.26-.28A8.34,8.34,0,0,1,24,11.23a20.64,20.64,0,0,1-4.67.48A38.34,38.34,0,0,1,14,11.3c-.71-.1-1.3-.21-1.71-.28l-.47-.09-.12,0h0Z" transform="translate(-3.61 -1.11)"/><path class="cls-5" d="M8.74,17.45a13.82,13.82,0,0,0,2.78,1.42,20.67,20.67,0,0,0,7.61,1.41,26.57,26.57,0,0,0,13-3.65l-.19-.33a26.18,26.18,0,0,1-12.82,3.6,20.27,20.27,0,0,1-7.47-1.39,16,16,0,0,1-2-1l-.52-.31L9,17.17l0,0H9Z" transform="translate(-3.61 -1.11)"/><path class="cls-5" d="M9.83,23.93A20.28,20.28,0,0,0,13,25.41a22.18,22.18,0,0,0,7.71,1.47A16.77,16.77,0,0,0,31.62,23l-.24-.29a16.38,16.38,0,0,1-10.67,3.84,21.77,21.77,0,0,1-7.58-1.45,23,23,0,0,1-2.28-1l-.61-.33-.16-.09,0,0h0Z" transform="translate(-3.61 -1.11)"/><path class="cls-5" d="M14.41,28.91a24.87,24.87,0,0,0,5.11.51,18.24,18.24,0,0,0,9.42-2.32l-.2-.33A17.85,17.85,0,0,1,19.52,29a26.36,26.36,0,0,1-3.6-.25c-.45-.06-.8-.12-1-.17l-.28-.06H14.5Z" transform="translate(-3.61 -1.11)"/><path class="cls-4" d="M14.7,19.29l0,8.7a6.92,6.92,0,0,0,5.18,1.09l-.08-2a8,8,0,0,1-3.22-.34V24.3l3,0V22.82h-3V20.92l1.17,0A6.26,6.26,0,0,0,21,19.36a3.52,3.52,0,0,1-1.86-.71,11.39,11.39,0,0,1-2.69.6Z" transform="translate(-3.61 -1.11)"/><path class="cls-3" d="M14.7,19.29h-.19l0,8.7a.19.19,0,0,0,.09.16,7.06,7.06,0,0,0,5.32,1.12.19.19,0,0,0,.16-.2l-.08-2a.18.18,0,0,0-.07-.14.19.19,0,0,0-.14,0c-.26,0-.52,0-.78,0a7.78,7.78,0,0,1-2.36-.37l-.06.18h.19V24.5l2.81,0a.19.19,0,0,0,.19-.19V22.82a.19.19,0,0,0-.06-.14.19.19,0,0,0-.14-.06H16.8V21.11l1,0h0a9.63,9.63,0,0,0,1.79-.58,4.56,4.56,0,0,0,1.47-1,.19.19,0,0,0-.11-.32,5.84,5.84,0,0,1-.92-.2,2.57,2.57,0,0,1-.85-.47.19.19,0,0,0-.19,0,11.24,11.24,0,0,1-2.64.58l0,.19v-.19l-1.71,0a.19.19,0,0,0-.18.19h.19v.19l1.71,0h0a11.57,11.57,0,0,0,2.73-.61l-.07-.18L19,18.8a2.93,2.93,0,0,0,1,.54,6.18,6.18,0,0,0,1,.22l0-.19-.14-.13a4.17,4.17,0,0,1-1.35.92,9.13,9.13,0,0,1-1.72.56l0,.19V20.7l-1.17,0a.19.19,0,0,0-.18.19v1.92a.19.19,0,0,0,.19.19h2.77v1.14l-2.81,0a.19.19,0,0,0-.14.06.19.19,0,0,0-.06.14v2.45a.19.19,0,0,0,.13.18,8.19,8.19,0,0,0,3.3.35l0-.19h-.19l.08,2h.19l0-.19a6.94,6.94,0,0,1-1.25.12,6.85,6.85,0,0,1-3.79-1.18l-.11.16h.19l0-8.7H14.7v0Z" transform="translate(-3.61 -1.11)"/><path class="cls-4" d="M21.35,18.64h1.92c-.25,2.61.26,6.61,1.17,7.81.53.43,1.51-.4,2-1.81.75-2.52.74-9,0-11.86L28,12.73c1.42,4,.9,11.6-.8,14-1,1.44-2.19,2-3.31,1.43-1.32-.73-2.11-3.24-2.27-4.74Z" transform="translate(-3.61 -1.11)"/><path class="cls-3" d="M21.35,18.64v.19h1.92v-.19l-.19,0c0,.46-.07,1-.07,1.47a21.44,21.44,0,0,0,.34,3.76,12,12,0,0,0,.4,1.59,4,4,0,0,0,.54,1.12l0,0a.68.68,0,0,0,.44.15,1,1,0,0,0,.53-.16,2.56,2.56,0,0,0,.73-.72,4.73,4.73,0,0,0,.59-1.16h0A14,14,0,0,0,27,22.16c.09-1,.14-2.14.14-3.28s0-2.32-.14-3.38a17.71,17.71,0,0,0-.43-2.76l-.18,0V13L28,12.92v-.19l-.18.06a18.62,18.62,0,0,1,.81,5.86,25.29,25.29,0,0,1-.42,4.7,13.72,13.72,0,0,1-.5,1.91,5.63,5.63,0,0,1-.66,1.36l.16.11-.15-.11a4.74,4.74,0,0,1-1.16,1.17,2,2,0,0,1-1.14.38A1.84,1.84,0,0,1,24,28l-.08.17L24,28a2.66,2.66,0,0,1-.83-.78,7,7,0,0,1-.91-1.88,9.43,9.43,0,0,1-.43-1.93l-.19,0h.19l-.31-4.77h-.19v0h-.19l.31,4.76h0a10,10,0,0,0,.71,2.71,6.56,6.56,0,0,0,.7,1.28,3,3,0,0,0,1,.89h0a2.22,2.22,0,0,0,.94.21,2.42,2.42,0,0,0,1.35-.45,5.14,5.14,0,0,0,1.25-1.26h0a6,6,0,0,0,.71-1.45,16.14,16.14,0,0,0,.7-3.08A27.09,27.09,0,0,0,29,18.64a19,19,0,0,0-.83-6,.19.19,0,0,0-.18-.13l-1.62.05a.2.2,0,0,0-.15.08.19.19,0,0,0,0,.16,17.6,17.6,0,0,1,.42,2.7c.09,1,.14,2.2.14,3.35s0,2.25-.14,3.25a13.6,13.6,0,0,1-.41,2.46l.18.05-.18-.06a4,4,0,0,1-.74,1.33,1.82,1.82,0,0,1-.41.35.69.69,0,0,1-.34.11.31.31,0,0,1-.2-.07l-.12.15.15-.12a3.61,3.61,0,0,1-.48-1,13.52,13.52,0,0,1-.53-2.43,21.33,21.33,0,0,1-.19-2.8c0-.51,0-1,.06-1.43a.18.18,0,0,0,0-.15.19.19,0,0,0-.14-.06H21.35a.19.19,0,0,0-.14.06.19.19,0,0,0,0,.14Z" transform="translate(-3.61 -1.11)"/></g></g></g></svg>