<svg xmlns="http://www.w3.org/2000/svg" xmlns:xlink="http://www.w3.org/1999/xlink" viewBox="0 0 67.39 32.8"><defs><style>.cls-1,.cls-6{fill:none;}.cls-2{clip-path:url(#clip-path);}.cls-3{fill:#0e0b66;}.cls-4{fill:#4389be;}.cls-5{fill:#acbc10;}.cls-6{stroke:#acbc10;stroke-miterlimit:10;stroke-width:0.14px;}</style><clipPath id="clip-path" transform="translate(-2.75 -1.01)"><rect class="cls-1" width="72.48" height="34.43"/></clipPath></defs><title>logo-9</title><g id="Layer_2" data-name="Layer 2"><g id="Layer_1-2" data-name="Layer 1"><g class="cls-2"><path class="cls-3" d="M33.24,1h6.52A4.46,4.46,0,0,1,43,2,3.8,3.8,0,0,1,44,4.91a3.92,3.92,0,0,1-1.16,3A5,5,0,0,1,39.33,9H37.18v4.71H33.24Zm3.94,5.41h1A2.48,2.48,0,0,0,39.74,6a1.27,1.27,0,0,0,.46-1,1.41,1.41,0,0,0-.4-1,2.07,2.07,0,0,0-1.5-.42H37.18Z" transform="translate(-2.75 -1.01)"/><path class="cls-3" d="M52.36,11.61H47.91l-.62,2.1h-4L48.06,1h4.28l4.77,12.7H53Zm-.81-2.75L50.15,4.3,48.76,8.87Z" transform="translate(-2.75 -1.01)"/><path class="cls-3" d="M58.41,1h5.83A7,7,0,0,1,67,1.48a4.52,4.52,0,0,1,1.75,1.34,5.55,5.55,0,0,1,1,2,9.44,9.44,0,0,1,.31,2.46,8.56,8.56,0,0,1-.46,3.16,5.25,5.25,0,0,1-1.29,1.88,4.2,4.2,0,0,1-1.77,1,9.08,9.08,0,0,1-2.34.35H58.41Zm3.92,2.88v6.94h1A4,4,0,0,0,65,10.55a1.85,1.85,0,0,0,.81-1,6,6,0,0,0,.29-2.2,4.28,4.28,0,0,0-.66-2.76,2.78,2.78,0,0,0-2.18-.75Z" transform="translate(-2.75 -1.01)"/><path class="cls-3" d="M33.26,16.21a3.52,3.52,0,0,1,.63,0,1,1,0,0,1,.67.19.64.64,0,0,1,.22.5.69.69,0,0,1-.19.51,1,1,0,0,1-.71.24h-.2v.85h-.41Zm.41,1.05.2,0c.31,0,.5-.15.5-.42s-.18-.39-.46-.39l-.24,0Z" transform="translate(-2.75 -1.01)"/><path class="cls-3" d="M35.9,16.1l.33.5h-.28l-.18-.31h0l-.18.31h-.28l.33-.5Zm.69,1.51a.81.81,0,0,1-.84.87.79.79,0,0,1-.82-.84.81.81,0,0,1,.84-.86.78.78,0,0,1,.81.84m-1.23,0c0,.32.15.55.4.55s.4-.23.4-.56-.12-.55-.4-.55-.41.28-.41.55" transform="translate(-2.75 -1.01)"/><rect class="cls-3" x="34.18" y="15.05" width="0.42" height="2.38"/><path class="cls-3" d="M38.08,17.74a.44.44,0,0,0,.5.42,1.22,1.22,0,0,0,.45-.07l.06.29a1.57,1.57,0,0,1-.57.1.77.77,0,0,1-.84-.82.81.81,0,0,1,.8-.88.71.71,0,0,1,.7.8,1.12,1.12,0,0,1,0,.17Zm.72-.29a.35.35,0,0,0-.34-.4.4.4,0,0,0-.38.4Z" transform="translate(-2.75 -1.01)"/><path class="cls-3" d="M41.72,16.06V18c0,.17,0,.35,0,.46h-.37l0-.26h0a.59.59,0,0,1-.53.3.75.75,0,0,1-.7-.84.78.78,0,0,1,.73-.87.52.52,0,0,1,.46.21h0v-.93Zm-.41,1.43a.64.64,0,0,0,0-.11.36.36,0,0,0-.36-.29c-.27,0-.41.23-.41.54s.15.52.41.52a.36.36,0,0,0,.35-.29.46.46,0,0,0,0-.12Z" transform="translate(-2.75 -1.01)"/><path class="cls-3" d="M42.45,17.74a.44.44,0,0,0,.5.42,1.23,1.23,0,0,0,.45-.07l.06.29a1.56,1.56,0,0,1-.57.1.77.77,0,0,1-.84-.82.81.81,0,0,1,.8-.88.71.71,0,0,1,.7.8,1.12,1.12,0,0,1,0,.17Zm.72-.29a.35.35,0,0,0-.34-.4.4.4,0,0,0-.38.4Z" transform="translate(-2.75 -1.01)"/><path class="cls-3" d="M44.6,16.21a3.88,3.88,0,0,1,.62,0,1,1,0,0,1,.7.18.57.57,0,0,1,.19.45.6.6,0,0,1-.41.57h0a.58.58,0,0,1,.31.44,4.75,4.75,0,0,0,.18.63h-.42a3.05,3.05,0,0,1-.15-.53c-.06-.29-.17-.39-.41-.4H45v.93H44.6Zm.41,1h.24c.28,0,.45-.15.45-.37s-.18-.36-.44-.36l-.25,0Z" transform="translate(-2.75 -1.01)"/><path class="cls-3" d="M47.7,16.1l-.41.5H47l.29-.5Zm-.91,1.64a.44.44,0,0,0,.5.42,1.23,1.23,0,0,0,.45-.07l.06.29a1.57,1.57,0,0,1-.57.1.77.77,0,0,1-.84-.82.81.81,0,0,1,.8-.88.71.71,0,0,1,.7.8,1,1,0,0,1,0,.17Zm.72-.29a.35.35,0,0,0-.34-.4.4.4,0,0,0-.38.4Z" transform="translate(-2.75 -1.01)"/><path class="cls-3" d="M48.28,18.44V17.12h-.22v-.31h.22v-.07a.77.77,0,0,1,.2-.56A.63.63,0,0,1,48.9,16a.82.82,0,0,1,.27,0l0,.32a.52.52,0,0,0-.17,0c-.21,0-.28.17-.28.37v.08H49v.31h-.36v1.32Z" transform="translate(-2.75 -1.01)"/><path class="cls-3" d="M50.46,16.1l-.41.5h-.28l.29-.5Zm-.91,1.64a.45.45,0,0,0,.5.42,1.22,1.22,0,0,0,.45-.07l.06.29a1.57,1.57,0,0,1-.57.1.77.77,0,0,1-.84-.82.81.81,0,0,1,.8-.88.71.71,0,0,1,.7.8,1,1,0,0,1,0,.17Zm.72-.29a.35.35,0,0,0-.34-.4.4.4,0,0,0-.38.4Z" transform="translate(-2.75 -1.01)"/><path class="cls-3" d="M51,17.34c0-.22,0-.38,0-.53h.36v.31h0a.49.49,0,0,1,.45-.35h.1v.39h-.12a.36.36,0,0,0-.37.31.67.67,0,0,0,0,.13v.85H51Z" transform="translate(-2.75 -1.01)"/><path class="cls-3" d="M52.45,17.74a.44.44,0,0,0,.5.42,1.23,1.23,0,0,0,.45-.07l.06.29a1.56,1.56,0,0,1-.57.1.77.77,0,0,1-.84-.82.81.81,0,0,1,.8-.88.71.71,0,0,1,.7.8,1,1,0,0,1,0,.17Zm.72-.29a.35.35,0,0,0-.34-.4.4.4,0,0,0-.38.4Z" transform="translate(-2.75 -1.01)"/><path class="cls-3" d="M53.89,17.3c0-.19,0-.35,0-.49h.36l0,.24h0a.59.59,0,0,1,.52-.28c.29,0,.58.18.58.7v1H55v-.92c0-.24-.09-.41-.31-.41a.35.35,0,0,0-.32.24.43.43,0,0,0,0,.13v1h-.42Z" transform="translate(-2.75 -1.01)"/><path class="cls-3" d="M57,18.39a1.2,1.2,0,0,1-.46.08.78.78,0,0,1-.84-.83.84.84,0,0,1,.91-.87,1,1,0,0,1,.4.08l-.07.31a.72.72,0,0,0-.31-.06.53.53,0,0,0,0,1.06.8.8,0,0,0,.33-.06Z" transform="translate(-2.75 -1.01)"/><path class="cls-3" d="M57.57,17.74a.44.44,0,0,0,.5.42,1.22,1.22,0,0,0,.45-.07l.06.29a1.57,1.57,0,0,1-.57.1.77.77,0,0,1-.84-.82.81.81,0,0,1,.8-.88.71.71,0,0,1,.7.8,1.12,1.12,0,0,1,0,.17Zm.72-.29a.35.35,0,0,0-.34-.4.4.4,0,0,0-.38.4Z" transform="translate(-2.75 -1.01)"/><path class="cls-3" d="M60.63,18.44l0-.18h0a.61.61,0,0,1-.48.22.48.48,0,0,1-.51-.49c0-.41.37-.62,1-.62v0c0-.11,0-.28-.33-.28a.87.87,0,0,0-.44.12l-.08-.27a1.18,1.18,0,0,1,.59-.14.61.61,0,0,1,.67.69v.59a2.47,2.47,0,0,0,0,.39Zm-.05-.8c-.29,0-.57.06-.57.31a.22.22,0,0,0,.23.23.33.33,0,0,0,.32-.22.29.29,0,0,0,0-.09Z" transform="translate(-2.75 -1.01)"/><path class="cls-3" d="M62.87,18c0,.2,0,.36,0,.49h-.36l0-.25h0a.59.59,0,0,1-.52.29c-.3,0-.57-.18-.57-.71v-1h.41v.89c0,.27.09.45.31.45a.34.34,0,0,0,.31-.22.36.36,0,0,0,0-.13v-1h.41Z" transform="translate(-2.75 -1.01)"/><path class="cls-3" d="M35,22.32a1.43,1.43,0,0,1-.58.1,1.07,1.07,0,0,1-1.15-1.14,1.14,1.14,0,0,1,1.21-1.19,1.3,1.3,0,0,1,.55.1l-.09.33a1.1,1.1,0,0,0-.44-.09.75.75,0,0,0-.79.83.74.74,0,0,0,.79.82,1.17,1.17,0,0,0,.45-.08Z" transform="translate(-2.75 -1.01)"/><path class="cls-3" d="M36.83,21.56a.81.81,0,0,1-.84.87.79.79,0,0,1-.82-.84.81.81,0,0,1,.85-.87.78.78,0,0,1,.81.84m-1.23,0c0,.32.15.55.4.55s.4-.23.4-.56S36.29,21,36,21s-.41.28-.41.55" transform="translate(-2.75 -1.01)"/><path class="cls-3" d="M37.46,21.69a.44.44,0,0,0,.5.42,1.22,1.22,0,0,0,.45-.07l.06.29a1.56,1.56,0,0,1-.57.1.77.77,0,0,1-.84-.83.81.81,0,0,1,.8-.88.71.71,0,0,1,.7.8,1,1,0,0,1,0,.17Zm.72-.29a.35.35,0,0,0-.34-.4.4.4,0,0,0-.38.4Z" transform="translate(-2.75 -1.01)"/><path class="cls-3" d="M40.37,21.9c0,.19,0,.36,0,.49H40l0-.25h0a.59.59,0,0,1-.52.28c-.3,0-.57-.18-.57-.71v-1h.41v.89c0,.27.09.45.31.45a.35.35,0,0,0,.32-.22.36.36,0,0,0,0-.13v-1h.41Z" transform="translate(-2.75 -1.01)"/><path class="cls-3" d="M40.81,21.28c0-.22,0-.38,0-.53h.36v.31h0a.49.49,0,0,1,.45-.35h.1v.39H41.6a.36.36,0,0,0-.37.31.78.78,0,0,0,0,.13v.84h-.41Z" transform="translate(-2.75 -1.01)"/><path class="cls-3" d="M44.2,20v1.92c0,.17,0,.35,0,.46h-.37l0-.26h0a.59.59,0,0,1-.53.29.75.75,0,0,1-.7-.84.78.78,0,0,1,.73-.87.52.52,0,0,1,.46.21h0V20Zm-.41,1.43a.64.64,0,0,0,0-.11.36.36,0,0,0-.36-.29c-.27,0-.41.23-.41.54s.15.52.41.52a.36.36,0,0,0,.35-.29.46.46,0,0,0,0-.12Z" transform="translate(-2.75 -1.01)"/><path class="cls-3" d="M46.11,21.9c0,.19,0,.36,0,.49h-.36l0-.25h0a.59.59,0,0,1-.52.28c-.3,0-.57-.18-.57-.71v-1h.41v.89c0,.27.09.45.31.45a.35.35,0,0,0,.32-.22.36.36,0,0,0,0-.13v-1h.41Z" transform="translate(-2.75 -1.01)"/><path class="cls-3" d="M49.08,22.28a2.26,2.26,0,0,1-.73.13,1.22,1.22,0,0,1-.89-.3,1.12,1.12,0,0,1-.32-.83A1.15,1.15,0,0,1,48.4,20.1a1.51,1.51,0,0,1,.6.11l-.09.33a1.23,1.23,0,0,0-.51-.1.76.76,0,0,0-.82.81.75.75,0,0,0,.78.82.8.8,0,0,0,.31,0v-.56h-.4v-.33h.8Z" transform="translate(-2.75 -1.01)"/><path class="cls-3" d="M51.05,21.56a.81.81,0,0,1-.84.87.79.79,0,0,1-.82-.84.81.81,0,0,1,.85-.87.78.78,0,0,1,.81.84m-1.23,0c0,.32.15.55.41.55s.4-.23.4-.56-.11-.55-.4-.55-.41.28-.41.55" transform="translate(-2.75 -1.01)"/><rect class="cls-3" x="48.64" y="19" width="0.42" height="2.38"/><path class="cls-3" d="M52.3,22.39V21.06h-.22v-.31h.22v-.07a.76.76,0,0,1,.2-.56.62.62,0,0,1,.43-.16.85.85,0,0,1,.27,0l0,.32a.49.49,0,0,0-.17,0c-.21,0-.28.17-.28.37v.08h.36v.31h-.36v1.32Z" transform="translate(-2.75 -1.01)"/><path class="cls-3" d="M53.58,21.69a.45.45,0,0,0,.5.42,1.23,1.23,0,0,0,.45-.07l.06.29a1.56,1.56,0,0,1-.57.1.77.77,0,0,1-.84-.83.81.81,0,0,1,.8-.88.71.71,0,0,1,.7.8,1,1,0,0,1,0,.17Zm.72-.29A.35.35,0,0,0,54,21a.4.4,0,0,0-.38.4Z" transform="translate(-2.75 -1.01)"/><path class="cls-3" d="M57.22,20v1.92c0,.17,0,.35,0,.46h-.37l0-.26h0a.59.59,0,0,1-.53.29.75.75,0,0,1-.7-.84.78.78,0,0,1,.73-.87.52.52,0,0,1,.46.21h0V20Zm-.41,1.43a.54.54,0,0,0,0-.11.36.36,0,0,0-.35-.29c-.27,0-.41.23-.41.54s.15.52.41.52a.36.36,0,0,0,.35-.29.46.46,0,0,0,0-.12Z" transform="translate(-2.75 -1.01)"/><path class="cls-3" d="M57.95,21.69a.45.45,0,0,0,.5.42,1.23,1.23,0,0,0,.45-.07l.06.29a1.56,1.56,0,0,1-.57.1.77.77,0,0,1-.84-.83.81.81,0,0,1,.8-.88.71.71,0,0,1,.7.8,1,1,0,0,1,0,.17Zm.72-.29a.35.35,0,0,0-.34-.4.4.4,0,0,0-.38.4Z" transform="translate(-2.75 -1.01)"/><path class="cls-3" d="M61.91,22.28a2.27,2.27,0,0,1-.73.13,1.22,1.22,0,0,1-.88-.3,1.12,1.12,0,0,1-.32-.83,1.15,1.15,0,0,1,1.26-1.17,1.52,1.52,0,0,1,.6.11l-.09.33a1.23,1.23,0,0,0-.51-.1.76.76,0,0,0-.82.81.75.75,0,0,0,.78.82.81.81,0,0,0,.31,0v-.56h-.4v-.33h.8Z" transform="translate(-2.75 -1.01)"/><path class="cls-3" d="M63.79,21.9c0,.19,0,.36,0,.49h-.36l0-.25h0a.59.59,0,0,1-.52.28c-.3,0-.57-.18-.57-.71v-1h.41v.89c0,.27.09.45.31.45a.35.35,0,0,0,.32-.22.38.38,0,0,0,0-.13v-1h.41Z" transform="translate(-2.75 -1.01)"/><path class="cls-3" d="M64.67,20.3a.23.23,0,0,1-.46,0,.23.23,0,0,1,.46,0m-.44.46h.42v1.63h-.42Z" transform="translate(-2.75 -1.01)"/><path class="cls-3" d="M65.09,21.24c0-.19,0-.34,0-.49h.36l0,.24h0a.59.59,0,0,1,.52-.28c.29,0,.58.18.58.7v1h-.41v-.92c0-.24-.09-.41-.31-.41a.35.35,0,0,0-.32.24.43.43,0,0,0,0,.13v1h-.42Z" transform="translate(-2.75 -1.01)"/><path class="cls-3" d="M68.21,20l-.41.5h-.28l.29-.5Zm-.9,1.64a.44.44,0,0,0,.5.42,1.22,1.22,0,0,0,.45-.07l.06.29a1.57,1.57,0,0,1-.57.1.77.77,0,0,1-.84-.83.81.81,0,0,1,.8-.88.71.71,0,0,1,.7.8,1.12,1.12,0,0,1,0,.17ZM68,21.4a.35.35,0,0,0-.34-.4.4.4,0,0,0-.38.4Z" transform="translate(-2.75 -1.01)"/><path class="cls-3" d="M69,21.69a.44.44,0,0,0,.5.42A1.22,1.22,0,0,0,70,22l.06.29a1.56,1.56,0,0,1-.57.1.77.77,0,0,1-.84-.83.81.81,0,0,1,.8-.88.71.71,0,0,1,.7.8,1,1,0,0,1,0,.17Zm.72-.29a.35.35,0,0,0-.34-.4.4.4,0,0,0-.38.4Z" transform="translate(-2.75 -1.01)"/><path class="cls-4" d="M33.63,27.71a3.45,3.45,0,0,1,.6,0,1,1,0,0,1,.63.18.61.61,0,0,1,.21.47.65.65,0,0,1-.18.49,1,1,0,0,1-.68.23H34v.81h-.39Zm.39,1,.19,0c.29,0,.47-.14.47-.4s-.16-.37-.44-.37L34,28Z" transform="translate(-2.75 -1.01)"/><path class="cls-4" d="M36.79,29a.77.77,0,0,1-.8.83.75.75,0,0,1-.78-.8.77.77,0,0,1,.8-.82.75.75,0,0,1,.77.8m-1.17,0c0,.3.15.53.39.53s.38-.22.38-.53-.11-.52-.38-.52-.39.27-.39.53" transform="translate(-2.75 -1.01)"/><rect class="cls-4" x="34.36" y="26.56" width="0.4" height="2.26"/><path class="cls-4" d="M38.21,29.17a.42.42,0,0,0,.48.4,1.18,1.18,0,0,0,.43-.07l.06.27a1.44,1.44,0,0,1-.54.1.74.74,0,0,1-.8-.79.77.77,0,0,1,.76-.83.67.67,0,0,1,.67.75,1,1,0,0,1,0,.17Zm.68-.27a.33.33,0,0,0-.32-.38.38.38,0,0,0-.36.38Z" transform="translate(-2.75 -1.01)"/><path class="cls-4" d="M41.71,29a.77.77,0,0,1-.8.83.75.75,0,0,1-.78-.8.77.77,0,0,1,.8-.82.75.75,0,0,1,.77.8m-1.17,0c0,.3.15.53.39.53s.38-.22.38-.53-.11-.52-.38-.52-.39.27-.39.53" transform="translate(-2.75 -1.01)"/><path class="cls-4" d="M42.08,29.83V28.57h-.21v-.29h.21v-.07a.73.73,0,0,1,.19-.53.59.59,0,0,1,.41-.15.81.81,0,0,1,.25,0l0,.3a.43.43,0,0,0-.17,0c-.19,0-.26.16-.26.35v.08h.34v.29h-.34v1.26Z" transform="translate(-2.75 -1.01)"/><path class="cls-4" d="M43.72,27.71a3.68,3.68,0,0,1,.59,0,1,1,0,0,1,.66.17.54.54,0,0,1,.18.43.57.57,0,0,1-.39.54h0a.55.55,0,0,1,.3.42,4.06,4.06,0,0,0,.17.6h-.4a3,3,0,0,1-.14-.51c-.06-.28-.16-.37-.39-.38h-.2v.88h-.39Zm.39.95h.23c.26,0,.43-.14.43-.35s-.17-.34-.42-.34l-.24,0Z" transform="translate(-2.75 -1.01)"/><path class="cls-4" d="M45.81,29.17a.42.42,0,0,0,.48.4,1.19,1.19,0,0,0,.43-.07l.06.27a1.45,1.45,0,0,1-.54.1.74.74,0,0,1-.8-.79.77.77,0,0,1,.76-.83.68.68,0,0,1,.67.75.9.9,0,0,1,0,.17Zm.68-.27a.33.33,0,0,0-.32-.38.38.38,0,0,0-.36.38Z" transform="translate(-2.75 -1.01)"/><path class="cls-4" d="M47.22,29.83V28.57H47v-.29h.21v-.07a.73.73,0,0,1,.19-.53.59.59,0,0,1,.4-.15.8.8,0,0,1,.25,0l0,.3a.43.43,0,0,0-.17,0c-.19,0-.26.16-.26.35v.08h.34v.29h-.34v1.26Z" transform="translate(-2.75 -1.01)"/><path class="cls-4" d="M48.43,29.17a.42.42,0,0,0,.48.4,1.19,1.19,0,0,0,.43-.07l.06.27a1.44,1.44,0,0,1-.54.1.73.73,0,0,1-.8-.79.77.77,0,0,1,.76-.83.67.67,0,0,1,.67.75.9.9,0,0,1,0,.17Zm.68-.27a.33.33,0,0,0-.32-.38.38.38,0,0,0-.36.38Z" transform="translate(-2.75 -1.01)"/><path class="cls-4" d="M49.8,28.78c0-.21,0-.36,0-.5h.34v.3h0a.46.46,0,0,1,.42-.33h.09v.37h-.11a.35.35,0,0,0-.35.3.72.72,0,0,0,0,.12v.8H49.8Z" transform="translate(-2.75 -1.01)"/><path class="cls-4" d="M51.18,29.17a.42.42,0,0,0,.48.4,1.19,1.19,0,0,0,.43-.07l.06.27a1.45,1.45,0,0,1-.54.1.74.74,0,0,1-.8-.79.77.77,0,0,1,.76-.83.67.67,0,0,1,.67.75,1,1,0,0,1,0,.17Zm.68-.27a.33.33,0,0,0-.32-.38.39.39,0,0,0-.36.38Z" transform="translate(-2.75 -1.01)"/><path class="cls-4" d="M52.55,28.74c0-.18,0-.33,0-.46h.34l0,.23h0a.56.56,0,0,1,.49-.27c.27,0,.55.18.55.67v.92h-.39V29c0-.22-.08-.39-.3-.39a.33.33,0,0,0-.31.23.4.4,0,0,0,0,.13v.91h-.4Z" transform="translate(-2.75 -1.01)"/><path class="cls-4" d="M55.52,29.79a1.14,1.14,0,0,1-.44.08.75.75,0,0,1-.8-.79.8.8,0,0,1,.86-.83,1,1,0,0,1,.38.07l-.07.29a.71.71,0,0,0-.3-.06.5.5,0,0,0,0,1,.76.76,0,0,0,.31-.06Z" transform="translate(-2.75 -1.01)"/><path class="cls-4" d="M56.05,29.17a.42.42,0,0,0,.48.4A1.18,1.18,0,0,0,57,29.5l.06.27a1.45,1.45,0,0,1-.54.1.74.74,0,0,1-.8-.79.77.77,0,0,1,.76-.83.68.68,0,0,1,.67.75,1,1,0,0,1,0,.17Zm.68-.27a.33.33,0,0,0-.32-.38.39.39,0,0,0-.36.38Z" transform="translate(-2.75 -1.01)"/><path class="cls-4" d="M59,29.83l0-.17h0a.58.58,0,0,1-.46.21.46.46,0,0,1-.49-.46c0-.39.35-.59.92-.59v0c0-.1,0-.27-.32-.27a.83.83,0,0,0-.42.11l-.08-.25a1.11,1.11,0,0,1,.56-.14.58.58,0,0,1,.64.65v.56a2.64,2.64,0,0,0,0,.37Zm-.05-.76c-.28,0-.54.06-.54.29a.21.21,0,0,0,.22.22.32.32,0,0,0,.31-.21.27.27,0,0,0,0-.09Z" transform="translate(-2.75 -1.01)"/><path class="cls-4" d="M60.13,27.84v.44h.37v.29h-.37v.69c0,.19.05.29.2.29l.15,0v.3a.84.84,0,0,1-.28,0,.46.46,0,0,1-.34-.13.62.62,0,0,1-.12-.43v-.73h-.22v-.29h.22v-.35Z" transform="translate(-2.75 -1.01)"/><path class="cls-4" d="M61.91,27.84v.44h.37v.29h-.37v.69c0,.19.05.29.2.29l.15,0v.3a.84.84,0,0,1-.28,0,.46.46,0,0,1-.34-.13.62.62,0,0,1-.12-.43v-.73H61.3v-.29h.22v-.35Z" transform="translate(-2.75 -1.01)"/><path class="cls-4" d="M62.58,27.57H63v.93h0a.56.56,0,0,1,.46-.25c.27,0,.54.18.54.67v.91h-.39V29c0-.23-.08-.4-.3-.4a.32.32,0,0,0-.32.34v.93h-.4Z" transform="translate(-2.75 -1.01)"/><path class="cls-4" d="M64.68,29.17a.42.42,0,0,0,.48.4,1.19,1.19,0,0,0,.43-.07l.06.27a1.45,1.45,0,0,1-.54.1.73.73,0,0,1-.8-.79.77.77,0,0,1,.76-.83.68.68,0,0,1,.67.75,1,1,0,0,1,0,.17Zm.68-.27a.33.33,0,0,0-.32-.38.38.38,0,0,0-.36.38Z" transform="translate(-2.75 -1.01)"/><polygon class="cls-4" points="31.27 30.57 31.27 31.43 32.18 31.43 32.18 30.57 32.57 30.57 32.57 32.72 32.18 32.72 32.18 31.77 31.27 31.77 31.27 32.72 30.88 32.72 30.88 30.57 31.27 30.57"/><path class="cls-4" d="M36,33.06a.42.42,0,0,0,.48.4,1.19,1.19,0,0,0,.43-.07l.06.27a1.45,1.45,0,0,1-.54.1.74.74,0,0,1-.8-.79.77.77,0,0,1,.76-.83.68.68,0,0,1,.67.75,1,1,0,0,1,0,.17Zm.68-.27a.33.33,0,0,0-.32-.38.39.39,0,0,0-.36.38Z" transform="translate(-2.75 -1.01)"/><path class="cls-4" d="M38.27,33.73l0-.17h0a.58.58,0,0,1-.46.21.46.46,0,0,1-.49-.46c0-.39.35-.59.92-.59v0c0-.1,0-.27-.32-.27a.83.83,0,0,0-.42.11l-.08-.25a1.11,1.11,0,0,1,.56-.14.58.58,0,0,1,.64.65v.56a2.64,2.64,0,0,0,0,.37ZM38.22,33c-.28,0-.54.06-.54.29a.21.21,0,0,0,.22.22.32.32,0,0,0,.31-.21.27.27,0,0,0,0-.09Z" transform="translate(-2.75 -1.01)"/><path class="cls-4" d="M39,32.67c0-.21,0-.36,0-.5h.34v.3h0a.46.46,0,0,1,.42-.33h.09v.37h-.11a.35.35,0,0,0-.35.3.7.7,0,0,0,0,.12v.8H39Z" transform="translate(-2.75 -1.01)"/><path class="cls-4" d="M40.67,31.73v.44H41v.29h-.37v.69c0,.19.05.29.2.29l.15,0v.3a.84.84,0,0,1-.28,0,.46.46,0,0,1-.34-.13.62.62,0,0,1-.12-.43v-.73h-.22v-.29h.22v-.35Z" transform="translate(-2.75 -1.01)"/><path class="cls-4" d="M43.48,32.94a.77.77,0,0,1-.8.83.75.75,0,0,1-.78-.8.77.77,0,0,1,.8-.82.75.75,0,0,1,.77.8m-1.17,0c0,.3.15.53.39.53s.38-.22.38-.53-.11-.52-.38-.52-.39.27-.39.53" transform="translate(-2.75 -1.01)"/><path class="cls-4" d="M43.84,33.73V32.47h-.21v-.29h.21v-.07a.73.73,0,0,1,.19-.53.6.6,0,0,1,.41-.15.8.8,0,0,1,.25,0l0,.3a.43.43,0,0,0-.17,0c-.19,0-.26.16-.26.35v.08h.34v.29h-.34v1.26Z" transform="translate(-2.75 -1.01)"/><path class="cls-4" d="M45.93,31.73v.44h.37v.29h-.37v.69c0,.19.05.29.2.29l.15,0v.3a.84.84,0,0,1-.28,0,.46.46,0,0,1-.34-.13.62.62,0,0,1-.12-.43v-.73h-.22v-.29h.22v-.35Z" transform="translate(-2.75 -1.01)"/><path class="cls-4" d="M46.59,31.46H47v.93h0a.53.53,0,0,1,.2-.18.54.54,0,0,1,.27-.07c.27,0,.54.18.54.67v.92h-.39v-.87c0-.23-.08-.4-.3-.4a.32.32,0,0,0-.32.34v.93h-.4Z" transform="translate(-2.75 -1.01)"/><path class="cls-4" d="M48.7,33.06a.42.42,0,0,0,.48.4,1.18,1.18,0,0,0,.43-.07l.06.27a1.45,1.45,0,0,1-.54.1.74.74,0,0,1-.8-.79.77.77,0,0,1,.76-.83.68.68,0,0,1,.67.75.9.9,0,0,1,0,.17Zm.68-.27a.33.33,0,0,0-.32-.38.38.38,0,0,0-.36.38Z" transform="translate(-2.75 -1.01)"/><path class="cls-4" d="M52.46,33.63a2.12,2.12,0,0,1-.69.12,1.16,1.16,0,0,1-.84-.29,1.07,1.07,0,0,1-.3-.79,1.09,1.09,0,0,1,1.2-1.12,1.43,1.43,0,0,1,.57.1l-.09.32a1.18,1.18,0,0,0-.49-.09.72.72,0,0,0-.78.77.71.71,0,0,0,.75.78.76.76,0,0,0,.3,0v-.53H51.7v-.31h.76Z" transform="translate(-2.75 -1.01)"/><path class="cls-4" d="M54.24,33.26c0,.19,0,.34,0,.47h-.34l0-.24h0a.56.56,0,0,1-.5.27c-.29,0-.54-.17-.54-.68v-.91h.39V33c0,.26.08.42.29.42a.33.33,0,0,0,.3-.21.35.35,0,0,0,0-.12v-.94h.39Z" transform="translate(-2.75 -1.01)"/><rect class="cls-4" x="51.92" y="30.45" width="0.4" height="2.26"/><path class="cls-4" d="M55.53,33.73V32.47h-.21v-.29h.21v-.07a.73.73,0,0,1,.19-.53.59.59,0,0,1,.41-.15.81.81,0,0,1,.25,0l0,.3a.43.43,0,0,0-.17,0c-.19,0-.26.16-.26.35v.08h.34v.29h-.34v1.26Z" transform="translate(-2.75 -1.01)"/><path class="cls-4" d="M58.64,32.94a.77.77,0,0,1-.8.83.75.75,0,0,1-.78-.8.77.77,0,0,1,.8-.82.75.75,0,0,1,.77.8m-1.17,0c0,.3.15.53.39.53s.38-.22.38-.53-.11-.52-.38-.52-.39.27-.39.53" transform="translate(-2.75 -1.01)"/><path class="cls-4" d="M59,33.73V32.47h-.21v-.29H59v-.07a.73.73,0,0,1,.19-.53.6.6,0,0,1,.41-.15.81.81,0,0,1,.25,0l0,.3a.43.43,0,0,0-.17,0c-.19,0-.26.16-.26.35v.08h.34v.29H59.4v1.26Z" transform="translate(-2.75 -1.01)"/><path class="cls-4" d="M62.37,33.63a2.14,2.14,0,0,1-.69.12,1.16,1.16,0,0,1-.84-.29,1.07,1.07,0,0,1-.3-.79,1.09,1.09,0,0,1,1.2-1.12,1.43,1.43,0,0,1,.57.1l-.09.32a1.18,1.18,0,0,0-.49-.09.72.72,0,0,0-.78.77.71.71,0,0,0,.75.78.76.76,0,0,0,.3,0v-.53h-.38v-.31h.76Z" transform="translate(-2.75 -1.01)"/><path class="cls-4" d="M64.16,33.26c0,.19,0,.34,0,.47h-.34l0-.24h0a.56.56,0,0,1-.5.27c-.29,0-.54-.17-.54-.68v-.91h.39V33c0,.26.08.42.29.42a.33.33,0,0,0,.3-.21.35.35,0,0,0,0-.12v-.94h.39Z" transform="translate(-2.75 -1.01)"/><path class="cls-4" d="M65,31.74a.21.21,0,0,1-.22.21.21.21,0,0,1-.22-.21.22.22,0,0,1,.44,0m-.42.43H65v1.55h-.4Z" transform="translate(-2.75 -1.01)"/><path class="cls-4" d="M65.4,32.64c0-.18,0-.33,0-.46h.34l0,.23h0a.56.56,0,0,1,.49-.27c.27,0,.55.18.55.67v.92h-.39v-.88c0-.22-.08-.39-.3-.39a.33.33,0,0,0-.31.23.39.39,0,0,0,0,.13v.91h-.4Z" transform="translate(-2.75 -1.01)"/><path class="cls-4" d="M67.5,33.06a.42.42,0,0,0,.48.4,1.19,1.19,0,0,0,.43-.07l.06.27a1.45,1.45,0,0,1-.54.1.73.73,0,0,1-.8-.79.77.77,0,0,1,.76-.83.68.68,0,0,1,.67.75,1,1,0,0,1,0,.17Zm.68-.27a.33.33,0,0,0-.32-.38.38.38,0,0,0-.36.38Z" transform="translate(-2.75 -1.01)"/><path class="cls-4" d="M69.74,33.73l0-.17h0a.58.58,0,0,1-.46.21.46.46,0,0,1-.49-.46c0-.39.35-.59.92-.59v0c0-.1,0-.27-.32-.27a.83.83,0,0,0-.42.11l-.08-.25a1.11,1.11,0,0,1,.56-.14.58.58,0,0,1,.64.65v.56a2.64,2.64,0,0,0,0,.37ZM69.69,33c-.28,0-.54.06-.54.29a.21.21,0,0,0,.22.22.32.32,0,0,0,.31-.21.3.3,0,0,0,0-.09Z" transform="translate(-2.75 -1.01)"/><rect class="cls-5" x="30.49" y="23.39" width="36.85" height="0.78"/><polygon class="cls-4" points="20.45 0.01 11.3 27.68 12.55 27.68 21.61 0 20.45 0.01"/><polygon class="cls-5" points="19.08 0.01 9.86 27.68 11.12 27.68 20.22 0.01 19.08 0.01"/><polygon class="cls-3" points="17.7 0.01 8.43 27.68 9.68 27.68 18.84 0.01 17.7 0.01"/><path class="cls-3" d="M21.9,25.88a4.68,4.68,0,0,0-3.41,1.47L18,28.75a6.37,6.37,0,0,1,3.43-1.48c1.71,0,3.16,1.44,4.4,1.44a4.69,4.69,0,0,0,1.91-.4l.46-1.41a5.47,5.47,0,0,1-2,.33c-1.83,0-2.72-1.35-4.3-1.35" transform="translate(-2.75 -1.01)"/><path class="cls-5" d="M26.49,25.45c-1.85-.06-2.61-1.24-4.09-1.31a4.54,4.54,0,0,0-3.26,1.19l-.41,1.27A4.58,4.58,0,0,1,22,25.31c1.45,0,2.7,1.32,4.3,1.32a5.44,5.44,0,0,0,2.15-.42L28.87,25a4.52,4.52,0,0,1-2.38.5" transform="translate(-2.75 -1.01)"/><path class="cls-4" d="M27.09,23.67c-2.1,0-2.35-1.32-4.27-1.35a4.82,4.82,0,0,0-3,1.06l-.39,1.2a5.73,5.73,0,0,1,2.87-1c2.11.05,2.88,1.26,4.34,1.32a4.17,4.17,0,0,0,2.49-.58l.53-1.64a3.57,3.57,0,0,1-2.53,1" transform="translate(-2.75 -1.01)"/><polygon class="cls-3" points="7.29 18.53 10.22 18.53 11.36 15.18 9.89 15.18 7.29 18.53"/><polygon class="cls-3" points="4.05 22.68 8.8 22.68 10.07 18.96 6.95 18.96 4.05 22.68"/><polygon class="cls-3" points="12.51 11.83 10.22 14.76 11.51 14.76 12.51 11.83"/><polygon class="cls-3" points="0.07 27.69 7.11 27.69 8.66 23.04 3.72 23.04 0.07 27.69"/><path class="cls-3" d="M15.56,11.64a.45.45,0,1,0,.44.45.45.45,0,0,0-.44-.45" transform="translate(-2.75 -1.01)"/><path class="cls-3" d="M29.63,12.8A15.19,15.19,0,0,0,24.19,1.6L24.36,1H23.2l.67,1.44S24,2.14,24,2a13.59,13.59,0,0,1,3,8.12c0,.65-.24.88-.85,1-1.51.25-8.61.67-9.72.88-.15,0-.14.11-.14.13a.09.09,0,0,0,.09.09c1.1.13,9.6.44,9.9.49s.6.18.68,1.11a17.83,17.83,0,0,1-2.22,10.49L24.47,24l-.41,1.12L25.61,25l-.52-.44A19,19,0,0,0,29.63,12.8" transform="translate(-2.75 -1.01)"/><rect class="cls-5" x="0.07" y="30.74" width="26.82" height="0.05"/><rect class="cls-6" x="0.07" y="30.74" width="26.82" height="0.05"/><path class="cls-3" d="M3.3,32.66H3.18V33H3.3a.15.15,0,1,0,0-.31m0,.63H3.18v.37a.09.09,0,0,1-.1.1h-.2a.09.09,0,0,1-.1-.1V32.44a.09.09,0,0,1,.1-.1h.43c.36,0,.55.16.55.48s-.19.48-.55.48" transform="translate(-2.75 -1.01)"/><path class="cls-3" d="M4.59,33.48c.18,0,.26-.15.26-.41s-.08-.41-.26-.41-.26.15-.26.41.08.41.26.41m0,.33a.74.74,0,1,1,.67-.74.65.65,0,0,1-.67.74" transform="translate(-2.75 -1.01)"/><path class="cls-3" d="M5.87,32.66H5.76v.29h.12c.11,0,.16-.06.16-.14s-.05-.14-.16-.14m.37.53.24.45c0,.07,0,.12-.07.12H6.18a.12.12,0,0,1-.12-.08l-.19-.42H5.76v.39a.09.09,0,0,1-.1.1h-.2a.09.09,0,0,1-.1-.1V32.44a.09.09,0,0,1,.1-.1h.43c.36,0,.55.15.55.46a.41.41,0,0,1-.2.39" transform="translate(-2.75 -1.01)"/><path class="cls-3" d="M6.61,32.66a.09.09,0,0,1-.1-.1v-.12a.09.09,0,0,1,.1-.1h.88a.09.09,0,0,1,.1.1v.12a.09.09,0,0,1-.1.1H7.25v1a.09.09,0,0,1-.1.1h-.2a.09.09,0,0,1-.1-.1v-1Z" transform="translate(-2.75 -1.01)"/><path class="cls-3" d="M8.88,33.17l-.1-.43-.1.43Zm-.28.32,0,.18a.1.1,0,0,1-.11.09H8.23c-.07,0-.11,0-.09-.12l.37-1.23a.11.11,0,0,1,.11-.08h.32a.11.11,0,0,1,.12.08l.36,1.23c0,.07,0,.12-.08.12H9.12A.11.11,0,0,1,9,33.67l0-.18Z" transform="translate(-2.75 -1.01)"/><path class="cls-3" d="M9.45,33.24v-.8a.09.09,0,0,1,.1-.1h.2a.09.09,0,0,1,.1.1v.81c0,.13.05.21.17.21s.16-.08.16-.21v-.81a.09.09,0,0,1,.1-.1h.2a.09.09,0,0,1,.1.1v.8a.49.49,0,0,1-.57.55.5.5,0,0,1-.57-.55" transform="translate(-2.75 -1.01)"/><path class="cls-3" d="M10.76,32.66a.09.09,0,0,1-.1-.1v-.12a.09.09,0,0,1,.1-.1h.88a.09.09,0,0,1,.1.1v.12a.09.09,0,0,1-.1.1H11.4v1a.09.09,0,0,1-.1.1h-.2a.09.09,0,0,1-.1-.1v-1Z" transform="translate(-2.75 -1.01)"/><path class="cls-3" d="M11.8,32.44a.09.09,0,0,1,.1-.1h.2a.09.09,0,0,1,.1.1v.4h.33v-.4a.09.09,0,0,1,.1-.1h.2a.09.09,0,0,1,.1.1v1.22a.09.09,0,0,1-.1.1h-.2a.09.09,0,0,1-.1-.1v-.5H12.2v.5a.09.09,0,0,1-.1.1h-.2a.09.09,0,0,1-.1-.1Z" transform="translate(-2.75 -1.01)"/><path class="cls-3" d="M13.7,33.48c.18,0,.26-.15.26-.41s-.08-.41-.26-.41-.26.15-.26.41.08.41.26.41m0,.33a.74.74,0,1,1,.67-.74.65.65,0,0,1-.67.74" transform="translate(-2.75 -1.01)"/><path class="cls-3" d="M15,32.66h-.12v.29H15c.11,0,.16-.06.16-.14s-.05-.14-.16-.14m.37.53.24.45c0,.07,0,.12-.07.12h-.22a.12.12,0,0,1-.12-.08L15,33.27h-.12v.39a.09.09,0,0,1-.1.1h-.2a.09.09,0,0,1-.1-.1V32.44a.09.09,0,0,1,.1-.1H15c.36,0,.55.15.55.46a.41.41,0,0,1-.2.39" transform="translate(-2.75 -1.01)"/><rect class="cls-3" x="12.97" y="31.32" width="0.4" height="1.43" rx="0.1" ry="0.1"/><path class="cls-3" d="M16.31,32.66a.09.09,0,0,1-.1-.1v-.12a.09.09,0,0,1,.1-.1h.88a.09.09,0,0,1,.1.1v.12a.09.09,0,0,1-.1.1H17v1a.09.09,0,0,1-.1.1h-.2a.09.09,0,0,1-.1-.1v-1Z" transform="translate(-2.75 -1.01)"/><path class="cls-3" d="M18.12,33.66a.09.09,0,0,1-.1.1h-.2a.09.09,0,0,1-.1-.1V33.2l-.39-.74c0-.07,0-.12.07-.12h.21a.12.12,0,0,1,.12.08l.2.43.2-.43a.12.12,0,0,1,.12-.08h.21c.08,0,.11.05.07.12l-.39.74Z" transform="translate(-2.75 -1.01)"/><path class="cls-3" d="M19.8,33.48c.18,0,.26-.15.26-.41s-.08-.41-.26-.41-.26.15-.26.41.08.41.26.41m0,.33a.74.74,0,1,1,.67-.74.65.65,0,0,1-.67.74" transform="translate(-2.75 -1.01)"/><path class="cls-3" d="M20.56,32.44a.09.09,0,0,1,.1-.1h.77a.09.09,0,0,1,.1.1v.12a.09.09,0,0,1-.1.1H21v.26h.4a.09.09,0,0,1,.1.1v.12a.09.09,0,0,1-.1.1H21v.42a.09.09,0,0,1-.1.1h-.2a.09.09,0,0,1-.1-.1Z" transform="translate(-2.75 -1.01)"/><path class="cls-3" d="M23,33c0-.27-.1-.39-.3-.39h-.07v.78h.07c.2,0,.3-.12.3-.39m-.77-.61a.09.09,0,0,1,.1-.1h.41c.47,0,.67.27.67.71a.62.62,0,0,1-.69.71h-.39a.09.09,0,0,1-.1-.1Z" transform="translate(-2.75 -1.01)"/><path class="cls-3" d="M24.08,33.48c.18,0,.26-.15.26-.41s-.08-.41-.26-.41-.26.15-.26.41.08.41.26.41m0,.33a.74.74,0,1,1,.67-.74.65.65,0,0,1-.67.74" transform="translate(-2.75 -1.01)"/><path class="cls-3" d="M24.84,33.24v-.8a.09.09,0,0,1,.1-.1h.2a.09.09,0,0,1,.1.1v.81c0,.13.05.21.17.21s.16-.08.16-.21v-.81a.09.09,0,0,1,.1-.1h.2a.09.09,0,0,1,.1.1v.8a.49.49,0,0,1-.57.55.5.5,0,0,1-.57-.55" transform="translate(-2.75 -1.01)"/><path class="cls-3" d="M26.75,33.17l-.1-.43-.1.43Zm-.28.32,0,.18a.1.1,0,0,1-.11.09h-.22c-.07,0-.11,0-.09-.12l.37-1.23a.11.11,0,0,1,.11-.08h.32a.11.11,0,0,1,.12.08l.36,1.23a.08.08,0,0,1-.08.12H27a.1.1,0,0,1-.11-.09l0-.18Z" transform="translate(-2.75 -1.01)"/><path class="cls-3" d="M27.37,32.44a.09.09,0,0,1,.1-.1h.2a.09.09,0,0,1,.1.1v1h.49a.09.09,0,0,1,.1.1v.12a.09.09,0,0,1-.1.1h-.79a.09.09,0,0,1-.1-.1Z" transform="translate(-2.75 -1.01)"/><path class="cls-3" d="M29.1,33.17l-.1-.43-.1.43Zm-.28.32,0,.18a.1.1,0,0,1-.11.09h-.22c-.07,0-.11,0-.09-.12l.37-1.23a.11.11,0,0,1,.11-.08h.32a.11.11,0,0,1,.12.08l.36,1.23c0,.07,0,.12-.08.12h-.22a.1.1,0,0,1-.11-.09l0-.18Z" transform="translate(-2.75 -1.01)"/><path class="cls-4" d="M3.3,30.13H3.18v.31H3.3a.15.15,0,1,0,0-.31m0,.63H3.18v.37a.09.09,0,0,1-.1.1h-.2a.09.09,0,0,1-.1-.1V29.9a.09.09,0,0,1,.1-.1h.43c.36,0,.55.16.55.48s-.19.48-.55.48" transform="translate(-2.75 -1.01)"/><path class="cls-4" d="M4.58,30.93c.18,0,.26-.15.26-.41s-.08-.41-.26-.41-.26.15-.26.41.08.41.26.41m0,.33a.74.74,0,1,1,.66-.74.65.65,0,0,1-.66.74" transform="translate(-2.75 -1.01)"/><path class="cls-4" d="M5.86,30.13H5.75v.29h.11c.11,0,.16-.06.16-.14s-.05-.14-.16-.14m.37.54.24.45c0,.07,0,.12-.07.12H6.18a.12.12,0,0,1-.12-.08l-.19-.42H5.75v.39a.09.09,0,0,1-.1.1h-.2a.09.09,0,0,1-.1-.1V29.9a.09.09,0,0,1,.1-.1h.43c.36,0,.55.15.55.47a.42.42,0,0,1-.2.39" transform="translate(-2.75 -1.01)"/><path class="cls-4" d="M6.6,30.13a.09.09,0,0,1-.1-.1V29.9a.09.09,0,0,1,.1-.1h.87a.09.09,0,0,1,.1.1V30a.09.09,0,0,1-.1.1H7.24v1a.09.09,0,0,1-.1.1h-.2a.09.09,0,0,1-.1-.1v-1Z" transform="translate(-2.75 -1.01)"/><path class="cls-4" d="M8.87,30.64l-.1-.43-.1.43ZM8.59,31l0,.18a.1.1,0,0,1-.11.09H8.22c-.07,0-.1,0-.09-.12l.37-1.23a.11.11,0,0,1,.11-.09h.32a.11.11,0,0,1,.11.09l.36,1.23c0,.07,0,.12-.09.12H9.11A.11.11,0,0,1,9,31.15l0-.18Z" transform="translate(-2.75 -1.01)"/><path class="cls-4" d="M9.44,30.7v-.8a.09.09,0,0,1,.1-.1h.2a.09.09,0,0,1,.1.1v.81c0,.13.05.21.17.21s.16-.08.16-.21V29.9a.09.09,0,0,1,.1-.1h.2a.09.09,0,0,1,.1.1v.8a.49.49,0,0,1-.57.55.5.5,0,0,1-.56-.55" transform="translate(-2.75 -1.01)"/><path class="cls-4" d="M10.74,30.13a.09.09,0,0,1-.1-.1V29.9a.09.09,0,0,1,.1-.1h.87a.09.09,0,0,1,.1.1V30a.09.09,0,0,1-.1.1h-.24v1a.09.09,0,0,1-.1.1h-.2a.09.09,0,0,1-.1-.1v-1Z" transform="translate(-2.75 -1.01)"/><path class="cls-4" d="M12.4,30.93c.18,0,.26-.15.26-.41s-.08-.41-.26-.41-.26.15-.26.41.08.41.26.41m0,.33a.74.74,0,1,1,.66-.74.65.65,0,0,1-.66.74" transform="translate(-2.75 -1.01)"/><path class="cls-4" d="M13.16,29.9a.09.09,0,0,1,.1-.1h.22a.13.13,0,0,1,.12.07l.37.71V29.9a.09.09,0,0,1,.1-.1h.2a.09.09,0,0,1,.1.1v1.23a.09.09,0,0,1-.1.1h-.23a.12.12,0,0,1-.12-.07l-.37-.71v.68a.09.09,0,0,1-.1.1h-.2a.09.09,0,0,1-.1-.1Z" transform="translate(-2.75 -1.01)"/><path class="cls-4" d="M15.14,30.93c.18,0,.26-.15.26-.41s-.08-.41-.26-.41-.26.15-.26.41.08.41.26.41m0,.33a.74.74,0,1,1,.66-.74.65.65,0,0,1-.66.74" transform="translate(-2.75 -1.01)"/><path class="cls-4" d="M16.64,31.09a.11.11,0,0,1-.12-.08l-.18-.51-.05.63a.1.1,0,0,1-.11.1H16c-.07,0-.1,0-.09-.11L16,29.9a.1.1,0,0,1,.11-.1h.26a.11.11,0,0,1,.11.08l.22.7.22-.7A.11.11,0,0,1,17,29.8h.26a.1.1,0,0,1,.11.1l.11,1.23a.09.09,0,0,1-.1.11h-.2a.1.1,0,0,1-.1-.1l-.05-.63-.17.5a.11.11,0,0,1-.12.08Z" transform="translate(-2.75 -1.01)"/><path class="cls-4" d="M17.66,29.9a.09.09,0,0,1,.1-.1h.77a.09.09,0,0,1,.1.1V30a.09.09,0,0,1-.1.1h-.47v.21h.39a.09.09,0,0,1,.1.1v.12a.09.09,0,0,1-.1.1h-.39v.25h.49a.09.09,0,0,1,.1.1v.12a.09.09,0,0,1-.1.1h-.79a.09.09,0,0,1-.1-.1Z" transform="translate(-2.75 -1.01)"/><path class="cls-4" d="M20.06,30.52c0-.27-.1-.39-.3-.39h-.07v.78h.07c.2,0,.3-.12.3-.39m-.77-.61a.09.09,0,0,1,.1-.1h.4c.47,0,.67.27.67.72s-.2.72-.69.72h-.39a.09.09,0,0,1-.1-.1Z" transform="translate(-2.75 -1.01)"/><path class="cls-4" d="M20.57,29.9a.09.09,0,0,1,.1-.1h.77a.09.09,0,0,1,.1.1V30a.09.09,0,0,1-.1.1H21v.21h.39a.09.09,0,0,1,.1.1v.12a.09.09,0,0,1-.1.1H21v.25h.49a.09.09,0,0,1,.1.1v.12a.09.09,0,0,1-.1.1h-.78a.09.09,0,0,1-.1-.1Z" transform="translate(-2.75 -1.01)"/><path class="cls-4" d="M23,30.52c0-.27-.1-.39-.3-.39H22.6v.78h.07c.2,0,.3-.12.3-.39m-.77-.61a.09.09,0,0,1,.1-.1h.4c.47,0,.67.27.67.72s-.21.72-.69.72H22.3a.09.09,0,0,1-.1-.1Z" transform="translate(-2.75 -1.01)"/><path class="cls-4" d="M24.09,30.93c.18,0,.26-.15.26-.41s-.08-.41-.26-.41-.26.15-.26.41.08.41.26.41m0,.33a.74.74,0,1,1,.66-.74.65.65,0,0,1-.66.74" transform="translate(-2.75 -1.01)"/><path class="cls-4" d="M24.85,30.7v-.8a.09.09,0,0,1,.1-.1h.2a.09.09,0,0,1,.1.1v.81c0,.13.05.21.17.21s.16-.08.16-.21V29.9a.09.09,0,0,1,.1-.1h.2a.09.09,0,0,1,.1.1v.8a.49.49,0,0,1-.57.55.5.5,0,0,1-.56-.55" transform="translate(-2.75 -1.01)"/><path class="cls-4" d="M26.75,30.64l-.1-.43-.1.43Zm-.28.32,0,.18a.1.1,0,0,1-.11.09H26.1c-.07,0-.11,0-.09-.12l.37-1.23a.11.11,0,0,1,.11-.09h.32a.11.11,0,0,1,.11.09l.36,1.23c0,.07,0,.12-.09.12H27a.11.11,0,0,1-.11-.09l0-.18Z" transform="translate(-2.75 -1.01)"/><path class="cls-4" d="M27.37,29.9a.09.09,0,0,1,.1-.1h.2a.09.09,0,0,1,.1.1v1h.49a.09.09,0,0,1,.1.1v.12a.09.09,0,0,1-.1.1h-.79a.09.09,0,0,1-.1-.1Z" transform="translate(-2.75 -1.01)"/><path class="cls-4" d="M29.1,30.64l-.1-.43-.1.43Zm-.28.32,0,.18a.11.11,0,0,1-.11.09h-.22c-.07,0-.1,0-.09-.12l.37-1.23a.11.11,0,0,1,.11-.09h.32a.11.11,0,0,1,.11.09l.36,1.23c0,.07,0,.12-.09.12h-.22a.11.11,0,0,1-.11-.09l0-.18Z" transform="translate(-2.75 -1.01)"/></g></g></g></svg>